<?xml version="1.0" encoding="utf-8"?>
<!-- Generator: Adobe Illustrator 25.2.0, SVG Export Plug-In . SVG Version: 6.00 Build 0)  -->
<svg version="1.1" id="Calque_1" xmlns="http://www.w3.org/2000/svg" xmlns:xlink="http://www.w3.org/1999/xlink" x="0px" y="0px"
	 viewBox="0 0 205.4 58.7" style="enable-background:new 0 0 205.4 58.7;" xml:space="preserve">
<style type="text/css">
	.st0{fill:#FFFFFF;}
	.st1{fill:#222221;}
	.st2{fill:#FCC000;}
</style>
<g id="Calque_2_1_">
	<g id="Layer_1">
		<path class="st0" d="M46.6,14.7c0-2.2-1.3-4-2.9-4c-0.1,0-0.2,0-0.3,0C41.7,4.8,37.2,0.5,31.8,0.5c-6.1,0-11.2,5.6-12.2,13
			c-1.5,0.1-2.7,1.7-2.7,3.7s1.2,3.8,2.7,3.8c0.1,0,0.3,0,0.4-0.1c1.6,6.2,6.3,10.6,11.7,10.6c6.2,0,11.2-5.7,12.2-13
			C45.5,18.4,46.6,16.7,46.6,14.7z"/>
		<path class="st1" d="M31.7,17c-0.1-0.2-0.1-0.4-0.1-0.6c0-0.5-0.2-0.9-0.5-1.3c-0.3-0.4-0.7-0.8-1.1-1.1c-0.6-0.3-1.2-0.4-1.9-0.2
			c-0.4,0.1-0.8,0.2-1.1,0.2c-0.4,0-0.8,0.1-1.1,0.4c-1,0.8-1.4,2-1.2,3.2c0,0.8,0.5,1.6,1.2,2c0.6,0.3,1.3,0.6,2,0.8
			c0.6,0.1,1-0.2,1.5-0.4c0.1-0.4,0.5-0.3,0.7-0.5c0.1,0,0.1-0.1,0.2-0.2c0.3-0.3,0.5-0.6,0.7-0.9C31.3,18,31.5,17.5,31.7,17
			L31.7,17 M29.6,18.8c-0.1,0.1-0.2,0.2-0.3,0.3c-0.5,0.6-1.3,0.7-2,0.4c-0.9-0.3-1.5-0.9-1.9-1.7c0-0.3,0-0.5,0-0.8
			c0-0.1,0-0.2,0-0.4c0-0.6,0.3-1.1,0.6-1.6c0.3-0.3,0.8-0.5,1.2-0.3c0.2,0.1,0.5,0,0.6-0.1c0.5-0.5,1.4-0.4,1.9,0.1
			c0.1,0.1,0.1,0.1,0.1,0.2c0.1,0.2,0.1,0.3,0.3,0.4c0.5,0.4,0.4,0.9,0.5,1.4c-0.1,0.8-0.4,1.5-1,2"/>
		<path class="st0" d="M30.2,15.4C30.1,15.3,30,15.2,30,15c-0.4-0.6-1.2-0.8-1.8-0.4c0,0,0,0,0,0c-0.2,0.2-0.4,0.2-0.6,0.1
			c-0.4-0.2-0.9-0.1-1.2,0.3c-0.4,0.4-0.6,1-0.6,1.6c0,0.1,0,0.2,0,0.4c-0.1,0.2-0.1,0.5,0,0.8c0.3,0.8,1,1.5,1.9,1.7
			c0.7,0.3,1.5,0.2,2-0.4c0.1-0.1,0.2-0.2,0.3-0.3c0.6-0.5,1-1.2,1-2C30.7,16.3,30.8,15.8,30.2,15.4 M28,17.5
			c-0.2,0-0.3-0.2-0.3-0.4s0.2-0.5,0.5-0.5s0.5,0,0.5,0.3C28.6,17.3,28.4,17.5,28,17.5C28,17.5,28,17.5,28,17.5"/>
		<path class="st1" d="M37.4,14.1c-0.5-0.1-1-0.3-1.4-0.3c-0.2,0-0.4,0-0.7,0c-0.6-0.1-1.1,0.2-1.5,0.6c-0.7,0.8-1.1,1.9-1.1,3
			c0.1,0.4,0.2,0.8,0.4,1.2c0.5,1.2,1.9,1.9,3.2,1.5c0.9-0.2,1.6-0.7,2.2-1.4c0.2-0.2,0.3-0.4,0.4-0.6c0.2-0.5,0.3-1.1,0.2-1.7
			C39,15.4,38.3,14.6,37.4,14.1 M37.8,18.1c-0.4,0.5-0.9,0.9-1.5,1.1c-0.4,0.2-0.8,0.2-1.2,0.1c-0.5-0.1-1-0.4-1.3-0.9
			c-0.5-0.6-0.6-1.4-0.4-2.1c0.1-0.6,0.4-1.1,0.8-1.5c0.2-0.1,0.4-0.2,0.6-0.3c0,0,0,0.1,0,0.1c0.4,0,0.9,0,1.3,0c1.1,0,2,0.9,2.1,2
			C38.3,17.2,38.1,17.7,37.8,18.1"/>
		<path class="st0" d="M36.2,14.7c-0.4,0-0.9,0-1.3,0c0,0,0-0.1,0-0.1c-0.2,0.1-0.4,0.2-0.6,0.3c-0.5,0.4-0.8,0.9-0.8,1.5
			c-0.2,0.7-0.1,1.5,0.4,2.1c0.3,0.4,0.8,0.7,1.3,0.9c0.4,0.1,0.8,0.1,1.2-0.1c0.6-0.3,1.1-0.7,1.5-1.1c0.4-0.4,0.6-0.9,0.5-1.4
			C38.3,15.6,37.4,14.7,36.2,14.7 M35.7,17.5c-0.2,0-0.4-0.1-0.4-0.4c0,0,0,0,0,0c0-0.3,0.3-0.7,0.5-0.6c0.2,0.1,0.4,0.2,0.5,0.4
			C36.4,17.2,36,17.5,35.7,17.5"/>
		<path class="st1" d="M31.9,25.5c-0.4,0-0.8,0-1.1,0c-0.6,0-1.3-0.1-1.8-0.4c-0.2-0.1-0.4,0-0.6,0.1c-0.2,0.2,0,0.4,0.1,0.5
			s0.1,0.1,0.2,0.2c0.4,0.4,0.6,0.9,1.2,0.9c0.1,0,0.2,0.1,0.3,0.1c0.6,0.4,1.3,0.6,2,0.6c0,0,0,0.1,0,0.1c0.5-0.1,1-0.3,1.5-0.5
			c1-0.5,1.2-1.6,1.8-2.4c0,0,0-0.1,0-0.1c0-0.1,0-0.4-0.1-0.4c-0.2-0.1-0.4-0.1-0.6,0c-0.2,0.2-0.5,0.3-0.8,0.4
			c-0.6,0.1-1.1,0.4-1.7,0.7C32.2,25.4,32,25.5,31.9,25.5 M33.2,25.8h0.5c-0.1,0.1-0.1,0.3-0.2,0.4s-0.2,0.4-0.5,0.5
			c-0.7,0.2-1.5,0.1-2.2-0.2c0,0,0,0-0.1-0.1c0,0,0.1,0,0.1,0h0.7c0.6,0,1.2-0.2,1.7-0.5c0,0,0,0,0.1,0"/>
		<path class="st1" d="M28.6,16.9c0,0.3-0.3,0.6-0.6,0.6c0,0,0,0-0.1,0c-0.2,0-0.3-0.2-0.3-0.4s0.2-0.5,0.5-0.5S28.5,16.6,28.6,16.9
			"/>
		<path class="st1" d="M35.7,17.5c-0.2,0-0.4-0.1-0.4-0.4c0,0,0,0,0,0c0-0.3,0.3-0.7,0.5-0.6c0.2,0.1,0.4,0.2,0.5,0.4
			C36.3,17.1,36,17.5,35.7,17.5"/>
		<path class="st1" d="M67.7,47.8c-0.2-0.4-0.4-0.8-0.7-1.1c-0.3-0.6-0.9-1.1-1.6-1.4c-1.1-0.4-2.3-0.8-3.5-1.2
			c-0.4-0.1-0.7-0.2-1.1-0.3c-0.6-0.1-1.2-0.2-1.9-0.3c-0.4-0.1-0.7-0.2-1.1-0.2c-1-0.1-2-0.1-3-0.1l0,0h-1c-0.2,0-0.3,0-0.2-0.2
			c0.2-0.4,0.4-0.8,0.5-1.2c0.1-0.2,0.2-0.5,0.3-0.8c0.1-0.3-0.2-0.7-0.5-0.6s-0.5,0.2-0.8,0.4c-0.1,0-0.2,0.1-0.2,0.1
			c0-0.1,0-0.1,0-0.2c0-0.1,0-0.3,0-0.4c-0.2-0.5-0.4-1-0.6-1.5c-0.2-0.5-0.6-1-1.1-1.3c-0.5-0.3-1-0.5-1.5-0.7
			c-0.2-0.1-0.2-0.1-0.1-0.3c0.4-0.9,0.6-1.8,0.6-2.8c0.1-0.8,0.1-1.5,0-2.3c-0.1-0.8-0.8-1.4-1.6-1.3c-0.2,0-0.3,0.1-0.5,0.1
			c-0.1,0.1-0.3,0.1-0.4,0.1c0-0.1,0-0.3-0.1-0.4c0,0,0,0,0-0.1c0.3-0.8,0-1.7-0.6-2.2c0,0,0,0,0-0.1c-0.6-1.3-1.8-1.5-3-1.7
			c-0.3,0-0.6,0-0.8,0c-0.3,0-0.7-0.1-1-0.1H42c0.6-1,1-2.1,1.4-3.1c0.4-1,0.6-2.1,0.6-3.1c0-0.4,0.1-0.5,0.6-0.4
			c0.4,0.1,0.7,0,1-0.3c0.6-0.6,1-1.4,1.1-2.3c0.1-1.3,0.1-2.5,0-3.8c-0.1-1.1-0.8-2.1-1.8-2.7c-0.1,0-0.1-0.1-0.1-0.1
			c-0.1-0.5-0.2-0.9-0.4-1.4c-0.6-1.3-1.3-2.5-2.1-3.7c-0.1-0.2-0.2-0.3-0.3-0.4c-0.3-0.4-0.6-0.7-0.9-1c-0.4-0.3-0.8-0.5-1.2-0.9
			c-0.6-0.5-1.3-0.9-2-1c-0.3-0.1-0.6-0.1-0.9-0.1C36.4,1.2,36,1,35.5,0.9l-0.9-0.2h-0.3c-0.3-0.1-0.7-0.1-1.1-0.1s-0.6,0-1,0
			c-0.7,0-1.5-0.1-2.3-0.1c-0.4,0.1-0.9,0.2-1.3,0.3c-0.3,0.1-0.7,0.2-1,0.4c-0.6,0.3-1.2,0.6-1.8,0.9s-1.1,0.4-1.5,1.1
			c-0.1,0.2-0.1,0.3,0,0.4s0.3,0.2,0.4,0.4c0.4,0.3,0.9,0.6,1.3,1c0.5,0.6,1.4,0.8,2,0.3c0.3-0.1,0.7-0.2,1-0.2c0.3,0,0.6,0,0.9,0
			c0.9,0,1.7-0.2,2.6-0.2c0.7,0,1.4,0.1,2.1,0.3c0.3,0.1,0.7,0.3,1,0.3C37,5.8,38.1,6.3,39.1,7c0.4,0.3,0.8,0.5,1.2,0.8
			C40.5,8,40.8,8.2,41,8.4c0.2,0.2,0.4,0.5,0.6,0.6c0.5,0.4,0.8,0.9,0.9,1.6c0,0.3,0.1,0.6,0.2,0.8c0.1,0.2,0.3,0.3,0.5,0.4
			c0.3,0.1,0.5-0.1,0.6-0.3c0,0,0,0,0,0c0-0.3,0.3-0.6,0.6-0.5c0.1,0,0.3,0.1,0.4,0.2c0.2,0.1,0.4,0.3,0.5,0.5
			c0.2,0.4,0.3,0.9,0.5,1.4c0.1,0.1,0.1,0.2,0.1,0.4c0,0.6-0.1,1.3-0.2,1.9c0.1,0.8-0.1,1.6-0.4,2.3c-0.3,0.7-0.7,0.8-1.3,0.2
			c-0.1-0.1-0.3-0.2-0.5-0.1c-0.2,0.1-0.3,0.2-0.4,0.4c-0.1,0.4-0.1,0.8-0.1,1.2c0,0.2,0,0.5,0,0.7c-0.1,0.5-0.2,1-0.3,1.4
			c0,0.4-0.1,0.8-0.2,1.2c-0.2,0.5-0.4,1-0.6,1.5c-0.3,0.6-0.6,1.2-0.9,1.7c-0.2,0-0.3,0-0.5,0.1c-1.1,0.2-2.1,0.5-3.1,1
			c-0.8,0.4-1.3,1.1-1.4,2c0,0.3,0,0.6,0,0.9c0,0,0,0.2,0.1,0.5c-0.2,0.1-0.4,0.2-0.6,0.2c-1.2,0.4-2.5,0.6-3.7,0.7
			c-0.4,0-0.9,0-1.3,0c-0.1,0-0.2,0-0.3,0L29.8,31c-0.4-0.1-0.9-0.2-1.3-0.3c-0.9-0.3-1.7-0.7-2.5-1.3c-0.8-0.5-1.5-1.2-2-2
			c-0.5-0.9-1-1.9-1.5-2.8c-0.3-0.5-0.5-1.1-0.8-1.6c-0.3-0.7-0.5-1.5-0.7-2.2c-0.2-0.5-0.4-0.5-0.8-0.4c-0.5,0.2-1.1,0.2-1.5-0.1
			c-0.5-0.4-0.8-1-0.9-1.6c-0.2-0.9-0.2-1.8,0-2.7c0.1-0.8,0.5-1.5,1.2-2c0.2-0.2,0.5-0.2,0.8-0.2c0.3,0.1,0.4,0.4,0.3,0.7
			c0,0.2,0.1,0.4,0.2,0.4c0.1,0,0.1,0,0.2,0c0.3-0.1,0.5-0.3,0.5-0.6c0-0.1,0-0.2,0-0.2c0.1-0.4,0.5-0.7,0.4-1.1c0,0,0-0.1,0.1-0.1
			c0.4-0.5,0.7-1,1-1.6c0.3-0.6,0.7-1.2,1.1-1.7c0.5-0.6,1-1.2,1.5-1.9c0.2-0.3,0.4-0.7,0.6-1c0.1-0.4,0-0.8-0.4-1.1
			c-0.1,0-0.3-0.1-0.4-0.2c-0.3-0.5-0.8-0.9-1.4-1.2c-0.3-0.2-0.7-0.1-0.9,0.2c0,0-0.1,0.1-0.1,0.2c-0.5,1-1,1.9-1.5,2.9
			c-0.4,0.8-0.8,1.5-1.1,2.3c-0.2,0.3-0.2,0.7-0.4,1.1c-0.3,0.6-0.5,1.3-0.5,1.9c0,0.3-0.2,0.5-0.4,0.6c-0.2,0.1-0.3,0.2-0.4,0.3
			c-0.5,0.6-0.9,1.2-1.1,1.9c-0.3,1-0.4,2.1-0.2,3.1c0.1,0.7,0.4,1.4,0.8,1.9c0.5,0.7,1.4,1.1,2.2,0.8c0.1,0,0.2,0,0.3,0.1
			c0.1,0.3,0.2,0.6,0.3,0.9s0.4,0.9,0.5,1.3c0.3,0.7,0.6,1.5,1,2.2c0.2,0.5,0.5,0.9,0.7,1.4c0.1,0.1,0.1,0.3,0.2,0.4
			c0.4,0.5,0.8,0.9,1.2,1.4c0,0,0.1,0.1,0.1,0.1c0.1,0.2,0.3,0.3,0.4,0.5c0.5,0.4,1.1,0.7,1.6,1.1c0.6,0.4,1.2,0.6,1.8,0.8
			c0.9,0.3,1.8,0.5,2.7,0.5c0.4,0,0.8,0.1,1.2,0.1c0.8-0.1,1.6-0.2,2.4-0.4c0.3,0,0.6-0.1,0.9-0.2c0.4-0.1,0.9-0.3,1.3-0.4
			c0,0.1,0,0.1,0,0.1c0,0.6,0.1,1.2,0.2,1.8c0,0.3,0.1,0.7,0.1,1c0.1,0.5,0.1,1.1,0.2,1.6c0.2,0.5,0.2,1.1,0.2,1.6
			c0,0.1,0,0.2,0,0.3c0.1,0.3,0.1,0.5,0.2,0.8c0.1,1.1,0.2,2.1,0.5,3.2c0.1,0.2,0,0.2-0.2,0.2c-1.3,0-2.5,0-3.8-0.1
			c-0.3,0-0.6,0-1,0c-0.7,0-1.4-0.1-2.1-0.1c-0.9,0-1.8,0.1-2.6,0.1L25,42c-0.2,0-0.4,0-0.6,0c0.1-0.2,0.1-0.4,0.2-0.6
			c0,0,0-0.1,0-0.1c0.3-0.9,0.5-1.9,0.5-2.9c0-0.3-0.2-0.5-0.4-0.7c-0.4-0.3-0.9-0.6-1.4-0.8c-0.4-0.2-0.8-0.4-1.2-0.4
			c-0.8-0.1-1.7-0.2-2.5-0.2c-0.8-0.1-1.7,0-2.5,0.1c-0.3,0.1-0.6,0.1-1,0.2c-0.6,0.2-1.2,0.4-1.8,0.6c-0.7,0.3-1.4,0.7-1.9,1.2
			c-0.1,0.2-0.2,0.4-0.3,0.6c-0.2,0.2-0.3,0.2-0.5,0c-0.3-0.3-0.6-0.6-0.9-0.9c-0.1-0.1-0.3-0.2-0.4-0.3c-0.7-0.3-1.5-0.2-2.1,0.2
			c-0.6,0.3-1.1,0.8-1.2,1.5c-0.3,1.5,0.8,3,2.3,3.3c0,0,0.1,0,0.1,0c0.4,0,0.7,0,1.1-0.1c0.2,0,0.4-0.2,0.7-0.2
			c0.1,0,0.3,0,0.4,0.1c0.2,0.3,0.3,0.5,0.4,0.8s0.1,0.2-0.1,0.3c-1.5,0.3-3.1,0.6-4.6,0.9c-1.8,0.3-3.5,1-4.9,2
			c-1,0.7-1.8,1.6-2.2,2.8C-0.2,50,0,50.8,0.6,51.4c0.9,0.8,1.9,1.4,3,1.9c1.3,0.5,2.6,1.1,3.9,1.6C7.8,55,8.1,55,8.5,55.1
			s0.8,0.4,1.1,0.5c0.9,0.3,1.9,0.6,2.8,0.8s1.7,0.5,2.5,0.7s1.7,0.4,2.5,0.6c0.9,0.2,1.7,0.3,2.6,0.4c0.4,0,0.7,0,1.1,0.1
			c0.4,0.1,0.9,0.2,1.3,0.2s0.7,0.1,1.1,0.1c0.9,0.1,1.7,0.2,2.5,0.2s1.5-0.1,2.2-0.2l1.4-0.1l2-0.1l2-0.1l1.6-0.1l2.7-0.1l2.3-0.1
			l1.8-0.1h1c0.6,0,1.2-0.1,1.8-0.1c0.4,0,0.8,0,1.2,0c0.8,0,1.5-0.1,2.3-0.1s1.6,0,2.4,0c0.6,0,1.2-0.1,1.8-0.3
			c1-0.2,1.9-0.5,2.8-0.9s1.9-0.8,2.8-1.2c0.7-0.3,1.3-0.5,2-0.7c0.5-0.2,0.9-0.2,1.4-0.4c0.6-0.3,1.2-0.6,1.8-0.9
			c0.4-0.2,0.8-0.4,1.2-0.7c0.3-0.2,0.5-0.5,0.7-0.7c0.6-0.3,1.1-0.8,1.5-1.3c0.1-0.3,0.3-0.6,0.6-0.8
			C68.1,49.2,67.9,48.6,67.7,47.8 M11.1,41.5c-0.3,0.2-0.7,0.4-1.1,0.5c-0.7,0.1-1.5-0.3-1.8-0.9c-0.2-0.4-0.3-0.8-0.5-1.2h0.1
			c0-0.7,0.3-1,1-1.3c0.8-0.3,1.7,0.1,2,0.8c0.1,0.2,0.1,0.4,0.1,0.5c0.1,0.5,0.2,0.9,0.3,1.3C11.2,41.4,11.2,41.5,11.1,41.5
			 M52.3,42.6c0-0.1,0.2-0.1,0.3-0.1s0.1,0.1,0.2,0.1s-0.1,0.2-0.2,0.3l-0.6,1.4c-0.2,0.4-0.3,0.7-0.5,1.1c-0.3,0.7-0.5,1.5-0.8,2.2
			c0,0.1-0.1,0.1-0.1,0.2c-0.1,0.1-0.2,0.2-0.3,0.3c0-0.1,0.1-0.2,0.1-0.3c0.2-0.4,0.3-0.8,0.5-1.2c0.2-0.7,0.4-1.3,0.6-2
			S52,43.3,52.3,42.6 M45.5,46.1c0.1,0.8,0.3,1.5,0.6,2.2c0,0.1,0,0.2,0,0.3c-0.1-0.1-0.3-0.1-0.3-0.2c-0.2-0.4-0.4-0.9-0.6-1.3
			c-0.5-1.3-1-2.7-1.5-4l-0.4-1c0,0-0.1-0.1-0.1-0.1s0.1-0.3,0.1-0.5c0.1,0.1,0.2,0.2,0.3,0.3c0.2,0.2,0.5,0.3,0.8,0.5
			c0.1,0.1,0.2,0.1,0.3,0.2c0.2,0.7,0.4,1.5,0.6,2.2h-0.1C45.3,45.1,45.4,45.6,45.5,46.1 M47.7,42.5c-0.1,1-0.2,2-0.3,3
			c-0.1,0.8-0.1,1.5-0.2,2.3c0,0.1,0,0.2-0.1,0.3c0,0-0.1,0.1-0.1,0.1l0-0.1c-0.3-0.5-0.5-1.2-0.6-1.8c-0.2-1.1-0.5-2.2-0.7-3.3
			c-0.1-0.3-0.2-0.6-0.3-1c0-0.1,0-0.2,0-0.4c0.1,0,0.2,0.1,0.3,0.2c0.1,0.1,0.2,0.3,0.3,0.4c0.3,0.3,0.8,0.4,1.2,0.1
			c0.1-0.1,0.1-0.1,0.2-0.2c0.1-0.1,0.2-0.2,0.3-0.3c0,0.1,0.1,0.3,0.1,0.4C47.7,42.2,47.7,42.4,47.7,42.5L47.7,42.5 M43.8,45.8
			c0.1,0.2,0.2,0.4,0.4,0.7c0,0.1,0.1,0.2,0.1,0.3h-0.1l0.4,1.1c0.1,0.1,0.1,0.2,0.1,0.4c0,0.1,0,0.2,0,0.3
			c-0.1-0.1-0.3-0.1-0.3-0.2c-0.6-0.9-1.1-1.9-1.5-3c-0.2-0.6-0.5-1.2-0.8-1.9c-0.2-0.4-0.3-0.9-0.4-1.3c0-0.1,0-0.2,0-0.2l0.2,0.1
			l0.5,0.3c0,0,0.1,0,0.1,0l0.4,1.3c0,0.1,0.1,0.3,0.1,0.4C43.3,44.5,43.5,45.2,43.8,45.8 M42.8,46.8c0.2,0.5,0.4,0.9,0.6,1.4
			c0,0,0,0.1,0,0.1c0,0.2-0.1,0.4,0,0.4c0.2,0.2,0.4,0.3,0.7,0.4c0.4,0.1,0.9,0.2,1.4,0.2c0.3,0,0.6,0,1,0l0,0l1,0.1
			c0,0,0.1,0,0.1,0c0.7-0.4,1.5-0.1,2.2-0.3l1.2-0.4c0.1,0,0.2,0,0.2-0.1c0.2,0,0.3-0.1,0.3-0.3c0.2-0.6,0.5-1.2,0.7-1.8
			c0,0,0.1-0.1,0.1-0.1c0.4,0.3,0.8,0.1,1.2,0c0.6-0.1,1.2,0.1,1.6,0.5c0.2,0.1,0.4,0.2,0.5,0.4c0.6,0.7,0.5,1.7-0.2,2.3
			c-0.1,0.1-0.2,0.1-0.3,0.2c-1,0.8-2.1,1.3-3.4,1.6c-0.7,0.2-1.4,0.4-2.2,0.6c-0.2,0.1-0.5,0.1-0.7,0.1c-0.9,0-1.8,0-2.7,0.1
			c-0.5,0-0.9,0.1-1.4,0.2c-0.1,0-0.1,0-0.2,0c-1.1-0.2-2.3-0.2-3.4-0.5c-0.9-0.2-1.7-0.6-2.4-1.2c-0.3-0.2-0.5-0.5-0.6-0.9
			c0-0.3,0-0.5,0.2-0.8c0.6-0.8,1.4-1.4,2.3-1.8c0.4-0.2,0.8-0.4,1.1-0.5c0.2-0.1,0.4-0.2,0.7-0.2C42.6,46.6,42.7,46.8,42.8,46.8
			 M48.3,43.5c0-0.3,0-0.6,0.1-0.9c0-0.1,0.1-0.1,0.2-0.2c0.3,0,0.6-0.2,0.7-0.5c0.1-0.2,0.2-0.2,0.4,0c0.4,0.4,0.3,0.9,0.1,1.4
			c-0.3,1-0.7,2-1,3c-0.2,0.7-0.4,1.4-0.6,2.1c0,0.1-0.1,0.1-0.2,0.2s-0.1-0.1-0.1-0.2c0-0.2,0-0.3,0-0.5c0-0.6,0.1-1.2,0.2-1.8
			s0.2-1.5,0.2-2.2C48.3,43.8,48.3,43.7,48.3,43.5L48.3,43.5 M50.3,43.4c0-0.1,0.1-0.1,0.1-0.2c0.1-0.1,0.2-0.3,0.2-0.4
			c0-0.7,0.7-0.8,1-1.2c0.1,0,0.1,0,0.2,0c0.1,0.1,0.1,0.1,0.1,0.2c-0.3,0.9-0.6,1.8-0.9,2.7c-0.1,0.3-0.2,0.7-0.3,1.1
			c-0.2,0.5-0.3,1-0.5,1.5c-0.2,0.4-0.3,0.8-0.5,1.1c-0.1,0.2-0.2,0.3-0.3,0.4h-0.1c0-0.1-0.1-0.2-0.1-0.3c0.2-0.7,0.4-1.3,0.5-2
			C49.8,45.4,50.1,44.4,50.3,43.4 M47.3,34.4c0.1-0.6,0.1-1.3,0.2-1.9c0-0.1,0-0.2,0-0.2c0.4-0.2,0.4-0.8,0.8-1.1
			c0.1-0.1,0.3-0.2,0.5-0.3c0.3,0,0.5,0.2,0.6,0.5c0.1,0.3,0.1,0.6,0.2,0.8h0c0,0.5,0,1.1,0,1.6c-0.1,0.8-0.3,1.6-0.4,2.3
			c0,0.1-0.1,0.1-0.1,0.2c-0.1,0.1-0.1,0.1-0.2,0.2c0-0.1-0.1-0.1-0.1-0.2c0.1-0.6-0.2-1.2-0.7-1.6c-0.2-0.1-0.3-0.2-0.5-0.2
			c-0.2,0-0.2-0.1-0.2-0.3 M47.9,37.3c0.6-0.1,1.1,0,1.7,0.3c0.3,0.1,0.6,0.2,0.9,0.3c0.7,0.3,1.2,0.8,1.4,1.5
			c0,0.1,0.1,0.2,0.1,0.2c0.2,0.3,0.1,0.4-0.2,0.5c-0.2,0.1-0.3,0.2-0.4,0.3c-0.2,0.2-0.4,0.5-0.7,0.8s-0.3,0.2-0.5-0.1
			c0-0.1-0.1-0.2-0.1-0.2c-0.3-0.5-0.7-0.6-1-0.1s-0.5,0.5-0.8-0.1c-0.1-0.1-0.2-0.2-0.3-0.3c-0.4-0.2-0.5-0.1-0.8,0.3
			c-0.1,0.2-0.3,0.5-0.5,0.6c-0.2,0.2-0.3-0.1-0.5-0.3c-0.1-0.2-0.3-0.4-0.4-0.6c-0.1-0.2-0.5-0.3-0.7-0.2c-0.1,0-0.1,0.1-0.2,0.2
			c-0.1,0.2-0.3,0.4-0.4,0.5s-0.3,0.2-0.4,0c-0.2-0.2-0.3-0.4-0.4-0.6c-0.1-0.2-0.4-0.3-0.6-0.2c-0.1,0-0.2,0.1-0.2,0.2
			c0,0.1-0.1,0.2-0.1,0.2c0,0.1-0.1,0.1-0.2,0.2c0-0.1,0-0.1,0-0.2c-0.1-0.8,0.3-1.6,1-2c0.7-0.5,1.5-0.8,2.3-0.9
			c0.3-0.1,0.7-0.2,1-0.3v0.1l1.1-0.1 M36.9,29c0-0.8,0.5-1.4,1.2-1.7c1.3-0.6,2.8-0.9,4.2-0.9c1.1,0,2.1,0.1,3.1,0.4
			c0.3,0.2,0.6,0.4,0.8,0.8c0.1,0.2-0.1,0.2-0.2,0.1c-0.4-0.1-0.8-0.1-1.2-0.2c-1.2-0.3-2.5-0.3-3.7,0c-0.9,0.2-1.7,0.5-2.6,0.8
			c-0.5,0.2-0.9,0.5-1.3,0.8C37,29.3,36.9,29.2,36.9,29 M37.5,35.8c-0.1-0.4-0.1-0.8-0.1-1.2c0-0.6-0.1-1.1-0.2-1.7
			c-0.1-0.7-0.1-1.4-0.2-2c0-0.2,0.1-0.3,0.3-0.1c1,0.5,2.1,0.8,3.2,0.8c1,0.1,2.1-0.1,3-0.4c0.8-0.3,1.6-0.4,2.5-0.6
			c0.2,0,0.3-0.1,0.5-0.2c0.3-0.1,0.5,0,0.4,0.4c-0.1,0.6-0.2,1.1-0.3,1.7s-0.1,1.1-0.2,1.7c0,0.2-0.1,0.4-0.3,0.5
			c-0.5,0.3-0.7,1-0.5,1.6c0.1,0.3,0.2,0.5-0.3,0.6c-1.1,0.3-2,0.8-2.9,1.5c-0.1,0-0.1,0.1-0.2,0.2c-0.2,0.6-0.7,1.2-0.6,1.9
			c0,0.3-0.2,0.5-0.5,0.3c-0.1,0-0.3-0.1-0.3-0.1s-0.2,0.3-0.2,0.4c0.1,0.4,0.2,0.7,0.3,1.1c0.1,0.3,0.2,0.6,0.3,0.9
			s0.3,0.9,0.5,1.3s0,0.6-0.4,0.5s-1.1,0-1.6,0c-0.3-0.1-0.6-0.2-0.9-0.3c-0.1,0-0.1-0.1-0.1-0.2c0-0.7-0.1-1.4-0.3-2
			c-0.1-0.7-0.2-1.4-0.4-2.1s-0.2-1.1-0.3-1.6c-0.1-0.9-0.2-1.8-0.3-2.6 M37.9,43.7c0,0.4,0.1,0.9,0.2,1.3c0.1,0.2,0.3,0.4,0.5,0.4
			c0.9,0.2,1.8,0.2,2.8,0.4v0c0.2,0,0.5,0,0.7,0c0.1,0,0.2,0.1,0.2,0.2s-0.1,0.1-0.2,0.2l-2,1c-0.3,0.2-0.6,0.4-0.9,0.5
			c-0.3,0.1-0.7,0.1-1,0c-0.7-0.2-1.3-0.4-2-0.7c-0.8-0.3-1.3-1-1.2-1.9c0.1-0.4,0.2-0.7,0.5-1c0.4-0.4,1-0.8,1.5-0.9
			C37.6,42.9,37.9,43,37.9,43.7 M12.6,39.2c0.4-0.4,0.8-0.7,1.3-1c0.3-0.2,0.6-0.3,0.9-0.4c0.6-0.2,1.1-0.4,1.7-0.5s1.1-0.2,1.5-0.3
			c0.8,0,1.4,0,2.1,0s1.6,0.2,2.4,0.3c0.1,0,0.4,0.2,0.4,0.3c0,0.3,0.2,0.4,0.5,0.6c0.1,0,0.2,0.1,0.2,0.1c0.1,0.1,0.1,0.2,0.1,0.3
			c-0.1,0-0.2,0.1-0.3,0.1c-1.1,0-2.2-0.2-3.3-0.2c-1.1-0.1-2.3,0-3.4,0.3c-0.2,0.1-0.4,0.1-0.6,0.1c-1.1,0.1-2.1,0.3-3.1,0.7
			l-0.6,0.2c0,0-0.2-0.1-0.1-0.1C12.5,39.5,12.5,39.3,12.6,39.2 M12.3,42c0-0.3,0.3-0.4,0.6-0.2c0.3,0.2,0.6,0.3,0.9,0.4
			c0.5,0.2,1,0.3,1.5,0.3c1.1,0.1,2.2,0.1,3.3,0.2c0.9,0,1.7-0.1,2.5-0.4c1-0.2,1.9-0.7,2.6-1.4c0.1-0.1,0.2-0.1,0.3-0.2
			c0,0.1,0,0.2,0,0.3c-0.3,1-0.7,1.9-1.2,2.8c-0.4,0.7-1.1,1.3-1.9,1.7c-0.4,0.2-0.7,0.4-1.1,0.6c-0.5,0.2-1,0.3-1.5,0.4l-1.5-0.4
			c-0.3-0.1-0.5-0.2-0.8-0.2c-0.9-0.3-1.8-0.8-2.4-1.5c-0.5-0.6-0.9-1.2-1.2-1.8C12.3,42.4,12.2,42.2,12.3,42 M10.7,45.2
			c0.5-0.5,1.2-0.7,1.9-0.6c0.1,0,0.2,0.1,0.3,0.2c0.5,0.6,1.1,1,1.7,1.4c0.7,0.4,1.5,0.7,2.2,0.8c0.7,0.1,1.3,0.2,2,0.2
			c0.7-0.1,1.4-0.3,2-0.8c0.3-0.2,0.6-0.3,0.9-0.5c0.5-0.3,0.9-0.7,1.3-1.2c0.1-0.1,0.1-0.2,0.2-0.3c0.1-0.4,0.5-0.6,0.9-0.5
			c0,0,0,0,0,0c1,0.1,1.9,0.4,2.9,0.8c0.4,0.3,0.8,0.6,1.1,0.9c0.1,0.1,0.1,0.3,0.1,0.5c-0.1,0.3-0.3,0.6-0.5,0.8
			c-0.6,0.5-1.3,0.9-2,1.3c-0.5,0.2-1,0.3-1.5,0.4c-1,0.2-2,0.5-3.1,0.7c-0.6,0.1-1.2,0.2-1.9,0.2v0c-0.9,0-1.8,0.1-2.8,0.1
			c-0.4,0-0.9-0.1-1.3-0.2c-0.3,0-0.6-0.1-0.9-0.2c-0.6-0.1-1.2-0.2-1.8-0.3c-0.8-0.2-1.6-0.6-2.1-1.2c-0.2-0.3-0.4-0.6-0.4-1
			C9.7,46,10.3,45.7,10.7,45.2 M67.1,49c-0.2,0.6-0.6,1.2-1.1,1.6c-0.7,0.6-1.3,1.2-2.1,1.7c-0.6,0.4-1.3,0.7-1.9,1
			c-0.5,0.2-0.9,0.3-1.4,0.5s-0.7,0.2-1,0.3s-0.9,0.2-1.3,0.4c-0.7,0.2-1.4,0.5-2.1,0.8c-0.4,0.2-0.8,0.4-1.2,0.5s-0.9,0.3-1.3,0.4
			c-0.3,0.1-0.6,0.2-0.9,0.3c-0.7,0.1-1.3,0.2-2,0.3C49.8,57,48.9,57.1,48,57c-0.9,0-1.8,0-2.6,0s-1.5,0.2-2.2,0.2
			c-1.1,0-2.3,0.1-3.4,0.1l-1.6,0.1c-1.3,0.1-2.6,0.1-4,0.2l-2.3,0.1c-0.5,0-1.1,0-1.6,0c-0.9,0-1.9,0.2-2.8,0.2
			c-1,0.1-1.9,0.1-2.9,0c-1.1-0.2-2.1-0.2-3.2-0.3c-0.7-0.1-1.4-0.1-2.1-0.2s-1.3-0.3-2-0.5c-0.8-0.2-1.7-0.3-2.5-0.6
			c-1.4-0.4-2.8-0.7-4.1-1.1c-0.6-0.2-1.3-0.5-1.9-0.7c-0.3-0.1-0.6-0.2-0.9-0.2c-0.8-0.3-1.5-0.7-2.3-1c-0.5-0.3-1-0.4-1.5-0.6
			c-0.4-0.1-0.8-0.3-1.2-0.6c-0.4-0.2-0.7-0.4-1-0.7c-0.1-0.1-0.2-0.2-0.3-0.2c-0.6-0.3-0.9-1.1-0.7-1.7c0.2-0.5,0.6-1,0.9-1.4
			c0.5-0.5,1-0.9,1.5-1.2c0.6-0.3,1.1-0.6,1.8-0.9c0.5-0.2,1-0.4,1.6-0.6c0,0,0.1,0,0.1,0L8.6,45l1.3-0.2c0.1,0,0.1,0,0.2,0
			c0,0.1-0.1,0.1-0.1,0.2c-0.1,0.1-0.2,0.2-0.3,0.3c-0.2,0.3-0.5,0.5-0.5,0.8c0,0.6,0.1,1.1,0.4,1.6c0.4,0.7,1,1.2,1.7,1.5
			c0.6,0.2,1.3,0.4,2,0.5c0.9,0.2,1.8,0.3,2.7,0.5c0.5,0,1,0,1.5-0.1c0.4,0,0.9,0,1.3,0c0.5,0,1.1,0,1.6-0.1c1-0.2,2-0.4,3-0.6
			c0.8-0.2,1.6-0.4,2.4-0.6c0.9-0.3,1.6-0.7,2.3-1.4c0.3-0.3,0.5-0.6,0.7-0.9c0.2-0.5,0.1-1-0.2-1.5c-0.6-0.8-1.5-1.3-2.5-1.5
			l-1.6-0.4c-0.1,0-0.2-0.1-0.2-0.1c-0.1-0.1-0.1-0.1-0.1-0.2c0,0,0.1-0.1,0.2-0.1l1.9-0.2c0.6,0,1.3-0.1,1.9-0.1c1,0,2.1,0,3.2,0
			c0.8,0,1.6-0.1,2.4-0.1c0.5,0,0.9,0,1.4,0.1h1.2c0.1,0,0.2,0,0.3,0c0,0,0.1,0,0.1,0h-0.1c-0.3,0.1-0.6,0.3-0.9,0.4
			c-0.1,0.1-0.2,0.2-0.3,0.3c-0.2,0.2-0.4,0.4-0.6,0.7c-0.4,0.5-0.5,1.2-0.3,1.9c0.2,0.7,0.7,1.3,1.3,1.7c0.3,0.1,0.5,0.3,0.8,0.4
			c0.5,0.2,1,0.4,1.4,0.5c0.2,0.1,0.2,0.1,0.1,0.2c-0.1,0.1-0.2,0.3-0.3,0.4c-0.5,0.5-0.5,1.3-0.1,1.8c0.3,0.5,0.7,1,1.2,1.2
			c0.3,0.1,0.5,0.3,0.7,0.4c0.5,0.2,0.9,0.4,1.4,0.5c0.7,0.2,1.5,0.3,1.9,0.4c1.1,0,1.9,0,2.6,0c1,0,2.1-0.1,3.1-0.2
			c0.8-0.1,1.5-0.2,2.3-0.4c0.2,0,0.4-0.2,0.7-0.3c1.1-0.3,2.1-0.7,3-1.3c0.7-0.4,1.3-0.9,1.7-1.7c0.4-0.9,0.1-1.9-0.7-2.5
			c-0.2-0.1-0.3-0.3-0.5-0.5c-0.6-0.4-1.4-0.6-2.2-0.6c-0.1,0-0.3,0.1-0.4,0.1c-0.3,0-0.4-0.1-0.3-0.4c0.3-0.5,0.5-1.1,0.8-1.6
			c0.1-0.2,0.3-0.3,0.5-0.3c0,0,0,0,0,0c0.5,0.1,0.9,0.1,1.4,0.1c0.7,0,1.4-0.1,2.1,0c0.5,0,0.9,0.1,1.3,0.3c0.5,0.1,1,0.2,1.5,0.3
			c0.5,0.1,0.9,0.2,1.4,0.3l0.8,0.3c0.4,0.1,0.9,0.2,1.3,0.4c0.6,0.2,1.3,0.5,1.9,0.8c0.3,0.1,0.4,0.4,0.7,0.7
			c0.5,0.4,0.8,1,0.9,1.7C67.1,48.6,67.1,48.8,67.1,49"/>
		<path class="st1" d="M18.3,33.9c0,0.3,0,0.4,0.3,0.5c0.2,0.1,0.3,0,0.4-0.2c0,0,0-0.1,0-0.1c0.1-0.6,0.3-1.1,0.7-1.5
			c0.4-0.8,0.7-1.6,0.9-2.4c-0.1-0.5-0.3-1-0.5-1.5c-0.3-0.4-0.4-0.9-0.5-1.4c0-0.2-0.1-0.3-0.4-0.3s-0.4,0.1-0.4,0.3
			c0,0.5,0.1,0.9,0.3,1.3c0.2,0.4,0.4,0.9,0.5,1.3c0,0.8-0.2,1.6-0.6,2.2C18.7,32.7,18.5,33.3,18.3,33.9"/>
		<path class="st1" d="M16.5,29.3c0.5,0.4,0.7,1.1,0.5,1.7c-0.2,0.5-0.4,1-0.6,1.5c-0.1,0.1-0.1,0.3-0.1,0.4c0,0,0.2,0.1,0.2,0.1
			c0.1-0.1,0.3-0.2,0.4-0.4c0.3-0.6,0.6-1.2,0.8-1.8c0.2-0.4,0.2-0.9,0-1.2c-0.2-0.4-0.5-0.8-0.9-1.1c-0.5-0.3-0.8-0.9-0.8-1.4
			c0-0.3,0-0.7,0-1s-0.1-0.5-0.4-0.4c-0.1,0.1-0.3,0.2-0.3,0.3c-0.3,1,0,2.1,0.7,2.8C16.1,29,16.3,29.1,16.5,29.3"/>
		<path class="st2" d="M111.7,21.3c0,0.3,0,0.6,0,0.9c0,0.6-0.1,1.3-0.3,1.9c-0.2,1.7-0.3,3.4-0.4,5.2c0,1.5-0.3,3-0.9,4.4
			c-0.5,1.2-1.3,2.3-2.3,3.2c-0.9,0.7-1.9,1.2-3,1.3c-0.5,0.1-0.9,0.3-1.4,0.3c-0.7,0.1-1.4,0.1-2.1,0.1c-0.9-0.1-1.8-0.3-2.7-0.5
			c-0.2,0-0.4-0.1-0.6-0.2c-0.6-0.2-1.2-0.5-1.8-0.9c-0.6-0.5-1.2-1.1-1.8-1.7c-0.3-0.3-0.5-0.6-0.7-1c-0.4-1-0.8-2-1.2-3
			c-0.2-0.6-0.3-1.2-0.3-1.8c-0.2-1.3-0.3-2.6-0.4-3.9c-0.1-1.1-0.1-2.2-0.1-3.3c0-0.9-0.1-1.9-0.1-2.8c0-1.8,0-3.5,0.1-5.2
			c0.1-0.9,0.2-1.8,0.4-2.6c0.1-0.5,0.2-0.9,0.2-1.4c0.1-0.7,0.1-1.4,0.3-2c0.1-0.5,0.3-1.1,0.5-1.6c0.3-0.8,0.7-1.5,1.1-2.2
			c0.6-1.1,1.4-2,2.4-2.6c0.3-0.3,0.7-0.5,1.1-0.7c0.5-0.2,1.1-0.4,1.7-0.4c0.9-0.1,1.7,0,2.6,0.1c1,0.1,2,0.4,3,0.7
			c0.2,0.1,0.4,0.2,0.6,0.3c0.7,0.4,1.3,0.8,1.9,1.4c0.6,0.7,1.3,1.4,2,2c0.1,0.1,0.1,0.2,0.2,0.3c0.3,0.9,0.6,1.8,0.9,2.7
			c0.2,1.2,0.4,2.4,0.4,3.6c0.2,1.3,0.3,2.7,0.4,4.1C111.5,17.6,111.6,19.5,111.7,21.3L111.7,21.3 M100.3,19.9c0,1.1,0,2.3,0,3.6
			c0,0.5,0,1.1,0.1,1.6c0.1,1.1,0.3,2.2,0.4,3.3c0,0.6,0.4,1.1,0.9,1.4c0.1,0.1,0.3,0.1,0.4,0c0.5-0.6,0.9-1.2,1.1-2
			c0.2-1.1,0.3-2.1,0.3-3.2c0-1.4,0-2.8-0.1-4.2s-0.1-2.6-0.2-4c-0.1-1.6-0.2-3.1-0.4-4.7c-0.1-0.6-0.2-1.3-0.4-1.9
			c-0.1-0.3-0.3-0.4-0.6-0.3c0,0,0,0-0.1,0c-0.6,0.2-1,0.8-1,1.4c-0.1,0.7-0.2,1.3-0.2,2c0,0.6,0,1.3,0,1.9
			C100.3,16.5,100.2,18.2,100.3,19.9"/>
		<path class="st2" d="M172.1,23.1c0-1.9,0-3.7,0-5.6c0-1.5,0.1-3,0.1-4.5c0-1.8,0-3.6,0-5.4c0-0.7-0.1-1.4-0.1-2.2c0-1,0.1-2,0.2-3
			c0.1-0.4,0.4-0.7,0.8-0.9c1-0.2,1.9-0.3,2.9-0.6c0.9-0.3,1.9-0.4,2.9-0.3c0.4,0.1,0.8,0.4,0.9,0.8c0.1,1.2,0.3,2.5,0.3,3.7
			S180,8,180,9.4c0,2.2,0,4.3,0,6.5c0,1.9,0.1,3.8,0,5.6c0,1.7,0,3.4-0.1,5.1c-0.1,1.4-0.3,2.8-0.5,4.1c-0.1,0.9-0.4,1.9-0.8,2.7
			c-0.2,0.4-0.4,0.7-0.6,1.1c-0.7,1-1.6,1.9-2.7,2.5c-0.6,0.5-1.3,0.8-2.1,1c-0.2,0-0.4,0.1-0.6,0.1c-1.6,0.1-3.1,0.1-4.7-0.2
			c-0.6-0.1-1.3-0.3-1.9-0.6c-0.6-0.2-1.1-0.4-1.6-0.7c-0.9-0.4-1.6-1.1-2.2-1.9c-0.3-0.5-0.6-1-0.8-1.5c-0.1-0.2-0.1-0.4-0.2-0.6
			c-0.1-0.8-0.2-1.5-0.2-2.3c-0.1-1.7-0.2-3.5-0.2-5.2s-0.1-3.5-0.2-5.3c0-1-0.1-2-0.1-3c0-2.1,0.1-4.3,0.1-6.4c0-1.3,0-2.5,0-3.8
			c0-1-0.1-2-0.3-3.1c-0.1-0.4-0.1-0.8,0-1.2c0.1-0.3,0.4-0.6,0.7-0.7c1.3-0.5,2.7-0.6,4.1-0.5c0.7,0,1.4,0,2.1,0
			c0.6-0.1,1.2,0.4,1.3,1c0,0.1,0,0.2,0,0.2c0.1,1.2,0.1,2.4,0.2,3.5c0,1.8,0,3.6,0,5.4c0,2.3-0.2,4.7-0.2,7c0,1.5,0.1,3,0.2,4.5
			c0,0.6,0.1,1.3,0.1,2c0,1.5,0.2,3.1,0.6,4.6c0.2,0.5,0.5,0.8,1,1c0.2,0.1,0.8-0.2,1-0.5c0.2-0.4,0.4-0.9,0.5-1.4
			c0.1-1.8,0.2-3.7,0.3-5.5L172.1,23.1"/>
		<path class="st2" d="M145.9,10.2c0,1.1,0,2.2,0,3.3c0,0.6,0.1,1.3,0.1,1.9c0,0.2,0,0.2,0.2,0.2c1.2-0.2,2.5-0.2,3.7,0
			c0.4,0.1,0.8,0,1.2-0.1c0.5-0.1,1.6-0.1,1.8,0.3c0.2,0.2,0.3,0.5,0.3,0.8c0.1,1.8,0.1,3.7,0.1,5.5c0,0.6-0.4,1.1-1,1.1
			c-1.9,0.2-3.7,0.4-5.6,0.5c-0.2,0-0.3,0.1-0.3,0.3c0.1,1.2,0.2,2.4,0.2,3.6c0,0.9,0.1,1.7,0.1,2.5c0,0.3,0.1,0.4,0.4,0.4
			c1.1,0,2.1-0.1,3.2-0.1c1.2,0,2.4,0,3.6,0c0.6,0,1,0.4,1,1c0.1,0.8,0.2,1.6,0.3,2.4c0.1,1.3,0.2,2.5,0.3,3.8
			c0,0.4-0.1,0.8-0.5,1.1c-0.1,0-0.1,0.1-0.2,0.1c-1.1,0.2-2.1,0.4-3.2,0.5c-1.1,0-2.1-0.1-3.2-0.2c-0.4,0-0.8,0-1.2,0
			c-1.1,0-2.3-0.1-3.4-0.1c-1,0-1.9,0.1-2.9,0.2c-0.7,0.2-1.5,0.1-2.1-0.3c-0.3-0.2-0.5-0.4-0.6-0.7c-0.2-0.5-0.2-1-0.3-1.6
			c-0.1-1-0.1-1.9-0.1-2.8c0-1.9,0.1-3.8,0.1-5.8c0-1.4,0-2.9-0.1-4.3c0-1,0-2-0.2-3c-0.2-1.1-0.2-2.2-0.2-3.2
			c-0.1-0.9-0.2-1.9-0.3-2.8s0-1.7,0-2.5s-0.2-1.7-0.2-2.5s-0.1-1.6-0.1-2.4c0-1.4-0.1-2.8-0.1-4.2c0.1-0.7,0.5-1.3,1.1-1.6
			c0.7-0.3,1.4-0.5,2.2-0.5c0.6,0,1.3,0,1.9-0.1c0.7-0.2,1.3-0.2,2-0.2c0.7,0,1.4,0.1,2.1,0.2c0.6,0,1.1,0,1.7-0.1
			c1.4-0.2,2.7-0.4,4.1-0.6c0.6-0.1,1.2-0.1,1.8,0c0.3,0,0.7,0.2,1,0.3c0.4,0.2,0.6,0.5,0.6,0.9c-0.1,0.7-0.1,1.3-0.1,2
			s0.1,1.3,0.1,1.9c0,0.7,0,1.4,0,2.2c0,0.4-0.4,0.8-0.8,0.8c-0.8,0.1-1.6,0.1-2.4,0.2c-1.2,0-2.4,0.2-3.6,0.4
			c-0.7,0.1-1.3,0.2-2,0.1c-0.5,0-0.6,0-0.6,0.5c0,0.3,0,0.6,0,0.8l0,0"/>
		<path class="st2" d="M200.3,39.4c-0.7,0.1-1.5,0.2-2.2,0.2c-0.6,0-1.1-0.4-1.3-1c-0.2-0.6-0.4-1.2-0.6-1.8
			c-0.1-0.4-0.2-0.8-0.2-1.2c-0.1-0.1-0.1-0.3-0.2-0.4l-0.5-1.5c-0.1-0.2-0.2-0.3-0.2-0.5c-0.3-1-0.6-2-0.9-3c0,0,0-0.1,0-0.1
			c0,0-0.1,0.1-0.1,0.1c-0.2,0.8-0.5,1.6-0.7,2.4c-0.2,0.8-0.6,1.8-0.9,2.7c-0.2,0.6-0.3,1.3-0.4,1.9c0,0.2-0.2,0.5-0.3,0.7
			c-0.5,0.6-1.2,0.8-1.9,0.7c-0.3,0-0.7,0-1,0c-1.1,0.1-2.2-0.1-3.3-0.4c-0.6-0.1-1-0.7-1-1.3c0-1,0.2-1.9,0.6-2.8
			c0.3-1.1,0.7-2.2,1.1-3.3c0.3-0.8,0.6-1.6,0.9-2.5c0.4-1.1,0.8-2.2,1.1-3.3c0.3-1,0.6-2.1,0.9-3.2c0.2-1.1,0.4-2.2,0.8-3.3
			c0-0.1,0-0.2,0-0.3c-0.3-0.8-0.6-1.6-0.9-2.4c-0.3-0.7-0.5-1.3-0.7-2c-0.2-0.8-0.5-1.6-0.9-2.3c-0.7-1.5-1.2-3-1.6-4.6
			c-0.3-1.2-0.8-2.4-1.3-3.6c-0.2-0.6-0.3-1.2-0.1-1.8c0.1-0.5,0.7-0.7,1.1-0.7c1.1-0.1,2.3-0.1,3.4,0.1c0.8,0.2,1.5,0.2,2.2,0.3
			c0.3,0,0.5,0.2,0.7,0.5c0.4,0.8,0.7,1.6,1,2.4c0.2,0.6,0.4,1.2,0.6,1.8l1,3c0.1,0.3,0.2,0.5,0.3,0.8c0.2,0.4,0.1,0,0.1,0
			c0.1-0.1,0.1-0.2,0.2-0.4c0.4-1.1,0.9-2.3,1.1-3.4c0.2-0.9,0.6-1.8,1-2.7c0,0,0,0,0-0.1c-0.1-0.6,0.4-0.9,0.6-1.3
			c0.3-0.4,0.8-0.7,1.3-0.6c0.6,0,1.1,0.1,1.6,0.1c1.2,0,2.4,0,3.6-0.1c0.5,0,0.9,0.3,0.9,0.8c0,0,0,0.1,0,0.1
			c0,1.3-0.2,2.6-0.7,3.8c-0.4,1.1-0.9,2.2-1.3,3.3c-0.6,1.5-1.2,3-1.9,4.4c-0.4,0.9-1,1.8-1.4,2.7c-0.4,0.9-0.8,1.8-1.1,2.6
			c0,0.2,0,0.3,0.1,0.5c0.6,1.4,1.1,2.9,1.3,4.5c0.1,0.5,0.3,1.1,0.5,1.6c0.2,0.8,0.5,1.6,0.7,2.4c0.3,1.1,0.6,2.1,0.9,3.2
			c0.3,0.9,0.6,1.7,1,2.6c0.2,0.4,0.5,0.8,0.7,1.2c0.3,0.6,0.6,1.2,0.8,1.8c0.1,0.4,0.1,0.8,0,1.2c0,0.5-0.4,0.7-0.7,0.9
			c-0.3,0.2-0.6,0.3-0.9,0.3c-0.4,0-0.8,0.1-1.2,0.1L200.3,39.4L200.3,39.4"/>
		<path class="st2" d="M119.7,36.3v-2.3c0-0.4,0-0.8,0-1.1c-0.1-1.5-0.2-3-0.3-4.5c0-1.2,0-2.4,0-3.5s0.1-2.1,0-3.1
			c-0.1-0.5-0.3-1-0.5-1.4l-1-2.9c-0.3-0.8-0.6-1.6-0.8-2.5c-0.4-1.1-0.7-2.2-1.1-3.2c-0.2-0.7-0.6-1.4-0.9-2s-0.5-1.3-0.8-1.9
			s-0.7-1.5-0.9-2.2s-0.5-1.5-0.7-2.3c-0.1-0.3-0.1-0.7-0.1-1c0-0.9,0.4-1.3,1.3-1.3c0.9-0.1,1.7-0.2,2.6-0.3
			c1.1-0.3,2.2-0.2,3.3,0.1c0.4,0.2,0.6,0.4,0.8,0.8c0.5,1,0.8,2,1.2,2.9c0.2,0.5,0.5,1,0.8,1.5c0.2,0.3,0.3,0.7,0.4,1
			s0.4,0.9,0.6,1.4c0.1,0.2,0.1,0.1,0.2,0c0.7-0.9,1.1-1.9,1.2-3c0.2-0.9,0.4-1.8,0.6-2.8c0.2-0.4,0.5-0.6,0.9-0.7
			c0.7,0,1.4,0,2.1,0c0.6,0,1.1,0,1.7-0.1c0.5-0.1,1.1-0.3,1.6-0.5c0.6-0.2,1.2-0.1,1.8,0.2c0.1,0.1,0.2,0.3,0.2,0.4
			C134,3,133.8,4,133.3,5c-0.4,1-0.8,1.9-1.2,2.9c-0.8,2.1-1.6,4.2-2.4,6.3c-0.4,1.1-0.8,2.1-1.2,3.2c-0.1,0.2-0.1,0.4-0.1,0.6
			c0,2,0,4.1,0,6.1c0,0.9-0.2,1.8-0.3,2.7s-0.2,1.9-0.2,2.8c0,0.6-0.1,1.1-0.1,1.7v6.3c0,0.6-0.4,1-1,1c-0.5,0-1,0.2-1.5,0.3
			c-0.3,0-0.6,0.1-0.9,0.1c-1,0.1-2,0.2-3,0.2c-0.6,0.1-1.1-0.2-1.5-0.6c-0.1-0.1-0.2-0.3-0.2-0.5C119.7,37.6,119.7,37,119.7,36.3
			L119.7,36.3"/>
		<path class="st2" d="M79.3,7.3c0-0.2,0-0.5,0-0.7c0-1.4-0.1-2.9-0.1-4.3c0-0.3,0.1-0.5,0.3-0.7c0,0,0.1-0.1,0.1-0.1
			c0.2-0.7,0.7-0.8,1.3-0.8c1.6-0.1,3.2-0.2,4.8-0.3c0.3,0,0.5,0.1,0.7,0.3c0.5,0.5,0.7,1.1,0.6,1.8c0.1,0.7,0.1,1.3,0.1,2l0,0
			c0,0.7,0,1.5,0,2.2c0,0.2,0.3,5.5,0.3,6c0,0.9,0,1.8,0,2.6l0,0c0,0.8,0,1.6,0,2.5c0,0.4-0.1,0.8-0.1,1.1c0,0.7,0.1,1.5,0,2.2
			s-0.1,1.7-0.1,2.6s0.1,1.5,0.1,2.2c0.1,1.1,0,2.2-0.3,3.2c-0.2,0.6-0.2,1.2-0.3,1.8c-0.2,0.8-0.5,1.6-0.7,2.4
			c-0.4,1.1-1.1,2.1-2,2.8c-0.9,0.8-1.9,1.5-3,2c-1.2,0.6-2.6,1-4,1c-1,0-1.9,0-2.9,0c-0.8,0-1.1-0.4-1.1-1.2c0-0.5,0-1,0-1.5
			c0-0.7-0.1-1.3-0.1-2c0-0.8,0-1.6,0-2.3c0.1-0.3,0.3-0.6,0.6-0.8c0.3-0.2,0.7-0.3,1.1-0.4c0.8-0.1,1.5-0.4,2.2-0.8
			c0.4-0.2,0.7-0.4,1-0.7c0.5-0.4,0.9-1,1-1.7c0.1-0.4,0.3-0.7,0.3-1c0.1-0.7,0.2-1.5,0.3-2.2c0.1-0.9,0.1-1.8,0.1-2.7
			c0-1.8-0.1-3.6-0.1-5.5c0-0.7,0-1.4,0-2.1c0-1.1-0.1-2.1-0.1-3.2S79.2,7.5,79.3,7.3"/>
		<path class="st1" d="M181.7,45.3c1,0,2,0.5,2.5,1.3c0.2,0.2,0.4,0.3,0.6,0.3c1-0.1,2,0,3,0.2c0.3,0.1,0.5,0.3,0.7,0.5
			c0,0.2-0.1,0.4-0.2,0.5c-0.7,0.2-1.4,0.2-2.1,0.1l-0.2-0.1c-0.8-0.2-1,0-0.9,0.8c0,0.2,0.1,0.4,0.1,0.7c0,0.9,0.3,1.2,1.2,1.2
			c0.4,0,0.7-0.1,1.1,0c0.3,0,0.5,0.1,0.7,0.2c0.2,0.2,0.3,0.4,0.2,0.7c-0.1,0.2-0.4,0.3-0.6,0.3c-0.8,0-1.6-0.1-2.3-0.2
			c-0.3,0-0.5,0-0.5,0.3c-0.2,0.9-0.6,1.8-1.1,2.6c-0.2,0.2,0,0.3,0.2,0.3c0.8,0.1,1.7,0.1,2.5-0.1c0.4-0.1,0.8-0.1,1.1,0
			c0.1,0,0.4,0.3,0.3,0.4c0,0.2-0.1,0.4-0.3,0.6c-0.2,0.1-0.4,0.2-0.6,0.2c-1.3,0.2-2.6,0.2-3.9-0.1c-0.2,0-0.4,0-0.6,0
			c-0.6,0.1-1.1,0.2-1.7,0.2c-1.1-0.2-2-1.1-2.3-2.2c-0.7-1.9-0.9-4-0.4-6c0.2-0.9,0.7-1.7,1.4-2.3
			C180.2,45.5,180.9,45.3,181.7,45.3 M179.3,52.3c0.1,0.9,0.4,1.7,1,2.4c0.7,0.6,1.1,0.8,1.8,0.3c0.2-0.2,0.3-0.4,0.5-0.6
			c0.9-0.8,1.4-2,1.3-3.2c0.1-0.8,0-1.7-0.1-2.5c-0.1-0.7-0.6-1.4-1.2-1.8c-1-0.5-2.1-0.2-2.8,0.7c-0.5,0.9-0.7,2-0.6,3
			C179.2,51.1,179.2,51.6,179.3,52.3"/>
		<path class="st1" d="M88.9,53.3c0-0.8,0-1.9,0-3.1c0-0.6-0.1-1.2-0.1-1.9c0-0.1,0-0.3-0.1-0.4c-0.3-0.4,0-0.6,0.2-0.7
			c0.3-0.1,0.6-0.2,0.9-0.2c0.1,0,0.3,0,0.4,0c0.8-0.2,1.6,0.1,2.2,0.6c0.8,0.6,1.2,1.6,1.1,2.6c-0.1,0.6-0.4,1-0.9,1.2
			c-0.6,0.2-0.7,0.4-0.2,1c0.2,0.3,0.4,0.6,0.7,0.8c0.6,0.7,1.1,1.3,1.7,2c0.1,0.1,0.2,0.2,0.3,0.2c0.3,0.1,0.5,0.4,0.5,0.7
			c0,0,0,0.1,0,0.1c-0.2,0.4-0.7,0.5-1.1,0.4c-0.6-0.5-1.2-1-1.7-1.6c-0.7-0.8-1.2-1.7-1.8-2.5c-0.1-0.2-0.3-0.2-0.5-0.3
			c-0.1,0.3-0.2,0.6-0.2,0.9c0.2,0.9,0.4,1.8,0.5,2.8c0.1,0.4-0.2,0.8-0.6,0.9c0,0,0,0,0,0c-0.4,0-0.7-0.3-0.8-0.7
			C89.2,55.4,89.1,54.6,88.9,53.3 M90.2,50c0,1,0,1,0.8,0.9c0.2-0.1,0.5-0.1,0.7-0.2c0.4-0.2,0.6-0.6,0.6-1c-0.3-0.8-1-1.4-1.9-1.4
			c-0.3,0-0.5,0.1-0.4,0.5S90.2,49.7,90.2,50"/>
		<path class="st1" d="M204.1,49c0.1,1.2-0.7,2.3-1.8,2.6c-0.1,0.1-0.2,0.2-0.2,0.4c0.2,0.3,0.4,0.6,0.6,0.9c0.6,0.7,1.3,1.4,2,2.2
			c0.1,0.1,0.1,0.1,0.2,0.2c0.3,0.2,0.6,0.4,0.4,0.7s-0.4,0.6-0.6,0.6c-0.4,0-0.7-0.1-1-0.3c-0.2-0.2-0.3-0.6-0.5-0.8
			s-0.4-0.4-0.5-0.6c-0.6-0.7-1.2-1.5-1.8-2.2c0-0.1-0.1-0.1-0.2-0.2c0,0.1-0.1,0.1-0.1,0.2c0.1,0.6,0.1,1.2,0.2,1.8
			c0.1,0.4,0.1,0.9,0.1,1.3c0,0.3-0.3,0.5-0.6,0.5c0,0-0.1,0-0.1,0c-0.3,0-0.6,0-0.6-0.5c0-0.8-0.1-1.6-0.1-2.4c0-1-0.1-2-0.1-3
			c0-1.3,0-2.6-0.1-3.9c0-0.4,0.5-0.8,0.8-0.6c0.5,0.4,1.1,0.2,1.6,0.4c0.7,0.2,1.4,0.7,1.7,1.3C203.7,48.2,203.9,48.8,204.1,49
			 M200.7,49.7c0,0.2,0,0.3-0.1,0.5c0,0.6,0,0.7,0.6,0.5c0.9-0.2,1.4-0.7,1.4-1.5c-0.1-1-0.7-1.8-1.7-2c-0.1,0-0.2,0.1-0.2,0.2
			C200.8,48.3,200.8,49,200.7,49.7"/>
		<path class="st1" d="M115.2,56.4c0.2-0.7,0.4-1.2,0.6-1.8c0.8-2.1,1.5-4.2,2.3-6.3c0.2-0.4,0.4-0.8,0.7-1.1
			c0.2-0.3,0.6-0.4,0.9-0.2c0.1,0.1,0.2,0.2,0.3,0.4c0.3,0.6,0.5,1.2,0.8,1.8c0.2,0.9,0.5,1.7,0.9,2.5c0.3,0.6,0.4,1.3,0.4,1.9
			c0.2,0.8,0.4,1.5,0.7,2.2c0.1,0.2,0.1,0.4,0.1,0.6c0,0.1-0.1,0.2-0.2,0.2c-0.5,0.1-1-0.1-1.2-0.6c-0.2-0.7-0.5-1.5-0.7-2.2
			c-0.1-0.2-0.2-0.3-0.4-0.3c-0.9,0-1.8,0.4-2.7,0c-0.1,0-0.2,0-0.2,0.1c-0.2,0.4-0.3,0.8-0.5,1.2c-0.2,0.6-0.4,1.1-0.7,1.6
			c-0.1,0.1-0.4,0.2-0.7,0.2S115.3,56.5,115.2,56.4 M120.3,52c-0.3-0.8-0.6-1.6-0.9-2.4c-0.1-0.1-0.2-0.2-0.3-0.3
			c-0.1,0.1-0.2,0.2-0.2,0.4c-0.3,0.8-0.7,1.6-1,2.4c-0.2,0.4-0.1,0.6,0.4,0.5s1.1-0.1,1.6-0.2C120.3,52.5,120.4,52.3,120.3,52"/>
		<path class="st1" d="M131,47.8c-0.2,0.3-0.3,0.7-0.4,1.1c-0.4,1.2-0.7,2.3-1.1,3.5c-0.2,0.8-0.4,1.6-0.6,2.3
			c-0.1,0.2-0.2,0.3-0.3,0.5c-0.1,0.1-0.1,0.3-0.1,0.4c0.1,0.4-0.1,1.2-0.4,1.1c-0.4,0-0.8-0.2-1.1-0.5c-0.4-0.7-0.7-1.5-0.9-2.3
			c-0.1-0.2-0.1-0.4-0.2-0.6c-0.5-1-1.1-2.1-1.6-3.1c-0.4-0.8-0.9-1.5-1.3-2.3c-0.1-0.2-0.1-0.6,0-0.6c0.3-0.1,0.5-0.1,0.8-0.1
			c0.1,0,0.1,0.1,0.2,0.2c0.4,0.7,0.9,1.5,1.3,2.2c0.3,0.5,0.6,1.1,0.8,1.6s0.6,1.4,1,2.1c0.1,0.2,0.2,0.4,0.4,0.5
			c0,0,0.3-0.1,0.3-0.1c0.2-0.5,0.3-1,0.5-1.5c0.3-1,0.6-2,0.9-3.1c0.1-0.5,0.3-1.1,0.6-1.6c0.2-0.3,0.5-0.5,0.9-0.5
			C130.9,47,131.1,47.3,131,47.8"/>
		<path class="st1" d="M191.5,48.3c0.2,1.4,0.4,2.9,0.6,4.4c0.1,0.6,0.4,1.3,0.7,1.9c0.6,1.3,1.7,0.9,2.2,0c0.5-1,0.9-2.1,1-3.3
			c0.1-0.9,0.1-1.7,0-2.6c0-0.3,0.1-0.7,0.1-1.1c0-0.6,1-0.8,1.4-0.4c0.1,0.1,0.2,0.3,0.1,0.4c-0.1,1-0.2,2-0.2,3
			c-0.1,1.3-0.4,2.5-1,3.7l-0.7,1.3c-0.7,1-2.1,1.2-3.1,0.5c-0.3-0.2-0.5-0.5-0.7-0.8c-0.5-1-0.8-2.1-0.9-3.3
			c-0.1-1-0.3-1.9-0.4-2.9c-0.1-0.5-0.1-1-0.1-1.5c0-0.2,0.3-0.5,0.4-0.4c0.2,0.1,0.4,0.3,0.6,0.5C191.6,47.9,191.5,48.1,191.5,48.3
			"/>
		<path class="st1" d="M134.4,49.1c0,0.6,0,1.2,0.1,1.7c0,0.1,0.1,0.2,0.3,0.2c0.2,0,0.4,0,0.7-0.1c0.6-0.3,1.4-0.3,2,0
			c0.2,0.1,0.3,0.3,0.4,0.5c-0.1,0.1-0.3,0.2-0.4,0.3c-0.6,0.1-1.3,0.2-2,0.2c-0.1,0-0.3,0-0.4,0c-0.4-0.2-0.5,0.1-0.5,0.4
			c0,0.9,0.1,1.8,0.2,2.7c0,0.4,0.1,0.6,0.7,0.5c0.5,0,1,0,1.5,0.1c0.2,0,0.3,0,0.5,0c0.4-0.2,0.5,0.3,0.8,0.4
			c-0.1,0.2-0.2,0.3-0.4,0.5c-0.8,0.5-1.8,0.6-2.6,0.2c-0.2-0.1-0.4-0.1-0.6-0.1c-0.3,0.1-0.7-0.1-0.8-0.4c0,0,0-0.1,0-0.1
			c-0.2-0.7-0.3-1.3-0.3-2c-0.1-0.9,0-1.8-0.1-2.7c0-0.5,0-1,0-1.4s-0.1-1.2-0.1-1.8s0.4-0.8,0.9-1.1c0.2-0.1,0.4-0.2,0.6-0.2
			c1.1-0.2,2.3-0.1,3.4,0.2c0.2,0.1,0.3,0.2,0.4,0.3c0.1,0.1,0.1,0.3,0.1,0.4c-0.1,0.1-0.2,0.2-0.4,0.3c-0.8,0-1.6,0.1-2.5,0.1
			c-0.1,0-0.2,0-0.4-0.1c-0.6-0.1-0.9,0.2-0.9,0.7V49.1L134.4,49.1"/>
		<path class="st1" d="M84.3,49.1c-0.7,0-1.4,0-2.1,0s-0.7,0.3-0.6,0.9c0.1,0.4,0.2,0.8,0.3,1.2s0.4,0.6,0.9,0.5
			c0.4-0.1,0.8-0.2,1.3-0.2c0.2,0,0.5,0.2,0.5,0.3c0,0.2-0.1,0.5-0.3,0.6c-0.5,0.2-1,0.4-1.5,0.5c-0.7,0.1-0.9,0.3-0.8,1
			c0.1,0.3,0.1,0.7,0.2,1c0.1,0.6,0.8,1.1,1.4,0.9c0.1,0,0.1,0,0.2-0.1c0.5-0.1,0.9-0.2,1.4-0.2c0.2,0,0.5,0.1,0.5,0.2
			c0,0.2,0,0.5-0.2,0.7c-1.3,1.1-3.2,1-4.4-0.2c-0.3-0.5-0.4-1.1-0.4-1.6c0-1.5-0.1-3.1-0.4-4.6c-0.1-0.3-0.2-0.6-0.3-0.9
			s0-0.7,0.4-0.8c1.2-0.1,2.3-0.3,3.4-0.4c0.4,0,0.7,0.2,1,0.4c0.1,0.1,0.1,0.4,0.1,0.6s-0.3,0.2-0.5,0.2
			C84.6,49.2,84.5,49.2,84.3,49.1L84.3,49.1z"/>
		<path class="st1" d="M103.2,49c-0.1,0.5-0.2,0.9-0.3,1.4c-0.4,1.2-0.8,2.3-1.2,3.5c-0.2,0.6-0.3,1.3-0.5,1.9
			c-0.2,0.6-0.5,1.1-0.8,1.6c-0.1,0.2-0.3,0.2-0.6,0.1c-1.2-0.7-1.5-2-2-3.1c-0.3-0.8-0.6-1.6-1-2.4c-0.4-1-0.8-2-1.1-3
			c0-0.2,0.1-0.5,0.3-0.6c0.2,0,0.6,0.1,0.7,0.3c0.7,1.6,1.4,3.2,2,4.7c0.2,0.5,0.4,1.1,0.6,1.6c0.1,0.1,0.2,0.2,0.3,0.3
			c0.1-0.1,0.2-0.2,0.3-0.3c0.3-0.9,0.7-1.8,0.9-2.7s0.4-1.7,0.6-2.5c0.1-0.6,0.6-1,1.1-1.2C103,48.4,103.2,48.6,103.2,49"/>
		<path class="st1" d="M161.7,49.6c0,0.4,0,0.9,0,1.3s0.3,0.4,0.6,0.4c0.6,0,1.2,0,1.7,0c0.2,0,0.5,0.2,0.6,0.3
			c0.2,0.3-0.1,0.7-0.4,0.7c-0.7,0-1.4,0-2.1,0c-0.1,0-0.4,0.2-0.4,0.3c-0.1,0.8-0.2,1.6-0.2,2.5c0,0.3,0.1,0.4,0.4,0.3
			c0.8-0.1,1.6-0.1,2.3-0.1c0.4,0,0.6,0.3,0.6,0.6s-0.2,0.4-0.5,0.4c-0.7,0.1-1.3,0.3-2,0.4c-0.5,0-1,0-1.5-0.2
			c-0.2-0.1-0.3-0.5-0.4-0.8c0-0.3,0-0.6,0-0.9c0-0.5,0.1-1,0.1-1.5s0-1,0-1.6c0.1-0.3,0.1-0.7,0.1-1c-0.2-1.2-0.2-2.4-0.1-3.6
			c0-0.2,0.4-0.6,0.6-0.6c0.6,0.1,1.3,0.2,1.9,0.3c0.2,0,0.5,0.1,0.7,0.1c0.4,0,0.7,0.2,0.7,0.6s-0.3,0.7-0.7,0.6
			c-0.4,0-0.8-0.1-1.2-0.2c-0.7-0.2-0.8-0.2-0.9,0.5C161.7,49,161.7,49.3,161.7,49.6L161.7,49.6"/>
		<path class="st1" d="M143.3,57.1c-1,0-1.9-0.4-2.6-1c-0.1-0.1-0.2-0.3-0.3-0.4c-0.5-1.4-0.6-3-0.3-4.5c0.1-0.7,0.2-1.4,0.4-2.1
			c0.1-0.4,0.2-0.7,0.4-1c0.8-1,2.2-1.1,3.1-0.4c0.2,0.2,0.6,0.6,0.2,0.9s-0.6,0.2-0.9,0c-0.8-0.6-1.6-0.3-1.8,0.7
			c-0.2,0.8-0.3,1.7-0.4,2.5c0,0.7,0,1.5,0.1,2.2c0.1,0.5,0.3,1,0.6,1.4c0.1,0.2,0.4,0.2,0.7,0.3c0.3,0,0.7,0,1-0.1
			c0.8-0.1,1-0.7,1.3-1.2c0.2-0.3,0.5-0.7,0.8-0.9c0.2-0.1,0.5-0.1,0.6,0.1c0.1,0.1,0.1,0.2,0.1,0.3c-0.3,1-0.5,2.1-1.6,2.7
			c-0.5,0.2-1,0.4-1.4,0.6C143.3,57.2,143.3,57.2,143.3,57.1"/>
		<path class="st1" d="M76.5,54.7c0-1.1-0.7-2.1-1.8-2.5c-1.1-0.3-1.7-1.4-1.3-2.5c0-0.1,0.1-0.2,0.1-0.3c0.1-0.7,0.5-1.3,1-1.8
			c0.7-0.4,1.7-0.4,2.4,0.1c0.1,0.1,0.1,0.2,0.1,0.3c-0.1,0.1-0.2,0.2-0.3,0.2c-0.1,0-0.2,0-0.4,0c-0.8-0.1-1.6,0.4-1.7,1.2
			c0,0.2,0,0.4,0,0.6c0,0.5,0.3,0.9,0.8,1c1.2,0.4,2,1.4,2.3,2.6c0.5,1.2,0,2.6-1.1,3.2c-0.6,0.4-1.3,0.7-2,0.8
			c-0.6,0.1-1.2-0.1-1.7-0.5c-0.2-0.1-0.3-0.4-0.4-0.7c0.3-0.1,0.5-0.3,0.8-0.2c1.2,0.3,2-0.4,2.9-0.9C76.4,55.5,76.4,55,76.5,54.7"
			/>
		<path class="st1" d="M171.1,51.9c0.1,1.1,0.3,2.2,0.8,3.2c0.3,0.6,1.1,0.9,1.7,0.6c0.7-0.3,1.4-0.7,2.1-1.1
			c0.1-0.1,0.3-0.2,0.4-0.2c0.1-0.1,0.3-0.1,0.5,0c0.1,0.1,0.1,0.3,0,0.4c-0.1,0.4-0.3,0.7-0.6,1c-1.2,1.4-3.2,1.6-4.7,0.5
			c0,0-0.1-0.1-0.1-0.1c-0.5-0.5-0.9-1.2-0.9-1.9c-0.1-0.8-0.3-1.5-0.4-2.2c0-0.6,0.1-1.2,0.2-1.8c0.2-0.8,0.5-1.5,0.9-2.2
			c0.3-0.5,0.7-0.8,1.2-1.1c0.5-0.1,1-0.2,1.5-0.2c0.4-0.1,0.8,0,1.1,0.2c0.3,0.3,0.4,0.5,0.2,0.9s-0.5,0.1-0.8,0
			c-0.4-0.1-0.7-0.1-1.1-0.2c-1,0-1.2,0.9-1.5,1.6C171.3,50.2,171.1,51,171.1,51.9"/>
		<path class="st1" d="M157.7,55.7c0,0.6-0.4,1.1-1,1.1c-0.1,0-0.2,0-0.3,0c-0.7-0.1-1.3-0.1-2-0.1c-0.6,0-0.9-0.1-1-0.7
			c-0.1-0.4-0.1-0.7,0-1.1c0.1-1,0.1-2,0.2-3.1c0-0.6,0.1-1.1,0.1-1.7c0.1-0.6,0.1-1.2-0.1-1.8c-0.3-0.5,0-1.2,0.5-1.4
			c0.1,0,0.1-0.1,0.2-0.1c0.2-0.1,0.5,0,0.6,0.2c0,0.1,0,0.1,0,0.2c0,1,0.1,2.1,0,3.2s-0.2,2.2-0.3,3.2c-0.1,0.5,0,1,0.2,1.4
			c0.1,0.2,0.7,0.3,1.1,0.3s0.9-0.2,1.4-0.2C157.5,55.2,157.9,55.2,157.7,55.7"/>
		<path class="st1" d="M106.9,56.2c-0.1-1.2-0.2-2.4-0.3-3.6c0-1,0-2,0-3c0-0.2,0-0.4,0-0.7c0-0.3,0.2-0.6,0.5-0.7c0,0,0,0,0,0
			c0.4,0,0.7,0.4,0.8,0.8c0,0.8-0.1,1.7-0.2,2.5c0,0.2,0.1,0.4,0.1,0.6c0.1,1,0.2,2,0.3,3.1c0.1,0.4,0.1,0.9,0,1.3
			c-0.1,0.3-0.4,0.5-0.6,0.7c-0.2-0.2-0.4-0.4-0.6-0.6C106.9,56.5,106.9,56.3,106.9,56.2L106.9,56.2"/>
		<path class="st1" d="M107.2,45.2c-0.4,0-0.7-0.3-0.8-0.7c0,0,0-0.1,0-0.1c0.1-0.4,0.5-0.6,0.9-0.6c0.3,0.1,0.6,0.3,0.7,0.6
			C108.2,44.7,107.6,45.2,107.2,45.2"/>
		<path class="st0" d="M12.6,39.2c0.4-0.4,0.8-0.7,1.3-1c0.3-0.2,0.6-0.3,0.9-0.4c0.6-0.2,1.1-0.4,1.7-0.5s1.1-0.2,1.5-0.3
			c0.8,0,1.4,0,2.1,0s1.6,0.2,2.4,0.3c0.1,0,0.4,0.2,0.4,0.3c0,0.3,0.2,0.4,0.5,0.6c0.1,0,0.2,0.1,0.2,0.1c0.1,0.1,0.1,0.2,0.1,0.3
			c-0.1,0-0.2,0.1-0.3,0.1c-1.1,0-2.2-0.2-3.3-0.2c-1.1-0.1-2.3,0-3.4,0.3c-0.2,0.1-0.4,0.1-0.6,0.1c-1.1,0.1-2.1,0.3-3.1,0.7
			l-0.6,0.2c0,0-0.2-0.1-0.1-0.1C12.5,39.5,12.5,39.3,12.6,39.2"/>
		<path class="st0" d="M12.3,42c0-0.3,0.3-0.4,0.6-0.2c0.3,0.2,0.6,0.3,0.9,0.4c0.5,0.2,1,0.3,1.5,0.3c1.1,0.1,2.2,0.1,3.3,0.2
			c0.9,0,1.7-0.1,2.5-0.4c1-0.2,1.9-0.7,2.6-1.4c0.1-0.1,0.2-0.1,0.3-0.2c0,0.1,0,0.2,0,0.3c-0.3,1-0.7,1.9-1.2,2.8
			c-0.4,0.7-1.1,1.3-1.9,1.7c-0.4,0.2-0.7,0.4-1.1,0.6c-0.5,0.2-1,0.3-1.5,0.4l-1.5-0.4c-0.3-0.1-0.5-0.2-0.8-0.2
			c-0.9-0.3-1.8-0.8-2.4-1.5c-0.5-0.6-0.9-1.2-1.2-1.8C12.3,42.4,12.2,42.2,12.3,42"/>
		<path class="st0" d="M10.7,45.2c0.5-0.5,1.2-0.7,1.9-0.6c0.1,0,0.2,0.1,0.3,0.2c0.5,0.6,1.1,1,1.7,1.4c0.7,0.4,1.5,0.7,2.2,0.8
			c0.7,0.1,1.3,0.2,2,0.2c0.7-0.1,1.4-0.3,2-0.8c0.3-0.2,0.6-0.3,0.9-0.5c0.5-0.3,0.9-0.7,1.3-1.2c0.1-0.1,0.1-0.2,0.2-0.3
			c0.1-0.4,0.5-0.6,0.9-0.5c0,0,0,0,0,0c1,0.1,1.9,0.4,2.9,0.8c0.4,0.3,0.8,0.6,1.1,0.9c0.1,0.1,0.1,0.3,0.1,0.5
			c-0.1,0.3-0.3,0.6-0.5,0.8c-0.6,0.5-1.3,0.9-2,1.3c-0.5,0.2-1,0.3-1.5,0.4c-1,0.2-2,0.5-3.1,0.7c-0.6,0.1-1.2,0.2-1.9,0.2v0
			c-0.9,0-1.8,0.1-2.8,0.1c-0.4,0-0.9-0.1-1.3-0.2c-0.3,0-0.6-0.1-0.9-0.2c-0.6-0.1-1.2-0.2-1.8-0.3c-0.8-0.2-1.6-0.6-2.1-1.2
			c-0.2-0.3-0.4-0.6-0.4-1C9.7,46,10.3,45.7,10.7,45.2"/>
		<path class="st0" d="M36.9,29c0-0.8,0.5-1.4,1.2-1.7c1.3-0.6,2.8-0.9,4.2-0.9c1.1,0,2.1,0.1,3.1,0.4c0.3,0.2,0.6,0.4,0.8,0.8
			c0.1,0.2-0.1,0.2-0.2,0.1c-0.4-0.1-0.8-0.1-1.2-0.2c-1.2-0.3-2.5-0.3-3.7,0c-0.9,0.2-1.7,0.5-2.6,0.8c-0.5,0.2-0.9,0.5-1.3,0.8
			C37,29.3,36.9,29.2,36.9,29"/>
		<path class="st0" d="M37.5,35.8c-0.1-0.4-0.1-0.8-0.1-1.2c0-0.6-0.1-1.1-0.2-1.7c-0.1-0.7-0.1-1.4-0.2-2c0-0.2,0.1-0.3,0.3-0.1
			c1,0.5,2.1,0.8,3.2,0.8c1,0.1,2.1-0.1,3-0.4c0.8-0.3,1.6-0.4,2.5-0.6c0.2,0,0.3-0.1,0.5-0.2c0.3-0.1,0.5,0,0.4,0.4
			c-0.1,0.6-0.2,1.1-0.3,1.7s-0.1,1.1-0.2,1.7c0,0.2-0.1,0.4-0.3,0.5c-0.5,0.3-0.7,1-0.5,1.6c0.1,0.3,0.2,0.5-0.3,0.6
			c-1.1,0.3-2,0.8-2.9,1.5c-0.1,0-0.1,0.1-0.2,0.2c-0.2,0.6-0.7,1.2-0.6,1.9c0,0.3-0.2,0.5-0.5,0.3c-0.1,0-0.3-0.1-0.3-0.1
			s-0.2,0.3-0.2,0.4c0.1,0.3,0.2,0.7,0.3,1c0.1,0.3,0.2,0.6,0.3,0.9s0.3,0.9,0.5,1.3s0,0.6-0.4,0.5s-1.1,0-1.6,0
			c-0.3-0.1-0.6-0.2-0.9-0.3c-0.1,0-0.1-0.1-0.1-0.2c0-0.7-0.1-1.4-0.3-2c-0.1-0.7-0.2-1.4-0.4-2.1s-0.2-1.1-0.3-1.6
			C37.7,37.7,37.6,36.8,37.5,35.8"/>
		<path class="st0" d="M47.9,37.3c0.6-0.1,1.1,0,1.7,0.3c0.3,0.1,0.6,0.2,0.9,0.3c0.7,0.3,1.2,0.8,1.4,1.5c0,0.1,0.1,0.2,0.1,0.2
			c0.2,0.3,0.1,0.4-0.2,0.5c-0.2,0.1-0.3,0.2-0.4,0.3c-0.2,0.2-0.5,0.5-0.7,0.8s-0.4,0.2-0.5-0.1c0-0.1-0.1-0.2-0.1-0.2
			c-0.3-0.5-0.7-0.6-1-0.1s-0.5,0.5-0.8-0.1c-0.1-0.1-0.2-0.2-0.3-0.3c-0.4-0.2-0.4-0.1-0.7,0.3c-0.1,0.2-0.3,0.5-0.5,0.6
			c-0.2,0.2-0.3-0.1-0.5-0.3c-0.1-0.2-0.3-0.4-0.4-0.6c-0.1-0.2-0.5-0.3-0.7-0.1c-0.1,0-0.1,0.1-0.1,0.1c-0.1,0.2-0.3,0.4-0.4,0.5
			s-0.3,0.2-0.4,0s-0.3-0.4-0.5-0.6c-0.1-0.2-0.4-0.3-0.6-0.2c-0.1,0-0.2,0.1-0.2,0.2c0,0.1-0.1,0.2-0.1,0.2c0,0.1-0.1,0.1-0.2,0.2
			c0-0.1,0-0.1,0-0.2c-0.1-0.8,0.3-1.6,1-2c0.7-0.5,1.5-0.8,2.3-0.9c0.3-0.1,0.7-0.2,1-0.3c0,0,0,0.1,0,0.1l1.1-0.1"/>
		<path class="st0" d="M37.9,43.6c0,0.5,0.1,0.9,0.2,1.4c0.1,0.2,0.3,0.4,0.5,0.4c0.9,0.2,1.8,0.2,2.8,0.4v0c0.2,0,0.5,0,0.7,0
			c0.1,0,0.2,0.1,0.2,0.2s-0.1,0.1-0.2,0.2l-2,1c-0.3,0.2-0.6,0.4-0.9,0.5c-0.3,0.1-0.7,0.1-1,0c-0.7-0.2-1.3-0.4-2-0.7
			c-0.8-0.3-1.3-1-1.2-1.9c0.1-0.4,0.2-0.7,0.5-1c0.4-0.4,1-0.8,1.5-0.9C37.6,42.9,37.9,43,37.9,43.6"/>
		<path class="st0" d="M42.8,46.8c0.2,0.5,0.4,0.9,0.6,1.4c0,0,0,0.1,0,0.1c0,0.2-0.1,0.4,0,0.4c0.2,0.2,0.4,0.3,0.7,0.4
			c0.4,0.1,0.9,0.2,1.4,0.2c0.3,0,0.6,0,1,0l0,0l1,0.1c0,0,0.1,0,0.1,0c0.7-0.4,1.5-0.1,2.2-0.3l1.2-0.4c0.1,0,0.2,0,0.2-0.1
			c0.2,0,0.3-0.1,0.3-0.3c0.2-0.6,0.5-1.2,0.7-1.8c0,0,0.1-0.1,0.1-0.1c0.4,0.3,0.8,0.1,1.2,0c0.6-0.1,1.2,0.1,1.6,0.5
			c0.2,0.1,0.4,0.2,0.5,0.4c0.6,0.7,0.4,1.8-0.3,2.3c-0.1,0.1-0.2,0.1-0.3,0.2c-1,0.8-2.1,1.3-3.4,1.6c-0.7,0.2-1.4,0.4-2.2,0.6
			c-0.2,0.1-0.5,0.1-0.7,0.1c-0.9,0-1.8,0-2.7,0.1c-0.5,0-0.9,0.1-1.4,0.2c-0.1,0-0.1,0-0.2,0c-1.1-0.2-2.3-0.2-3.4-0.5
			c-0.9-0.2-1.7-0.6-2.4-1.2c-0.3-0.2-0.5-0.5-0.6-0.9c0-0.3,0-0.5,0.2-0.8c0.6-0.8,1.4-1.4,2.3-1.8c0.4-0.2,0.8-0.4,1.1-0.5
			c0.2-0.1,0.4-0.2,0.7-0.2C42.6,46.6,42.7,46.8,42.8,46.8"/>
		<path class="st0" d="M45.5,46.2c0.1,0.8,0.3,1.5,0.6,2.2c0,0.1,0,0.2,0,0.3c-0.1-0.1-0.3-0.1-0.3-0.2c-0.2-0.4-0.4-0.9-0.6-1.3
			c-0.5-1.3-1-2.7-1.5-4l-0.4-1c0,0-0.1-0.1-0.1-0.1s0.1-0.3,0.1-0.5c0.1,0.1,0.2,0.2,0.3,0.3l0.8,0.5c0.1,0.1,0.2,0.1,0.3,0.2
			c0.2,0.7,0.4,1.5,0.6,2.2h-0.1C45.3,45.2,45.4,45.7,45.5,46.2"/>
		<path class="st0" d="M43.8,45.8c0.1,0.2,0.2,0.4,0.4,0.7c0,0.1,0.1,0.2,0.1,0.3h-0.1l0.4,1.1c0.1,0.1,0.1,0.2,0.1,0.4
			c0,0.1,0,0.2,0,0.3c-0.1-0.1-0.3-0.1-0.3-0.2c-0.6-0.9-1.1-1.9-1.5-3c-0.2-0.6-0.5-1.2-0.8-1.9c-0.2-0.4-0.3-0.9-0.4-1.3
			c0-0.1,0-0.2,0-0.2l0.2,0.1l0.5,0.3c0,0,0.1,0,0.1,0l0.4,1.3c0,0.1,0.1,0.3,0.1,0.4C43.3,44.5,43.5,45.2,43.8,45.8"/>
		<path class="st0" d="M47.7,42.5c-0.1,1-0.2,2-0.3,3c-0.1,0.8-0.1,1.5-0.2,2.3c0,0.1,0,0.2-0.1,0.3c0,0-0.1,0.1-0.1,0.1l0-0.1
			c-0.3-0.5-0.5-1.2-0.6-1.8c-0.2-1.1-0.5-2.2-0.7-3.3c-0.1-0.3-0.2-0.6-0.3-1c0-0.1,0-0.2,0-0.4c0.1,0,0.2,0.1,0.3,0.2
			c0.1,0.1,0.2,0.3,0.3,0.4c0.3,0.3,0.8,0.4,1.2,0.1c0.1-0.1,0.1-0.1,0.2-0.2c0.1-0.1,0.2-0.2,0.3-0.3c0,0.1,0.1,0.3,0.1,0.4
			C47.7,42.2,47.7,42.4,47.7,42.5L47.7,42.5"/>
		<path class="st0" d="M48.3,43.5c0-0.3,0-0.6,0.1-0.9c0-0.1,0.1-0.1,0.2-0.2c0.3,0,0.6-0.2,0.7-0.5c0.1-0.2,0.2-0.2,0.4,0
			c0.4,0.4,0.3,0.9,0.1,1.4c-0.3,1-0.7,2-1,3c-0.2,0.7-0.4,1.4-0.6,2.1c0,0.1-0.1,0.1-0.2,0.2s-0.1-0.1-0.1-0.2c0-0.2,0-0.3,0-0.5
			c0-0.6,0.1-1.2,0.2-1.8s0.2-1.5,0.2-2.2C48.3,43.7,48.3,43.6,48.3,43.5L48.3,43.5"/>
		<path class="st0" d="M50.3,43.3c0-0.1,0.1-0.1,0.1-0.2c0.1-0.1,0.2-0.3,0.2-0.4c0-0.7,0.7-0.8,1-1.2c0.1,0,0.1,0,0.2,0
			c0.1,0.1,0.1,0.1,0.1,0.2c-0.3,0.9-0.6,1.8-0.9,2.7c-0.1,0.3-0.2,0.7-0.3,1.1c-0.2,0.5-0.3,1-0.5,1.5c-0.2,0.4-0.3,0.8-0.5,1.1
			c-0.1,0.2-0.2,0.3-0.3,0.4h-0.1c0-0.1-0.1-0.2-0.1-0.3c0.2-0.7,0.4-1.3,0.5-2C49.8,45.3,50.1,44.3,50.3,43.3"/>
		<path class="st0" d="M52.3,42.6c0-0.1,0.2-0.1,0.3-0.1s0.1,0.1,0.2,0.1s-0.1,0.2-0.2,0.3l-0.6,1.4c-0.2,0.4-0.3,0.7-0.5,1.1
			c-0.3,0.7-0.5,1.5-0.8,2.2c0,0.1-0.1,0.1-0.1,0.2c-0.1,0.1-0.2,0.2-0.3,0.3c0-0.1,0.1-0.2,0.1-0.3c0.2-0.4,0.3-0.8,0.5-1.2
			c0.2-0.7,0.4-1.3,0.6-2S52,43.3,52.3,42.6"/>
		<path class="st0" d="M67.1,49c-0.2,0.6-0.6,1.2-1.1,1.6c-0.7,0.6-1.3,1.2-2.1,1.7c-0.6,0.4-1.3,0.7-1.9,1
			c-0.5,0.2-0.9,0.3-1.4,0.5s-0.7,0.2-1,0.3s-0.9,0.2-1.3,0.4c-0.7,0.2-1.4,0.5-2.1,0.8c-0.4,0.2-0.8,0.4-1.2,0.5s-0.9,0.3-1.3,0.4
			c-0.3,0.1-0.6,0.2-0.9,0.3c-0.7,0.1-1.3,0.2-2,0.3C49.8,57,48.9,57.1,48,57c-0.9,0-1.8,0-2.6,0s-1.5,0.2-2.2,0.2
			c-1.1,0-2.3,0.1-3.4,0.1l-1.6,0.1c-1.3,0.1-2.6,0.1-4,0.2l-2.3,0.1c-0.5,0-1.1,0-1.6,0c-0.9,0-1.9,0.2-2.8,0.2
			c-1,0.1-1.9,0.1-2.9,0c-1.1-0.2-2.1-0.2-3.2-0.3c-0.7-0.1-1.4-0.1-2.1-0.2s-1.3-0.3-2-0.5c-0.8-0.2-1.7-0.3-2.5-0.6
			c-1.4-0.4-2.8-0.7-4.1-1.1c-0.6-0.2-1.3-0.5-1.9-0.7c-0.3-0.1-0.6-0.2-0.9-0.2c-0.8-0.3-1.5-0.7-2.3-1c-0.5-0.3-1-0.4-1.5-0.6
			c-0.4-0.1-0.8-0.3-1.2-0.6c-0.4-0.2-0.7-0.4-1-0.7c-0.1-0.1-0.2-0.2-0.3-0.2c-0.6-0.3-0.9-1.1-0.7-1.7c0.2-0.5,0.6-1,0.9-1.4
			c0.5-0.5,1-0.9,1.5-1.2c0.6-0.3,1.1-0.6,1.8-0.9c0.5-0.2,1-0.4,1.6-0.6c0,0,0.1,0,0.1,0L8.6,45l1.3-0.2c0.1,0,0.1,0,0.2,0
			c0,0.1-0.1,0.1-0.1,0.2c-0.1,0.1-0.2,0.2-0.3,0.3c-0.2,0.3-0.5,0.5-0.5,0.8c0,0.6,0.1,1.1,0.4,1.6c0.4,0.7,1,1.2,1.7,1.5
			c0.6,0.2,1.3,0.4,2,0.5c0.9,0.2,1.8,0.3,2.7,0.5c0.5,0,1,0,1.5-0.1c0.4,0,0.9,0,1.3,0c0.5,0,1.1,0,1.6-0.1c1-0.2,2-0.4,3-0.6
			c0.8-0.2,1.6-0.4,2.4-0.6c0.9-0.3,1.6-0.7,2.3-1.4c0.3-0.3,0.5-0.6,0.7-0.9c0.2-0.5,0.1-1-0.2-1.5c-0.6-0.8-1.5-1.3-2.5-1.5
			l-1.6-0.4c-0.1,0-0.2-0.1-0.2-0.1c-0.1-0.1-0.1-0.1-0.1-0.2c0,0,0.1-0.1,0.2-0.1l1.9-0.2c0.6,0,1.3-0.1,1.9-0.1c1,0,2.1,0,3.2,0
			c0.8,0,1.6-0.1,2.4-0.1c0.5,0,0.9,0,1.4,0.1h1.2c0.1,0,0.2,0,0.3,0c0,0,0.1,0,0.1,0h-0.1c-0.3,0.1-0.6,0.3-0.9,0.4
			c-0.1,0.1-0.2,0.2-0.3,0.3c-0.2,0.2-0.4,0.4-0.6,0.7c-0.4,0.5-0.5,1.2-0.3,1.9c0.2,0.7,0.7,1.3,1.3,1.7c0.3,0.1,0.5,0.3,0.8,0.4
			c0.5,0.2,1,0.4,1.4,0.5c0.2,0.1,0.2,0.1,0.1,0.2c-0.1,0.1-0.2,0.3-0.3,0.4c-0.5,0.5-0.5,1.3-0.1,1.8c0.3,0.5,0.7,1,1.2,1.2
			c0.3,0.1,0.5,0.3,0.7,0.4c0.5,0.2,0.9,0.4,1.4,0.5c0.7,0.2,1.5,0.3,1.9,0.4c1.1,0,1.9,0,2.6,0c1,0,2.1-0.1,3.1-0.2
			c0.8-0.1,1.5-0.2,2.3-0.4c0.2,0,0.4-0.2,0.7-0.3c1.1-0.3,2.1-0.7,3-1.3c0.7-0.4,1.3-0.9,1.7-1.7c0.4-0.9,0.1-1.9-0.7-2.5
			c-0.2-0.1-0.3-0.3-0.5-0.5c-0.6-0.4-1.4-0.6-2.2-0.6c-0.1,0-0.3,0.1-0.4,0.1c-0.3,0-0.4-0.1-0.3-0.4c0.3-0.5,0.5-1.1,0.8-1.6
			c0.1-0.2,0.3-0.3,0.5-0.3c0,0,0,0,0,0c0.5,0.1,0.9,0.1,1.4,0.1c0.7,0,1.4-0.1,2.1,0c0.5,0,0.9,0.1,1.3,0.3c0.5,0.1,1,0.2,1.5,0.3
			c0.5,0.1,0.9,0.2,1.4,0.3l0.8,0.3c0.4,0.1,0.9,0.2,1.3,0.4c0.6,0.2,1.3,0.5,1.9,0.8c0.3,0.1,0.4,0.4,0.7,0.7
			c0.5,0.4,0.8,1,0.9,1.7C67.1,48.6,67.1,48.8,67.1,49"/>
		<path class="st0" d="M33.3,25.8h0.5c-0.1,0.1-0.1,0.3-0.2,0.4s-0.2,0.4-0.5,0.5c-0.7,0.2-1.5,0.1-2.2-0.2c0,0,0,0-0.1-0.1
			c0,0,0.1,0,0.1,0h0.7c0.6,0,1.2-0.2,1.7-0.5c0,0,0,0,0.1,0"/>
	</g>
</g>
</svg>
