<?xml version="1.0" encoding="utf-8"?>
<!-- Generator: Adobe Illustrator 24.0.2, SVG Export Plug-In . SVG Version: 6.00 Build 0)  -->
<svg version="1.1" id="Calque_1" xmlns="http://www.w3.org/2000/svg" xmlns:xlink="http://www.w3.org/1999/xlink" x="0px" y="0px"
	 viewBox="0 0 132.9 58.7" style="enable-background:new 0 0 132.9 58.7;" xml:space="preserve">
<style type="text/css">
	.st0{fill:#FFFFFF;}
	.st1{display:none;fill:#222221;}
	.st2{display:none;fill:#FFFFFF;}
	.st3{fill:#F4B041;}
	.st4{fill:#222221;}
</style>
<g id="Calque_2_1_">
	<g id="Layer_1">
		<path class="st0" d="M-25.9,14.7c0-2.2-1.3-4-2.9-4c-0.1,0-0.2,0-0.3,0c-1.7-5.9-6.3-10.2-11.6-10.2c-6.1,0-11.2,5.6-12.2,13
			c-1.5,0.1-2.7,1.7-2.7,3.7s1.2,3.8,2.7,3.8c0.1,0,0.3,0,0.4-0.1c1.6,6.2,6.3,10.6,11.7,10.6c6.2,0,11.2-5.7,12.2-13
			C-27,18.4-25.9,16.7-25.9,14.7z"/>
		<path class="st1" d="M-40.8,17c-0.1-0.2-0.1-0.4-0.1-0.6c0-0.5-0.2-0.9-0.5-1.3c-0.3-0.4-0.7-0.8-1.1-1.1
			c-0.6-0.3-1.2-0.4-1.8-0.2c-0.4,0.1-0.8,0.2-1.2,0.2c-0.4,0-0.8,0.1-1.1,0.4c-1,0.8-1.4,2-1.2,3.2c0,0.8,0.5,1.6,1.2,2
			c0.6,0.3,1.3,0.6,2,0.8c0.6,0.1,1-0.2,1.5-0.4c0.1-0.4,0.5-0.3,0.7-0.5c0.1,0,0.1-0.1,0.2-0.2c0.3-0.3,0.5-0.6,0.7-0.9
			C-41.2,18-41,17.5-40.8,17L-40.8,17 M-42.9,18.8c-0.1,0.1-0.2,0.2-0.3,0.3c-0.5,0.6-1.3,0.7-2,0.4c-0.9-0.3-1.5-0.9-1.8-1.7
			c0-0.3,0-0.5,0-0.8c0-0.1,0-0.2,0-0.4c0-0.6,0.3-1.1,0.7-1.6c0.3-0.3,0.8-0.5,1.2-0.3c0.2,0.1,0.5,0,0.6-0.1
			c0.5-0.5,1.4-0.4,1.9,0.1c0.1,0.1,0.1,0.1,0.1,0.2c0.1,0.2,0.1,0.3,0.3,0.4c0.5,0.4,0.4,0.9,0.5,1.4c-0.1,0.8-0.4,1.5-1.1,2"/>
		<path class="st2" d="M-42.3,15.4c-0.1-0.1-0.2-0.3-0.2-0.4c-0.4-0.6-1.2-0.8-1.8-0.4c0,0,0,0,0,0c-0.2,0.2-0.4,0.2-0.6,0.1
			c-0.4-0.2-0.9-0.1-1.2,0.3c-0.4,0.4-0.6,1-0.6,1.5c0,0.1,0,0.2,0,0.4c-0.1,0.2-0.1,0.5,0,0.8c0.3,0.8,1,1.5,1.8,1.7
			c0.7,0.3,1.5,0.2,2-0.4c0.1-0.1,0.2-0.2,0.3-0.3c0.6-0.5,1-1.2,1-2C-41.8,16.3-41.7,15.8-42.3,15.4 M-44.5,17.5
			c-0.2,0-0.3-0.2-0.3-0.4c0-0.2,0.2-0.5,0.5-0.5s0.5,0,0.5,0.3C-43.9,17.3-44.1,17.5-44.5,17.5C-44.5,17.5-44.5,17.5-44.5,17.5"/>
		<path class="st1" d="M-35.1,14.1c-0.5-0.1-1-0.3-1.4-0.3c-0.2,0-0.4,0-0.7,0c-0.6-0.1-1.1,0.2-1.5,0.6c-0.7,0.8-1.1,1.9-1.1,3
			c0.1,0.4,0.2,0.8,0.4,1.2c0.5,1.2,1.9,1.9,3.2,1.5c0.9-0.2,1.6-0.7,2.2-1.4c0.2-0.2,0.3-0.4,0.4-0.6c0.2-0.5,0.3-1.1,0.2-1.7
			C-33.5,15.4-34.2,14.6-35.1,14.1 M-34.7,18.1c-0.4,0.5-0.9,0.9-1.5,1.1c-0.4,0.2-0.8,0.2-1.2,0.1c-0.5-0.1-1-0.4-1.3-0.9
			c-0.5-0.6-0.6-1.4-0.4-2.1c0.1-0.6,0.4-1.1,0.8-1.5c0.2-0.1,0.4-0.2,0.6-0.3c0,0,0,0.1,0,0.1c0.4,0,0.9,0,1.3,0c1.1,0,2,0.9,2.1,2
			C-34.2,17.2-34.4,17.7-34.7,18.1"/>
		<path class="st2" d="M-36.3,14.7c-0.4,0-0.9,0-1.3,0c0,0,0-0.1,0-0.1c-0.2,0.1-0.4,0.2-0.6,0.3c-0.5,0.4-0.8,0.9-0.8,1.5
			c-0.2,0.7-0.1,1.5,0.4,2.1c0.3,0.4,0.8,0.7,1.3,0.9c0.4,0.1,0.8,0.1,1.2-0.1c0.6-0.3,1.1-0.7,1.5-1.1c0.4-0.4,0.6-0.9,0.5-1.4
			C-34.2,15.6-35.1,14.7-36.3,14.7 M-36.8,17.5c-0.2,0-0.4-0.1-0.4-0.4c0,0,0,0,0,0c0-0.3,0.3-0.7,0.5-0.6c0.2,0.1,0.4,0.2,0.5,0.4
			C-36.1,17.2-36.5,17.5-36.8,17.5"/>
		<path class="st1" d="M-40.6,25.5c-0.4,0-0.8,0-1.1,0c-0.6,0-1.3-0.1-1.8-0.4c-0.2-0.1-0.4,0-0.6,0.1c-0.2,0.2,0,0.4,0.1,0.5
			s0.1,0.1,0.2,0.2c0.3,0.4,0.6,0.9,1.2,0.9c0.1,0,0.2,0.1,0.3,0.1c0.6,0.4,1.3,0.6,2,0.6c0,0,0,0.1,0,0.1c0.5-0.1,1-0.3,1.5-0.5
			c1-0.5,1.2-1.6,1.8-2.4c0,0,0-0.1,0-0.1c0-0.1,0-0.4-0.1-0.4c-0.2-0.1-0.4-0.1-0.6,0c-0.2,0.2-0.5,0.3-0.8,0.4
			c-0.6,0.1-1.1,0.4-1.7,0.7C-40.3,25.4-40.5,25.5-40.6,25.5 M-39.3,25.8h0.5c-0.1,0.1-0.1,0.3-0.2,0.4s-0.2,0.4-0.5,0.5
			c-0.7,0.2-1.5,0.1-2.2-0.2c0,0,0,0-0.1-0.1c0,0,0.1,0,0.1,0h0.7c0.6,0,1.2-0.2,1.7-0.5c0,0,0,0,0.1,0"/>
		<path class="st1" d="M-43.9,16.9c0,0.3-0.3,0.6-0.6,0.6c0,0,0,0-0.1,0c-0.2,0-0.3-0.2-0.3-0.4s0.2-0.5,0.5-0.5S-44,16.6-43.9,16.9
			"/>
		<path class="st1" d="M-36.8,17.5c-0.2,0-0.4-0.1-0.4-0.4c0,0,0,0,0,0c0-0.3,0.3-0.7,0.5-0.6c0.2,0.1,0.4,0.2,0.5,0.4
			C-36.2,17.1-36.5,17.5-36.8,17.5"/>
		<path class="st1" d="M-4.8,47.8c-0.2-0.4-0.4-0.8-0.7-1.1c-0.3-0.6-0.9-1.1-1.6-1.4c-1.1-0.4-2.3-0.8-3.5-1.2
			c-0.4-0.1-0.7-0.2-1.1-0.3c-0.6-0.1-1.2-0.2-1.9-0.3c-0.4-0.1-0.7-0.2-1.1-0.2c-1-0.1-2-0.1-3-0.1l0,0h-1c-0.2,0-0.3,0-0.2-0.2
			c0.2-0.4,0.4-0.8,0.5-1.2c0.1-0.2,0.2-0.5,0.3-0.8c0.1-0.3-0.2-0.7-0.5-0.6s-0.5,0.2-0.8,0.4c-0.1,0-0.2,0.1-0.2,0.1
			c0-0.1,0-0.1,0-0.2c0-0.1,0-0.3,0-0.4c-0.2-0.5-0.4-1-0.6-1.5c-0.2-0.5-0.6-1-1.1-1.3c-0.5-0.3-1-0.5-1.5-0.7
			c-0.2-0.1-0.2-0.1-0.1-0.3c0.4-0.9,0.6-1.8,0.6-2.8c0.1-0.8,0.1-1.5,0-2.3c-0.1-0.8-0.8-1.4-1.6-1.3c-0.2,0-0.3,0.1-0.5,0.1
			c-0.1,0.1-0.3,0.1-0.4,0.1c0-0.1,0-0.3-0.1-0.4c0,0,0,0,0-0.1c0.3-0.8,0-1.7-0.6-2.2c0,0,0,0,0-0.1c-0.6-1.3-1.8-1.5-3-1.7
			c-0.3,0-0.6,0-0.8,0c-0.3,0-0.7-0.1-1-0.1h-0.3c0.6-1,1-2.1,1.4-3.1c0.4-1,0.6-2.1,0.6-3.1c0-0.4,0.1-0.5,0.6-0.4
			c0.4,0.1,0.7,0,1-0.3c0.6-0.6,1-1.4,1.1-2.3c0.1-1.3,0.1-2.5,0-3.8c-0.1-1.1-0.8-2.1-1.8-2.7c-0.1,0-0.1-0.1-0.1-0.1
			c-0.1-0.5-0.2-0.9-0.4-1.4c-0.6-1.3-1.3-2.5-2.1-3.7c-0.1-0.2-0.2-0.3-0.3-0.4c-0.3-0.4-0.6-0.7-0.9-1c-0.4-0.3-0.8-0.5-1.2-0.9
			c-0.6-0.5-1.3-0.9-2-1c-0.3-0.1-0.6-0.1-0.9-0.1C-36.1,1.2-36.5,1-37,0.9l-0.9-0.2h-0.3c-0.3-0.1-0.7-0.1-1.1-0.1
			c-0.4,0-0.6,0-1,0c-0.7,0-1.5-0.1-2.3-0.1c-0.4,0.1-0.9,0.2-1.3,0.3c-0.3,0.1-0.7,0.2-1,0.4c-0.6,0.3-1.2,0.6-1.8,0.9
			s-1.2,0.4-1.5,1.1c-0.1,0.2-0.1,0.3,0,0.4s0.3,0.2,0.4,0.4c0.4,0.3,0.9,0.6,1.3,1c0.5,0.6,1.4,0.8,2,0.3c0.3-0.1,0.7-0.2,1-0.2
			c0.3,0,0.6,0,0.9,0c0.9,0,1.7-0.2,2.6-0.2c0.7,0,1.4,0.1,2.1,0.3c0.3,0.1,0.7,0.3,1,0.3c1.2,0.3,2.3,0.9,3.3,1.6
			c0.4,0.3,0.8,0.5,1.2,0.8c0.3,0.2,0.5,0.4,0.8,0.6c0.2,0.2,0.4,0.5,0.6,0.6c0.5,0.4,0.8,0.9,0.9,1.6c0,0.3,0.1,0.6,0.2,0.8
			c0.1,0.2,0.3,0.3,0.5,0.4c0.3,0.1,0.5-0.1,0.6-0.3c0,0,0,0,0,0c0-0.3,0.3-0.6,0.6-0.5c0.1,0,0.3,0.1,0.4,0.2
			c0.2,0.1,0.4,0.3,0.5,0.5c0.2,0.4,0.3,0.9,0.5,1.4c0.1,0.1,0.1,0.2,0.1,0.4c0,0.6-0.1,1.3-0.2,1.9c0.1,0.8-0.1,1.6-0.4,2.3
			c-0.3,0.7-0.7,0.8-1.3,0.2c-0.1-0.1-0.3-0.2-0.5-0.1c-0.2,0.1-0.3,0.2-0.4,0.4c-0.1,0.4-0.1,0.8-0.1,1.2c0,0.2,0,0.5,0,0.7
			c-0.1,0.5-0.2,1-0.3,1.4c0,0.4-0.1,0.8-0.2,1.2c-0.2,0.5-0.4,1-0.6,1.5c-0.3,0.6-0.6,1.2-0.9,1.7c-0.2,0-0.3,0-0.5,0.1
			c-1.1,0.2-2.1,0.5-3.1,1c-0.8,0.4-1.3,1.1-1.4,2c0,0.3,0,0.6,0,0.9c0,0,0,0.2,0.1,0.5c-0.2,0.1-0.4,0.2-0.6,0.2
			c-1.2,0.4-2.5,0.6-3.7,0.7c-0.4,0-0.9,0-1.3,0c-0.1,0-0.2,0-0.3,0l-0.6-0.1c-0.4-0.1-0.9-0.2-1.3-0.3c-0.9-0.3-1.7-0.7-2.5-1.3
			c-0.8-0.5-1.5-1.2-2-2c-0.5-0.9-1-1.9-1.5-2.8c-0.3-0.5-0.5-1.1-0.8-1.6c-0.3-0.7-0.5-1.5-0.7-2.2c-0.2-0.5-0.4-0.5-0.8-0.4
			c-0.5,0.2-1.1,0.2-1.5-0.1c-0.5-0.4-0.8-1-0.9-1.6c-0.2-0.9-0.2-1.8,0-2.7c0.1-0.8,0.5-1.5,1.2-2c0.2-0.2,0.5-0.2,0.8-0.2
			c0.3,0.1,0.4,0.4,0.3,0.7c0,0.2,0.1,0.4,0.2,0.4c0.1,0,0.1,0,0.2,0c0.3-0.1,0.5-0.3,0.5-0.6c0-0.1,0-0.2,0-0.2
			c0.1-0.4,0.5-0.7,0.4-1.1c0,0,0-0.1,0.1-0.1c0.4-0.5,0.7-1,1-1.6c0.3-0.6,0.7-1.2,1.1-1.7c0.5-0.6,1-1.2,1.5-1.9
			c0.2-0.3,0.4-0.7,0.6-1c0.1-0.4,0-0.8-0.4-1.1c-0.1,0-0.3-0.1-0.4-0.2c-0.3-0.5-0.8-0.9-1.4-1.2c-0.3-0.2-0.7-0.1-0.9,0.2
			c0,0-0.1,0.1-0.1,0.2c-0.5,1-1,1.9-1.5,2.9c-0.4,0.8-0.8,1.5-1.1,2.3c-0.2,0.3-0.2,0.7-0.4,1.1c-0.3,0.6-0.5,1.3-0.5,1.9
			c0,0.3-0.2,0.5-0.4,0.6c-0.2,0.1-0.3,0.2-0.4,0.3c-0.5,0.6-0.9,1.2-1.2,1.9c-0.3,1-0.4,2.1-0.2,3.1c0.1,0.7,0.4,1.4,0.8,1.9
			c0.5,0.7,1.4,1.1,2.2,0.8c0.1,0,0.2,0,0.3,0.1c0.1,0.3,0.2,0.6,0.3,0.9s0.4,0.9,0.5,1.3c0.3,0.7,0.6,1.5,1,2.2
			c0.2,0.5,0.5,0.9,0.7,1.4c0.1,0.1,0.1,0.3,0.2,0.4c0.4,0.5,0.8,0.9,1.2,1.4c0,0,0.1,0.1,0.1,0.1c0.1,0.2,0.3,0.3,0.4,0.5
			c0.5,0.4,1.1,0.7,1.6,1.1c0.6,0.4,1.2,0.6,1.8,0.8c0.9,0.3,1.8,0.5,2.7,0.5c0.4,0,0.8,0.1,1.2,0.1c0.8-0.1,1.6-0.2,2.3-0.4
			c0.3,0,0.6-0.1,0.9-0.2c0.4-0.1,0.9-0.3,1.3-0.4c0,0.1,0,0.1,0,0.1c0,0.6,0.1,1.2,0.2,1.8c0,0.3,0.1,0.7,0.1,1
			c0.1,0.5,0.1,1.1,0.2,1.6c0.2,0.5,0.2,1.1,0.2,1.6c0,0.1,0,0.2,0,0.3c0.1,0.3,0.1,0.5,0.2,0.8c0.1,1.1,0.2,2.1,0.5,3.2
			c0.1,0.2,0,0.2-0.2,0.2c-1.3,0-2.5,0-3.8-0.1c-0.3,0-0.6,0-1,0c-0.7,0-1.4-0.1-2.2-0.1c-0.9,0-1.8,0.1-2.6,0.1l-2.9,0.1
			c-0.2,0-0.4,0-0.6,0c0.1-0.2,0.1-0.4,0.2-0.6c0,0,0-0.1,0-0.1c0.3-0.9,0.5-1.9,0.5-2.9c0-0.3-0.2-0.5-0.4-0.7
			c-0.4-0.3-0.9-0.6-1.4-0.8c-0.4-0.2-0.8-0.4-1.2-0.4c-0.8-0.1-1.7-0.2-2.5-0.2c-0.8-0.1-1.7,0-2.5,0.1c-0.3,0.1-0.7,0.1-1,0.2
			c-0.6,0.2-1.2,0.4-1.8,0.6c-0.7,0.3-1.4,0.7-1.9,1.2c-0.1,0.2-0.2,0.4-0.3,0.6c-0.2,0.2-0.3,0.2-0.5,0c-0.3-0.3-0.6-0.6-0.9-0.9
			c-0.1-0.1-0.3-0.2-0.4-0.3c-0.7-0.3-1.5-0.2-2.1,0.2c-0.6,0.3-1.1,0.8-1.2,1.5c-0.3,1.5,0.8,3,2.3,3.3c0,0,0.1,0,0.1,0
			c0.4,0,0.7,0,1.1-0.1c0.2,0,0.4-0.2,0.7-0.2c0.1,0,0.3,0,0.4,0.1c0.2,0.3,0.3,0.5,0.4,0.8s0.1,0.2-0.1,0.3
			c-1.5,0.3-3.1,0.6-4.6,0.9c-1.8,0.3-3.5,1-5,2c-1,0.7-1.8,1.6-2.2,2.8c-0.3,0.7-0.1,1.5,0.5,2.1c0.9,0.8,1.9,1.4,3,1.9
			c1.3,0.5,2.6,1.1,3.9,1.6c0.3,0.1,0.7,0.2,1.1,0.3s0.8,0.4,1.2,0.5c0.9,0.3,1.9,0.6,2.8,0.8s1.7,0.5,2.5,0.7s1.7,0.4,2.5,0.6
			c0.9,0.2,1.7,0.3,2.6,0.4c0.4,0,0.7,0,1.1,0.1c0.4,0.1,0.9,0.2,1.3,0.2s0.7,0.1,1.1,0.1c0.9,0.1,1.7,0.2,2.6,0.2s1.5-0.1,2.2-0.2
			l1.4-0.1l2-0.1l2-0.1l1.6-0.1l2.7-0.1l2.3-0.1l1.8-0.1h1c0.6,0,1.2-0.1,1.8-0.1c0.4,0,0.8,0,1.2,0c0.8,0,1.5-0.1,2.3-0.1
			s1.6,0,2.4,0c0.6,0,1.2-0.1,1.8-0.3c1-0.2,1.9-0.5,2.8-0.9s1.9-0.8,2.8-1.2c0.7-0.3,1.3-0.5,2-0.7c0.5-0.2,0.9-0.2,1.4-0.4
			c0.6-0.3,1.2-0.6,1.8-0.9c0.4-0.2,0.8-0.4,1.2-0.7c0.3-0.2,0.5-0.5,0.7-0.7c0.6-0.3,1.1-0.8,1.5-1.3c0.1-0.3,0.3-0.6,0.6-0.8
			C-4.4,49.2-4.6,48.6-4.8,47.8 M-61.4,41.5c-0.3,0.2-0.7,0.4-1.1,0.5c-0.7,0.1-1.5-0.3-1.8-0.9c-0.2-0.4-0.3-0.8-0.5-1.2h0.1
			c0-0.7,0.2-1,1-1.3c0.8-0.3,1.7,0.1,2,0.8c0.1,0.2,0.1,0.4,0.1,0.5c0.1,0.5,0.2,0.9,0.3,1.3C-61.3,41.4-61.3,41.5-61.4,41.5
			 M-20.2,42.6c0-0.1,0.2-0.1,0.3-0.1s0.1,0.1,0.2,0.1s-0.1,0.2-0.2,0.3l-0.6,1.4c-0.2,0.4-0.3,0.7-0.5,1.1
			c-0.3,0.7-0.5,1.5-0.8,2.2c0,0.1-0.1,0.1-0.1,0.2c-0.1,0.1-0.2,0.2-0.3,0.3c0-0.1,0.1-0.2,0.1-0.3c0.2-0.4,0.3-0.8,0.5-1.2
			c0.2-0.7,0.4-1.3,0.6-2S-20.5,43.3-20.2,42.6 M-27,46.1c0.1,0.8,0.3,1.5,0.6,2.2c0,0.1,0,0.2,0,0.3c-0.1-0.1-0.3-0.1-0.3-0.2
			c-0.2-0.4-0.4-0.9-0.6-1.3c-0.5-1.3-1-2.7-1.5-4l-0.4-1c0,0-0.1-0.1-0.1-0.1s0.1-0.3,0.1-0.5c0.1,0.1,0.2,0.2,0.3,0.3
			c0.2,0.2,0.5,0.3,0.8,0.5c0.1,0.1,0.2,0.1,0.3,0.2c0.2,0.7,0.4,1.5,0.6,2.2h-0.1C-27.2,45.1-27.1,45.6-27,46.1 M-24.8,42.6
			c-0.1,1-0.2,2-0.3,3c-0.1,0.8-0.1,1.5-0.2,2.3c0,0.1,0,0.2-0.1,0.3c0,0-0.1,0.1-0.1,0.1l0-0.1c-0.3-0.5-0.5-1.2-0.6-1.8
			c-0.2-1.1-0.5-2.2-0.7-3.3c-0.1-0.3-0.2-0.6-0.3-1c0-0.1,0-0.2,0-0.4c0.1,0,0.2,0.1,0.3,0.2c0.1,0.1,0.2,0.3,0.3,0.4
			c0.3,0.3,0.8,0.4,1.2,0.1c0.1-0.1,0.1-0.1,0.2-0.2c0.1-0.1,0.2-0.2,0.3-0.3c0,0.1,0.1,0.3,0.1,0.4C-24.8,42.2-24.8,42.4-24.8,42.6
			L-24.8,42.6 M-28.7,45.8c0.1,0.2,0.2,0.4,0.4,0.7c0,0.1,0.1,0.2,0.1,0.3h-0.1l0.4,1.1c0.1,0.1,0.1,0.2,0.1,0.4c0,0.1,0,0.2,0,0.3
			c-0.1-0.1-0.3-0.1-0.3-0.2c-0.6-0.9-1.1-1.9-1.5-3c-0.2-0.6-0.5-1.2-0.8-1.9c-0.2-0.4-0.3-0.9-0.4-1.3c0-0.1,0-0.2,0-0.2l0.2,0.1
			l0.5,0.3c0,0,0.1,0,0.1,0l0.4,1.3c0,0.1,0.1,0.3,0.1,0.4C-29.2,44.6-29,45.2-28.7,45.8 M-29.7,46.8c0.2,0.5,0.4,0.9,0.6,1.4
			c0,0,0,0.1,0,0.1c0,0.2-0.1,0.4,0,0.4c0.2,0.2,0.4,0.3,0.7,0.4c0.4,0.1,0.9,0.2,1.4,0.2c0.3,0,0.6,0,1,0l0,0l1,0.1
			c0,0,0.1,0,0.1,0c0.7-0.4,1.5-0.1,2.2-0.3l1.2-0.4c0.1,0,0.2,0,0.2-0.1c0.2,0,0.3-0.1,0.3-0.3c0.2-0.6,0.5-1.2,0.7-1.8
			c0,0,0.1-0.1,0.1-0.1c0.4,0.3,0.8,0.1,1.2,0c0.6-0.1,1.2,0.1,1.6,0.5c0.2,0.1,0.4,0.2,0.5,0.4c0.6,0.7,0.5,1.7-0.2,2.3
			c-0.1,0.1-0.2,0.1-0.3,0.2c-1,0.8-2.1,1.3-3.4,1.6c-0.7,0.2-1.4,0.4-2.2,0.6c-0.2,0.1-0.5,0.1-0.7,0.1c-0.9,0-1.8,0-2.7,0.1
			c-0.5,0-0.9,0.1-1.4,0.2c-0.1,0-0.1,0-0.2,0c-1.1-0.2-2.3-0.2-3.4-0.5c-0.9-0.2-1.7-0.6-2.4-1.2c-0.3-0.2-0.5-0.5-0.6-0.9
			c0-0.3,0-0.5,0.2-0.8c0.6-0.8,1.4-1.4,2.3-1.8c0.4-0.2,0.8-0.4,1.1-0.5c0.2-0.1,0.4-0.2,0.7-0.2C-29.9,46.6-29.8,46.8-29.7,46.8
			 M-24.2,43.5c0-0.3,0-0.6,0.1-0.9c0-0.1,0.1-0.1,0.2-0.2c0.3,0,0.6-0.2,0.7-0.5c0.1-0.2,0.2-0.2,0.4,0c0.4,0.4,0.3,0.9,0.1,1.4
			c-0.3,1-0.7,2-1,3c-0.2,0.7-0.4,1.4-0.6,2.1c0,0.1-0.1,0.1-0.2,0.2s-0.1-0.1-0.1-0.2c0-0.2,0-0.3,0-0.5c0-0.6,0.1-1.2,0.2-1.8
			s0.2-1.5,0.2-2.2C-24.2,43.8-24.2,43.7-24.2,43.5L-24.2,43.5 M-22.2,43.4c0-0.1,0.1-0.1,0.1-0.2c0.1-0.1,0.2-0.3,0.2-0.4
			c0-0.7,0.7-0.8,1-1.2c0.1,0,0.1,0,0.2,0c0.1,0.1,0.1,0.1,0.1,0.2c-0.3,0.9-0.6,1.8-0.9,2.7c-0.1,0.3-0.2,0.7-0.3,1.1
			c-0.2,0.5-0.3,1-0.5,1.5c-0.2,0.4-0.3,0.8-0.5,1.1c-0.1,0.2-0.2,0.3-0.3,0.4h-0.1c0-0.1-0.1-0.2-0.1-0.3c0.2-0.7,0.4-1.3,0.5-2
			C-22.7,45.4-22.4,44.4-22.2,43.4 M-25.2,34.4c0.1-0.6,0.1-1.3,0.2-1.9c0-0.1,0-0.2,0-0.2c0.4-0.2,0.4-0.8,0.8-1.1
			c0.1-0.1,0.3-0.2,0.5-0.3c0.3,0,0.5,0.2,0.6,0.5c0.1,0.3,0.1,0.6,0.2,0.8h0c0,0.5,0,1.1,0,1.6c-0.1,0.8-0.3,1.6-0.4,2.3
			c0,0.1-0.1,0.1-0.1,0.2c-0.1,0.1-0.1,0.1-0.2,0.2c0-0.1-0.1-0.1-0.1-0.2c0.1-0.6-0.2-1.2-0.7-1.6c-0.2-0.1-0.3-0.2-0.5-0.2
			c-0.2,0-0.2-0.1-0.2-0.3 M-24.6,37.3c0.6-0.1,1.1,0,1.7,0.3c0.3,0.1,0.6,0.2,0.9,0.3c0.7,0.3,1.2,0.8,1.4,1.5
			c0,0.1,0.1,0.2,0.1,0.2c0.2,0.3,0.1,0.4-0.2,0.5c-0.2,0.1-0.3,0.2-0.4,0.3c-0.2,0.2-0.4,0.5-0.7,0.8s-0.3,0.2-0.5-0.1
			c0-0.1-0.1-0.2-0.1-0.2c-0.3-0.5-0.7-0.6-1-0.1s-0.5,0.5-0.8-0.1c-0.1-0.1-0.2-0.2-0.3-0.3c-0.4-0.2-0.5-0.1-0.8,0.3
			c-0.1,0.2-0.3,0.5-0.5,0.6c-0.2,0.2-0.3-0.1-0.5-0.3c-0.1-0.2-0.3-0.4-0.4-0.6c-0.1-0.2-0.5-0.3-0.7-0.2c-0.1,0-0.1,0.1-0.2,0.2
			c-0.1,0.2-0.3,0.4-0.4,0.5s-0.3,0.2-0.4,0c-0.2-0.2-0.3-0.4-0.4-0.6c-0.1-0.2-0.4-0.3-0.6-0.2c-0.1,0-0.2,0.1-0.2,0.2
			c0,0.1-0.1,0.2-0.1,0.2c0,0.1-0.1,0.1-0.2,0.2c0-0.1,0-0.1,0-0.2c-0.1-0.8,0.3-1.6,1-2c0.7-0.5,1.5-0.8,2.3-0.9
			c0.3-0.1,0.7-0.2,1-0.3v0.1l1.1-0.1 M-35.6,29c0-0.8,0.5-1.4,1.2-1.7c1.3-0.6,2.8-0.9,4.2-0.9c1.1,0,2.1,0.1,3.1,0.4
			c0.3,0.2,0.6,0.4,0.8,0.8c0.1,0.2-0.1,0.2-0.2,0.1c-0.4-0.1-0.8-0.1-1.2-0.2c-1.2-0.3-2.5-0.3-3.7,0c-0.9,0.2-1.7,0.5-2.6,0.8
			c-0.5,0.2-0.9,0.5-1.3,0.8C-35.5,29.3-35.6,29.2-35.6,29 M-35,35.8c-0.1-0.4-0.1-0.8-0.1-1.2c0-0.6-0.1-1.1-0.2-1.7
			c-0.1-0.7-0.1-1.4-0.2-2c0-0.2,0.1-0.3,0.3-0.1c1,0.5,2.1,0.8,3.2,0.8c1,0.1,2.1-0.1,3-0.4c0.8-0.3,1.6-0.4,2.5-0.6
			c0.2,0,0.3-0.1,0.5-0.2c0.3-0.1,0.5,0,0.4,0.4c-0.1,0.6-0.2,1.1-0.3,1.7c-0.1,0.6-0.1,1.1-0.2,1.7c0,0.2-0.1,0.4-0.3,0.5
			c-0.5,0.3-0.7,1-0.5,1.6c0.1,0.3,0.2,0.5-0.3,0.6c-1.1,0.3-2,0.8-2.9,1.5c-0.1,0-0.1,0.1-0.2,0.2c-0.2,0.6-0.7,1.2-0.6,1.9
			c0,0.3-0.2,0.5-0.5,0.3c-0.1,0-0.3-0.1-0.3-0.1s-0.2,0.3-0.2,0.4c0.1,0.4,0.2,0.7,0.3,1.1c0.1,0.3,0.2,0.6,0.3,0.9
			s0.3,0.9,0.5,1.3s0,0.6-0.4,0.5s-1.1,0-1.6,0c-0.3-0.1-0.6-0.2-0.9-0.3c-0.1,0-0.1-0.1-0.1-0.2c0-0.7-0.1-1.4-0.3-2
			c-0.1-0.7-0.2-1.4-0.4-2.1s-0.2-1.1-0.3-1.6c-0.1-0.9-0.2-1.8-0.3-2.6 M-34.6,43.7c0,0.4,0.1,0.9,0.2,1.3c0.1,0.2,0.3,0.4,0.5,0.4
			c0.9,0.2,1.8,0.2,2.8,0.4v0c0.2,0,0.5,0,0.7,0c0.1,0,0.2,0.1,0.2,0.2s-0.1,0.1-0.2,0.2l-2,1c-0.3,0.2-0.6,0.4-0.9,0.5
			c-0.3,0.1-0.7,0.1-1,0c-0.7-0.2-1.3-0.4-2-0.7c-0.8-0.3-1.3-1-1.2-1.9c0.1-0.4,0.2-0.7,0.5-1c0.4-0.4,1-0.8,1.5-0.9
			C-34.9,42.9-34.6,43-34.6,43.7 M-59.9,39.2c0.4-0.4,0.8-0.7,1.3-1c0.3-0.2,0.6-0.3,0.9-0.4c0.6-0.2,1.2-0.4,1.7-0.5
			c0.6-0.2,1.1-0.2,1.5-0.3c0.8,0,1.4,0,2.1,0c0.7,0,1.6,0.2,2.4,0.3c0.1,0,0.4,0.2,0.4,0.3c0,0.3,0.2,0.4,0.5,0.6
			c0.1,0,0.2,0.1,0.2,0.1c0.1,0.1,0.1,0.2,0.1,0.3c-0.1,0-0.2,0.1-0.3,0.1c-1.1,0-2.2-0.2-3.3-0.2c-1.1-0.1-2.3,0-3.4,0.3
			c-0.2,0.1-0.4,0.1-0.6,0.1c-1.1,0.1-2.1,0.3-3,0.7l-0.6,0.2c0,0-0.2-0.1-0.1-0.1C-60,39.5-60,39.3-59.9,39.2 M-60.2,42
			c0-0.3,0.3-0.4,0.6-0.2c0.3,0.2,0.6,0.3,0.9,0.4c0.5,0.2,1,0.3,1.5,0.3c1.1,0.1,2.2,0.1,3.3,0.2c0.9,0,1.7-0.1,2.5-0.4
			c1-0.2,1.9-0.7,2.6-1.4c0.1-0.1,0.2-0.1,0.3-0.2c0,0.1,0,0.2,0,0.3c-0.3,1-0.7,1.9-1.2,2.8c-0.4,0.7-1.1,1.3-1.9,1.7
			c-0.4,0.2-0.7,0.4-1.1,0.6c-0.5,0.2-1,0.3-1.5,0.4l-1.5-0.4c-0.3-0.1-0.5-0.2-0.8-0.2c-0.9-0.3-1.8-0.8-2.4-1.5
			c-0.5-0.6-0.9-1.2-1.2-1.8C-60.2,42.4-60.3,42.2-60.2,42 M-61.8,45.2c0.5-0.5,1.2-0.7,1.9-0.6c0.1,0,0.2,0.1,0.3,0.2
			c0.5,0.6,1.1,1,1.7,1.4c0.7,0.4,1.5,0.7,2.2,0.8c0.7,0.1,1.3,0.2,2,0.2c0.7-0.1,1.4-0.3,2-0.8c0.3-0.2,0.6-0.3,0.8-0.5
			c0.5-0.3,0.9-0.7,1.3-1.2c0.1-0.1,0.1-0.2,0.2-0.3c0.1-0.4,0.5-0.6,0.9-0.5c0,0,0,0,0,0c1,0.1,1.9,0.4,2.8,0.8
			c0.4,0.3,0.8,0.6,1.1,0.9c0.1,0.1,0.1,0.3,0.1,0.5c-0.1,0.3-0.3,0.6-0.5,0.8c-0.6,0.5-1.3,0.9-2,1.3c-0.5,0.2-1,0.3-1.5,0.4
			c-1,0.2-2,0.5-3.1,0.7c-0.6,0.1-1.2,0.2-1.9,0.2v0c-0.9,0-1.8,0.1-2.8,0.1c-0.4,0-0.9-0.1-1.3-0.2c-0.3,0-0.6-0.1-0.9-0.2
			c-0.6-0.1-1.2-0.2-1.8-0.3c-0.8-0.2-1.6-0.6-2.1-1.2c-0.2-0.3-0.4-0.6-0.4-1C-62.8,46-62.2,45.7-61.8,45.2 M-5.4,49
			c-0.2,0.6-0.6,1.2-1.1,1.6c-0.7,0.6-1.3,1.2-2.1,1.7c-0.6,0.4-1.3,0.7-1.9,1c-0.5,0.2-0.9,0.3-1.4,0.5s-0.7,0.2-1,0.3
			s-0.9,0.2-1.3,0.4c-0.7,0.2-1.4,0.5-2.1,0.8c-0.4,0.2-0.8,0.4-1.2,0.5s-0.9,0.3-1.3,0.4c-0.3,0.1-0.6,0.2-0.9,0.3
			c-0.7,0.1-1.3,0.2-2,0.3c-0.9,0.2-1.8,0.2-2.7,0.2c-0.9,0-1.8,0-2.6,0s-1.5,0.2-2.2,0.2c-1.1,0-2.3,0.1-3.4,0.1l-1.6,0.1
			c-1.3,0.1-2.6,0.1-4,0.2l-2.3,0.1c-0.5,0-1.1,0-1.6,0c-0.9,0-1.9,0.2-2.8,0.2c-1,0.1-1.9,0.1-2.9,0c-1.1-0.2-2.1-0.2-3.2-0.3
			c-0.7-0.1-1.4-0.1-2.1-0.2s-1.3-0.3-2-0.5c-0.8-0.2-1.7-0.3-2.5-0.6c-1.4-0.4-2.8-0.7-4.1-1.1c-0.7-0.2-1.3-0.5-1.9-0.7
			c-0.3-0.1-0.6-0.2-0.9-0.2c-0.8-0.3-1.5-0.7-2.3-1c-0.5-0.3-1-0.4-1.5-0.6c-0.4-0.1-0.8-0.3-1.2-0.6c-0.4-0.2-0.7-0.4-1-0.7
			c-0.1-0.1-0.2-0.2-0.3-0.2c-0.6-0.3-0.9-1.1-0.7-1.7c0.2-0.5,0.6-1,1-1.4c0.5-0.5,1-0.9,1.5-1.2c0.6-0.3,1.1-0.6,1.8-0.9
			c0.5-0.2,1-0.4,1.6-0.6c0,0,0.1,0,0.1,0l1.8-0.3l1.3-0.2c0.1,0,0.1,0,0.2,0c0,0.1-0.1,0.1-0.1,0.2c-0.1,0.1-0.2,0.2-0.3,0.3
			c-0.2,0.3-0.5,0.5-0.5,0.8c0,0.6,0.1,1.1,0.4,1.6c0.4,0.7,1,1.2,1.7,1.5c0.6,0.2,1.3,0.4,2,0.5c0.9,0.2,1.8,0.3,2.7,0.5
			c0.5,0,1,0,1.5-0.1c0.4,0,0.9,0,1.3,0c0.5,0,1.1,0,1.6-0.1c1-0.2,2-0.4,3-0.6c0.8-0.2,1.6-0.4,2.4-0.6c0.9-0.3,1.6-0.7,2.3-1.4
			c0.3-0.3,0.5-0.6,0.7-0.9c0.2-0.5,0.1-1-0.2-1.5c-0.6-0.8-1.5-1.3-2.5-1.5l-1.6-0.4c-0.1,0-0.2-0.1-0.2-0.1
			c-0.1-0.1-0.1-0.1-0.1-0.2c0,0,0.1-0.1,0.2-0.1l1.9-0.2c0.6,0,1.3-0.1,1.9-0.1c1,0,2.1,0,3.2,0c0.8,0,1.6-0.1,2.4-0.1
			c0.5,0,0.9,0,1.4,0.1h1.2c0.1,0,0.2,0,0.3,0c0,0,0.1,0,0.1,0h-0.1c-0.3,0.1-0.6,0.3-0.9,0.4c-0.1,0.1-0.2,0.2-0.3,0.3
			c-0.2,0.2-0.4,0.4-0.6,0.7c-0.4,0.5-0.5,1.2-0.3,1.9c0.2,0.7,0.7,1.3,1.3,1.7c0.3,0.1,0.5,0.3,0.8,0.4c0.5,0.2,1,0.4,1.4,0.5
			c0.2,0.1,0.2,0.1,0.1,0.2c-0.1,0.1-0.2,0.3-0.3,0.4c-0.5,0.5-0.5,1.3-0.1,1.8c0.3,0.5,0.7,1,1.2,1.2c0.3,0.1,0.5,0.3,0.7,0.4
			c0.5,0.2,0.9,0.4,1.4,0.5c0.7,0.2,1.5,0.3,1.9,0.4c1.1,0,1.9,0,2.6,0c1,0,2.1-0.1,3.1-0.2c0.8-0.1,1.5-0.2,2.3-0.4
			c0.2,0,0.4-0.2,0.7-0.3c1.1-0.3,2.1-0.7,3-1.3c0.7-0.4,1.3-0.9,1.7-1.7c0.4-0.9,0.1-1.9-0.7-2.5c-0.2-0.1-0.3-0.3-0.5-0.5
			c-0.6-0.4-1.4-0.6-2.2-0.6c-0.1,0-0.3,0.1-0.4,0.1c-0.3,0-0.4-0.1-0.3-0.4c0.3-0.5,0.5-1.1,0.8-1.6c0.1-0.2,0.3-0.3,0.5-0.3
			c0,0,0,0,0,0c0.5,0.1,0.9,0.1,1.4,0.1c0.7,0,1.4-0.1,2.1,0c0.5,0,0.9,0.1,1.3,0.3c0.5,0.1,1,0.2,1.5,0.3c0.5,0.1,0.9,0.2,1.4,0.3
			l0.8,0.3c0.4,0.1,0.9,0.2,1.3,0.4c0.6,0.2,1.3,0.5,1.9,0.8c0.3,0.1,0.4,0.4,0.7,0.7c0.5,0.4,0.8,1,0.9,1.7
			C-5.4,48.6-5.4,48.8-5.4,49"/>
		<path class="st1" d="M-54.2,33.9c0,0.3,0,0.4,0.3,0.5c0.2,0.1,0.3,0,0.4-0.2c0,0,0-0.1,0-0.1c0.1-0.6,0.3-1.1,0.7-1.5
			c0.4-0.8,0.7-1.6,0.9-2.4c-0.1-0.5-0.3-1-0.5-1.5c-0.3-0.4-0.4-0.9-0.5-1.4c0-0.2-0.1-0.3-0.4-0.3c-0.2,0-0.4,0.1-0.4,0.3
			c0,0.5,0.1,0.9,0.3,1.3c0.2,0.4,0.4,0.9,0.5,1.3c0,0.8-0.2,1.6-0.7,2.2C-53.8,32.7-54,33.3-54.2,33.9"/>
		<path class="st1" d="M-56,29.3c0.5,0.4,0.7,1.1,0.5,1.7c-0.2,0.5-0.4,1-0.6,1.5c-0.1,0.1-0.1,0.3-0.1,0.4c0,0,0.2,0.1,0.2,0.1
			c0.1-0.1,0.3-0.2,0.4-0.4c0.3-0.6,0.6-1.2,0.8-1.8c0.2-0.4,0.2-0.9,0-1.2c-0.2-0.4-0.5-0.8-0.9-1.1c-0.5-0.3-0.8-0.9-0.8-1.4
			c0-0.3,0-0.7,0-1s-0.1-0.5-0.4-0.4c-0.1,0.1-0.3,0.2-0.3,0.3c-0.3,1,0,2.1,0.7,2.8C-56.4,29-56.2,29.1-56,29.3"/>
		<path class="st3" d="M39.2,21.4c0,0.3,0,0.6,0,0.9c0,0.6-0.1,1.3-0.3,1.9c-0.2,1.7-0.3,3.4-0.4,5.2c0,1.5-0.3,3-0.9,4.4
			c-0.5,1.2-1.3,2.3-2.3,3.2c-0.9,0.7-1.9,1.2-3,1.3c-0.5,0.1-0.9,0.3-1.4,0.3c-0.7,0.1-1.4,0.1-2.1,0.1c-0.9-0.1-1.8-0.3-2.7-0.5
			c-0.2,0-0.4-0.1-0.6-0.2c-0.6-0.2-1.2-0.5-1.8-0.9c-0.6-0.5-1.2-1.1-1.8-1.7c-0.3-0.3-0.5-0.6-0.7-1c-0.4-1-0.8-2-1.2-3
			c-0.2-0.6-0.3-1.2-0.3-1.8c-0.2-1.3-0.3-2.6-0.4-3.9c-0.1-1.1-0.1-2.2-0.1-3.3c0-0.9-0.1-1.9-0.1-2.8c0-1.8,0-3.5,0.1-5.2
			c0.1-0.9,0.2-1.8,0.4-2.6c0.1-0.5,0.2-0.9,0.2-1.4c0.1-0.7,0.1-1.4,0.3-2c0.1-0.5,0.3-1.1,0.5-1.6c0.3-0.8,0.7-1.5,1.1-2.2
			c0.6-1.1,1.4-2,2.4-2.6c0.3-0.3,0.7-0.5,1.1-0.7c0.5-0.2,1.1-0.4,1.7-0.4c0.9-0.1,1.7,0,2.6,0.1c1,0.1,2,0.4,3,0.7
			c0.2,0.1,0.4,0.2,0.6,0.3c0.7,0.4,1.3,0.8,1.9,1.4c0.6,0.7,1.3,1.4,2,2c0.1,0.1,0.1,0.2,0.2,0.3c0.3,0.9,0.6,1.8,0.9,2.7
			c0.2,1.2,0.4,2.4,0.4,3.6c0.2,1.3,0.3,2.7,0.4,4.1C39,17.6,39.1,19.5,39.2,21.4L39.2,21.4 M27.8,19.9c0,1.1,0,2.3,0,3.6
			c0,0.5,0,1.1,0.1,1.6c0.1,1.1,0.3,2.2,0.4,3.3c0,0.6,0.4,1.1,0.9,1.4c0.1,0.1,0.3,0.1,0.4,0c0.5-0.6,0.9-1.2,1.1-2
			c0.2-1.1,0.3-2.1,0.3-3.2c0-1.4,0-2.8-0.1-4.2s-0.1-2.6-0.2-4c-0.1-1.6-0.2-3.1-0.4-4.7c-0.1-0.6-0.2-1.3-0.4-1.9
			c-0.1-0.3-0.3-0.4-0.6-0.3c0,0,0,0-0.1,0c-0.6,0.2-1,0.8-1,1.4c-0.1,0.7-0.2,1.3-0.2,2c0,0.6,0,1.3,0,1.9
			C27.8,16.5,27.7,18.2,27.8,19.9"/>
		<path class="st3" d="M99.6,23.1c0-1.9,0-3.7,0-5.6c0-1.5,0.1-3,0.1-4.5c0-1.8,0-3.6,0-5.4c0-0.7-0.1-1.4-0.1-2.2c0-1,0.1-2,0.2-3
			c0.1-0.4,0.4-0.7,0.8-0.9c1-0.2,1.9-0.3,2.9-0.6c0.9-0.3,1.9-0.4,2.9-0.3c0.4,0.1,0.8,0.4,0.9,0.8c0.1,1.2,0.3,2.5,0.3,3.7
			s-0.1,2.7-0.1,4.1c0,2.2,0,4.3,0,6.5c0,1.9,0.1,3.7,0,5.6c0,1.7,0,3.4-0.1,5.1c-0.1,1.4-0.3,2.8-0.5,4.1c-0.1,0.9-0.4,1.9-0.8,2.7
			c-0.2,0.4-0.4,0.7-0.6,1.1c-0.7,1-1.6,1.9-2.7,2.5c-0.6,0.5-1.3,0.8-2.1,1c-0.2,0-0.4,0.1-0.6,0.1c-1.6,0.1-3.1,0.1-4.7-0.2
			c-0.6-0.1-1.3-0.3-1.9-0.6c-0.6-0.2-1.1-0.4-1.6-0.7c-0.9-0.4-1.6-1.1-2.2-1.9c-0.3-0.5-0.6-1-0.8-1.5c-0.1-0.2-0.1-0.4-0.2-0.6
			c-0.1-0.8-0.2-1.5-0.2-2.3c-0.1-1.7-0.2-3.5-0.2-5.2s-0.1-3.5-0.2-5.3c0-1-0.1-2-0.1-3c0-2.1,0.1-4.3,0.1-6.4c0-1.3,0-2.5,0-3.8
			c0-1-0.1-2-0.3-3.1c-0.1-0.4-0.1-0.8,0-1.2c0.1-0.3,0.4-0.6,0.7-0.7c1.3-0.5,2.7-0.6,4.1-0.5c0.7,0,1.4,0,2.1,0
			c0.6-0.1,1.2,0.4,1.3,1c0,0.1,0,0.2,0,0.2c0.1,1.2,0.1,2.3,0.2,3.5c0,1.8,0,3.6,0,5.4c0,2.3-0.2,4.7-0.2,7c0,1.5,0.1,3,0.2,4.5
			c0,0.6,0.1,1.3,0.1,2c0,1.5,0.2,3.1,0.6,4.6c0.2,0.5,0.5,0.8,1,1c0.2,0.1,0.8-0.2,1-0.5c0.2-0.4,0.4-0.9,0.5-1.4
			c0.1-1.8,0.2-3.7,0.3-5.5L99.6,23.1"/>
		<path class="st3" d="M73.4,10.2c0,1.1,0,2.2,0,3.3c0,0.6,0.1,1.3,0.1,1.9c0,0.2,0,0.2,0.2,0.2c1.2-0.2,2.5-0.2,3.7,0
			c0.4,0.1,0.8,0,1.2-0.1c0.5-0.1,1.6-0.1,1.8,0.3c0.2,0.2,0.3,0.5,0.3,0.8c0.1,1.8,0.1,3.7,0.1,5.5c0,0.6-0.4,1.1-1,1.1
			c-1.9,0.2-3.7,0.4-5.6,0.5c-0.2,0-0.3,0.1-0.3,0.3c0.1,1.2,0.2,2.4,0.2,3.6c0,0.9,0.1,1.7,0.1,2.5c0,0.3,0.1,0.4,0.4,0.4
			c1.1,0,2.1-0.1,3.2-0.1c1.2,0,2.4,0,3.6,0c0.6,0,1,0.4,1,1c0.1,0.8,0.2,1.6,0.3,2.4c0.1,1.3,0.2,2.5,0.3,3.8
			c0,0.4-0.1,0.8-0.5,1.1c-0.1,0-0.1,0.1-0.2,0.1c-1.1,0.2-2.1,0.4-3.2,0.5c-1.1,0-2.1-0.1-3.2-0.2c-0.4,0-0.8,0-1.2,0
			c-1.1,0-2.3-0.1-3.4-0.1c-1,0-1.9,0.1-2.9,0.2c-0.7,0.2-1.5,0.1-2.1-0.3c-0.3-0.2-0.5-0.4-0.6-0.7c-0.2-0.5-0.2-1-0.3-1.6
			c-0.1-1-0.1-1.9-0.1-2.8c0-1.9,0.1-3.8,0.1-5.8c0-1.4,0-2.9-0.1-4.3c0-1,0-2-0.2-3c-0.2-1.1-0.2-2.2-0.2-3.2
			c-0.1-0.9-0.2-1.9-0.3-2.8s0-1.7,0-2.5s-0.2-1.7-0.2-2.5S64.4,8,64.4,7.2c0-1.4-0.1-2.8-0.1-4.2c0.1-0.7,0.5-1.3,1.1-1.6
			c0.7-0.3,1.4-0.5,2.2-0.4c0.6,0,1.3,0,1.9-0.1c0.7-0.2,1.3-0.2,2-0.2c0.7,0,1.4,0.1,2.1,0.2c0.6,0,1.1,0,1.7-0.1
			C76.6,0.4,78,0.2,79.4,0C79.9,0,80.5,0,81.1,0c0.3,0,0.7,0.2,1,0.3c0.4,0.2,0.6,0.5,0.6,0.9c-0.1,0.7-0.1,1.3-0.1,2
			s0.1,1.3,0.1,1.9c0,0.7,0,1.4,0,2.2c0,0.4-0.4,0.8-0.8,0.8c-0.8,0.1-1.6,0.1-2.4,0.2c-1.2,0-2.4,0.2-3.6,0.4
			c-0.7,0.1-1.3,0.2-2,0.1c-0.5,0-0.6,0-0.6,0.5c0,0.3,0,0.6,0,0.8l0,0"/>
		<path class="st3" d="M127.8,39.4c-0.7,0.1-1.5,0.2-2.2,0.2c-0.6,0-1.1-0.4-1.3-1c-0.2-0.6-0.4-1.2-0.6-1.8
			c-0.1-0.4-0.2-0.8-0.2-1.2c-0.1-0.1-0.1-0.3-0.2-0.4l-0.5-1.5c-0.1-0.2-0.2-0.3-0.2-0.5c-0.3-1-0.6-2-0.9-3c0,0,0-0.1,0-0.1
			c0,0-0.1,0.1-0.1,0.1c-0.2,0.8-0.5,1.6-0.7,2.4c-0.2,0.8-0.6,1.8-0.9,2.7c-0.2,0.6-0.3,1.3-0.4,1.9c0,0.2-0.2,0.5-0.3,0.7
			c-0.5,0.6-1.2,0.8-1.9,0.7c-0.3,0-0.7,0-1,0c-1.1,0.1-2.2-0.1-3.3-0.4c-0.6-0.1-1-0.7-1-1.3c0-1,0.2-1.9,0.6-2.8
			c0.3-1.1,0.7-2.2,1.1-3.3c0.3-0.8,0.6-1.6,0.9-2.5c0.4-1.1,0.8-2.2,1.1-3.3c0.3-1,0.6-2.1,0.9-3.2c0.2-1.1,0.4-2.2,0.8-3.3
			c0-0.1,0-0.2,0-0.3c-0.3-0.8-0.6-1.6-0.9-2.4c-0.3-0.7-0.5-1.3-0.7-2c-0.2-0.8-0.5-1.6-0.9-2.3c-0.7-1.5-1.2-3-1.6-4.6
			c-0.3-1.2-0.8-2.4-1.3-3.6c-0.2-0.6-0.3-1.2-0.1-1.8c0.1-0.5,0.7-0.7,1.1-0.7c1.1-0.1,2.3-0.1,3.4,0.1c0.8,0.2,1.5,0.1,2.2,0.3
			c0.3,0,0.5,0.2,0.7,0.5c0.4,0.8,0.7,1.6,1,2.4c0.2,0.6,0.4,1.2,0.6,1.8l1,3c0.1,0.3,0.2,0.5,0.3,0.8c0.2,0.4,0.1,0,0.1,0
			c0.1-0.1,0.1-0.2,0.2-0.4c0.4-1.1,0.9-2.3,1.1-3.4c0.2-0.9,0.6-1.8,1-2.7c0,0,0,0,0-0.1c-0.1-0.6,0.4-0.9,0.6-1.3
			c0.3-0.4,0.8-0.7,1.3-0.6c0.6,0,1.1,0.1,1.6,0.1c1.2,0,2.4,0,3.6-0.1c0.5,0,0.9,0.3,0.9,0.8c0,0,0,0.1,0,0.1
			c0,1.3-0.2,2.6-0.7,3.8c-0.4,1.1-0.9,2.2-1.3,3.3c-0.6,1.5-1.2,3-1.9,4.4c-0.4,0.9-1,1.8-1.4,2.7s-0.8,1.8-1.1,2.6
			c0,0.2,0,0.3,0.1,0.5c0.6,1.4,1.1,2.9,1.3,4.5c0.1,0.5,0.3,1.1,0.5,1.6c0.2,0.8,0.5,1.6,0.7,2.4c0.3,1.1,0.6,2.1,0.9,3.2
			c0.3,0.9,0.6,1.8,1,2.6c0.2,0.4,0.5,0.8,0.7,1.2c0.3,0.6,0.6,1.2,0.8,1.8c0.1,0.4,0.1,0.8,0,1.2c0,0.5-0.4,0.7-0.7,0.9
			c-0.3,0.2-0.6,0.3-0.9,0.3c-0.4,0-0.8,0.1-1.2,0.1L127.8,39.4L127.8,39.4"/>
		<path class="st3" d="M47.2,36.3v-2.3c0-0.4,0-0.8,0-1.1c-0.1-1.5-0.2-3-0.3-4.5c0-1.2,0-2.4,0-3.5s0.1-2.1,0-3.1
			c-0.1-0.5-0.3-1-0.5-1.4l-1-2.9c-0.3-0.8-0.6-1.6-0.8-2.5c-0.4-1.1-0.7-2.2-1.1-3.2c-0.2-0.7-0.6-1.4-0.9-2s-0.5-1.3-0.8-1.9
			s-0.7-1.5-0.9-2.2s-0.5-1.5-0.7-2.3c-0.1-0.3-0.1-0.7-0.1-1c0-0.9,0.4-1.3,1.3-1.3c0.9,0,1.7-0.2,2.6-0.3c1.1-0.3,2.2-0.2,3.3,0.1
			C47.7,1,48,1.2,48.2,1.6c0.5,1,0.8,2,1.2,2.9c0.2,0.5,0.5,1,0.8,1.5c0.2,0.3,0.3,0.7,0.4,1S51,8,51.1,8.4c0.1,0.2,0.1,0.1,0.2,0
			c0.7-0.9,1.1-1.9,1.2-3c0.2-0.9,0.4-1.8,0.6-2.8C53.4,2.3,53.7,2,54.1,2c0.7,0,1.4,0,2.1,0c0.6,0,1.1,0,1.7-0.1
			c0.5-0.1,1.1-0.3,1.6-0.5c0.6-0.2,1.2-0.1,1.8,0.2c0.1,0.1,0.2,0.3,0.2,0.4C61.5,3,61.3,4,60.8,5c-0.4,1-0.8,1.9-1.2,2.9
			c-0.8,2.1-1.6,4.2-2.4,6.3c-0.4,1.1-0.8,2.1-1.2,3.2c-0.1,0.2-0.1,0.4-0.1,0.6c0,2,0,4.1,0,6.1c0,0.9-0.2,1.8-0.3,2.7
			s-0.2,1.9-0.2,2.8c0,0.6-0.1,1.1-0.1,1.7v6.3c0,0.6-0.4,1-1,1c-0.5,0-1,0.2-1.5,0.3c-0.3,0-0.6,0.1-0.9,0.1c-1,0.1-2,0.2-3,0.2
			c-0.6,0.1-1.1-0.2-1.5-0.6c-0.1-0.1-0.2-0.3-0.2-0.5C47.2,37.6,47.2,37,47.2,36.3L47.2,36.3"/>
		<path class="st3" d="M6.8,7.3c0-0.2,0-0.5,0-0.7c0-1.4-0.1-2.9-0.1-4.3c0-0.3,0.1-0.5,0.3-0.7C7,1.6,7,1.6,7,1.5
			c0.2-0.7,0.7-0.7,1.3-0.8c1.6-0.1,3.2-0.2,4.8-0.3c0.3,0,0.5,0.1,0.7,0.3c0.5,0.5,0.7,1.1,0.6,1.8c0.1,0.7,0.1,1.3,0.1,2l0,0
			c0,0.7,0,1.5,0,2.2c0,0.2,0.3,5.5,0.3,6c0,0.9,0,1.8,0,2.6l0,0c0,0.8,0,1.6,0,2.5c0,0.4-0.1,0.8-0.1,1.1c0,0.7,0.1,1.5,0,2.2
			s-0.1,1.7-0.1,2.6s0.1,1.5,0.1,2.2c0.1,1.1,0,2.2-0.3,3.2c-0.2,0.6-0.2,1.2-0.3,1.8c-0.2,0.8-0.5,1.6-0.7,2.4
			c-0.4,1.1-1.1,2.1-2,2.8c-0.9,0.8-1.9,1.5-3,2c-1.2,0.6-2.6,1-4,1c-1,0-1.9,0-2.9,0c-0.8,0-1.1-0.4-1.1-1.2c0-0.5,0-1,0-1.5
			c0-0.7-0.1-1.3-0.1-2c0-0.8,0-1.6,0-2.3c0.1-0.3,0.3-0.6,0.6-0.8C1.3,31.1,1.7,31,2.1,31c0.8-0.1,1.5-0.4,2.2-0.8
			c0.4-0.2,0.7-0.4,1-0.7c0.5-0.4,0.9-1,1-1.7c0.1-0.4,0.3-0.7,0.3-1c0.1-0.7,0.2-1.5,0.3-2.2c0.1-0.9,0.1-1.8,0.1-2.7
			c0-1.8-0.1-3.6-0.1-5.5c0-0.7,0-1.4,0-2.1c0-1.1-0.1-2.1-0.1-3.2S6.7,7.5,6.8,7.3"/>
		<path class="st4" d="M109.2,45.3c1,0,2,0.5,2.5,1.3c0.2,0.2,0.4,0.3,0.6,0.3c1-0.1,2,0,3,0.2c0.3,0.1,0.5,0.3,0.7,0.5
			c0,0.2-0.1,0.4-0.2,0.5c-0.7,0.2-1.4,0.2-2.1,0.1l-0.2-0.1c-0.8-0.2-1,0-0.9,0.8c0,0.2,0.1,0.4,0.1,0.7c0,0.9,0.3,1.2,1.2,1.2
			c0.4,0,0.7-0.1,1.1,0c0.3,0,0.5,0.1,0.7,0.2c0.2,0.2,0.3,0.4,0.2,0.7c-0.1,0.2-0.4,0.3-0.6,0.3c-0.8,0-1.6-0.1-2.3-0.2
			c-0.3,0-0.5,0-0.5,0.3c-0.2,0.9-0.6,1.8-1.1,2.6c-0.2,0.2,0,0.3,0.2,0.3c0.8,0.1,1.7,0.1,2.5-0.1c0.4-0.1,0.8-0.1,1.1,0
			c0.1,0,0.4,0.3,0.3,0.4c0,0.2-0.1,0.4-0.3,0.6c-0.2,0.1-0.4,0.2-0.6,0.2c-1.3,0.2-2.6,0.2-3.9-0.1c-0.2,0-0.4,0-0.6,0
			c-0.6,0.1-1.1,0.2-1.7,0.2c-1.1-0.2-2-1.1-2.3-2.2c-0.7-1.9-0.9-4-0.4-6c0.2-0.9,0.7-1.7,1.4-2.3
			C107.7,45.5,108.4,45.3,109.2,45.3 M106.8,52.3c0.1,0.9,0.4,1.7,1,2.4c0.7,0.6,1.1,0.8,1.8,0.3c0.2-0.2,0.3-0.4,0.5-0.6
			c0.9-0.8,1.4-2,1.3-3.2c0.1-0.8,0-1.7-0.1-2.5c-0.1-0.7-0.6-1.4-1.2-1.8c-1-0.5-2.1-0.2-2.8,0.7c-0.5,0.9-0.7,2-0.6,3
			C106.7,51.1,106.7,51.6,106.8,52.3"/>
		<path class="st4" d="M16.4,53.3c0-0.8,0-1.9,0-3.1c0-0.6-0.1-1.2-0.1-1.9c0-0.1,0-0.3-0.1-0.4c-0.3-0.4,0-0.6,0.2-0.7
			c0.3-0.1,0.6-0.2,0.9-0.2c0.1,0,0.3,0,0.4,0c0.8-0.2,1.6,0.1,2.2,0.6c0.8,0.6,1.2,1.6,1.1,2.6c-0.1,0.6-0.4,1-0.9,1.2
			c-0.6,0.2-0.7,0.4-0.2,1c0.2,0.3,0.4,0.6,0.7,0.8c0.6,0.7,1.1,1.3,1.7,2c0.1,0.1,0.2,0.2,0.3,0.2c0.3,0.1,0.5,0.4,0.5,0.7
			c0,0,0,0.1,0,0.1c-0.2,0.4-0.7,0.5-1.1,0.4c-0.6-0.5-1.2-1-1.7-1.6c-0.7-0.8-1.2-1.7-1.8-2.5c-0.1-0.2-0.3-0.2-0.5-0.3
			c-0.1,0.3-0.2,0.6-0.2,0.9c0.2,0.9,0.4,1.8,0.5,2.8c0.1,0.4-0.2,0.8-0.6,0.9c0,0,0,0,0,0c-0.4,0-0.7-0.3-0.8-0.7
			C16.7,55.4,16.6,54.6,16.4,53.3 M17.7,50c0,1,0,1,0.8,0.9c0.2-0.1,0.5-0.1,0.7-0.2c0.4-0.2,0.6-0.6,0.6-1c-0.3-0.8-1-1.4-1.9-1.4
			c-0.3,0-0.5,0.1-0.4,0.5S17.7,49.7,17.7,50"/>
		<path class="st4" d="M131.6,49c0.1,1.2-0.7,2.3-1.8,2.6c-0.1,0.1-0.2,0.2-0.2,0.4c0.2,0.3,0.4,0.6,0.6,0.9c0.6,0.7,1.3,1.4,2,2.2
			c0.1,0.1,0.1,0.1,0.2,0.2c0.3,0.2,0.6,0.4,0.4,0.7s-0.4,0.6-0.6,0.6c-0.4,0-0.7-0.1-1-0.3c-0.2-0.2-0.3-0.6-0.5-0.8
			s-0.4-0.4-0.5-0.6c-0.6-0.7-1.2-1.5-1.8-2.2c0-0.1-0.1-0.1-0.2-0.2c0,0.1-0.1,0.1-0.1,0.2c0.1,0.6,0.1,1.2,0.2,1.8
			c0.1,0.4,0.1,0.9,0.1,1.3c0,0.3-0.3,0.5-0.6,0.5c0,0-0.1,0-0.1,0c-0.3,0-0.6,0-0.6-0.5c0-0.8-0.1-1.6-0.1-2.4c0-1-0.1-2-0.1-3
			c0-1.3,0-2.6-0.1-3.9c0-0.4,0.5-0.8,0.8-0.6c0.5,0.4,1.1,0.2,1.6,0.4c0.7,0.2,1.4,0.7,1.7,1.3C131.2,48.3,131.4,48.8,131.6,49
			 M128.2,49.7c0,0.2,0,0.3-0.1,0.5c0,0.6,0,0.7,0.6,0.5c0.9-0.2,1.4-0.7,1.4-1.5c-0.1-1-0.7-1.8-1.7-2c-0.1,0-0.2,0.1-0.2,0.2
			C128.3,48.3,128.3,49,128.2,49.7"/>
		<path class="st4" d="M42.7,56.4c0.2-0.7,0.4-1.2,0.6-1.8c0.8-2.1,1.5-4.2,2.3-6.3c0.2-0.4,0.4-0.8,0.7-1.1
			c0.2-0.3,0.6-0.4,0.9-0.2c0.1,0.1,0.2,0.2,0.3,0.4c0.3,0.6,0.5,1.2,0.8,1.8c0.2,0.9,0.5,1.7,0.9,2.5c0.3,0.6,0.4,1.3,0.4,1.9
			c0.2,0.8,0.4,1.5,0.7,2.2c0.1,0.2,0.1,0.4,0.1,0.6c0,0.1-0.1,0.2-0.2,0.2c-0.5,0.1-1-0.1-1.2-0.6c-0.2-0.7-0.5-1.5-0.7-2.2
			c-0.1-0.2-0.2-0.3-0.4-0.3c-0.9,0-1.8,0.4-2.7,0c-0.1,0-0.2,0-0.2,0.1c-0.2,0.4-0.3,0.8-0.5,1.2c-0.2,0.6-0.4,1.1-0.7,1.6
			c-0.1,0.1-0.4,0.2-0.7,0.2S42.8,56.5,42.7,56.4 M47.8,52c-0.3-0.8-0.6-1.6-0.9-2.4c-0.1-0.1-0.2-0.2-0.3-0.3
			c-0.1,0.1-0.2,0.2-0.2,0.4c-0.3,0.8-0.7,1.6-1,2.4c-0.2,0.4-0.1,0.6,0.4,0.5s1.1-0.1,1.6-0.2C47.8,52.5,47.9,52.3,47.8,52"/>
		<path class="st4" d="M58.5,47.8c-0.2,0.3-0.3,0.7-0.4,1.1c-0.4,1.2-0.7,2.3-1.1,3.5c-0.2,0.8-0.4,1.6-0.6,2.3
			c-0.1,0.2-0.2,0.3-0.3,0.5C56,55.3,56,55.5,56,55.6c0.1,0.4-0.1,1.2-0.4,1.1c-0.4,0-0.8-0.2-1.1-0.5c-0.4-0.7-0.7-1.5-0.9-2.3
			c-0.1-0.2-0.1-0.4-0.2-0.6c-0.5-1-1.1-2.1-1.6-3.1c-0.4-0.8-0.9-1.5-1.3-2.3c-0.1-0.2-0.1-0.6,0-0.6c0.3-0.1,0.5-0.1,0.8-0.1
			c0.1,0,0.1,0.1,0.2,0.2c0.4,0.7,0.9,1.5,1.3,2.2c0.3,0.5,0.6,1.1,0.8,1.6s0.6,1.4,1,2.1c0.1,0.2,0.2,0.4,0.4,0.5
			c0,0,0.3-0.1,0.3-0.1c0.2-0.5,0.3-1,0.5-1.5c0.3-1,0.6-2,0.9-3.1c0.1-0.5,0.3-1.1,0.6-1.6c0.2-0.3,0.5-0.5,0.9-0.5
			C58.4,47,58.6,47.3,58.5,47.8"/>
		<path class="st4" d="M119,48.3c0.2,1.4,0.4,2.9,0.6,4.4c0.1,0.6,0.4,1.3,0.7,1.9c0.6,1.3,1.7,0.9,2.2,0c0.5-1,0.9-2.1,1-3.3
			c0.1-0.9,0.1-1.7,0-2.6c0-0.3,0.1-0.7,0.1-1.1c0-0.6,1-0.8,1.4-0.4c0.1,0.1,0.2,0.3,0.1,0.4c-0.1,1-0.2,2-0.2,3
			c-0.1,1.3-0.4,2.5-1,3.7l-0.7,1.3c-0.7,1-2.1,1.2-3.1,0.5c-0.3-0.2-0.5-0.5-0.7-0.8c-0.5-1-0.8-2.1-0.9-3.3
			c-0.1-1-0.3-1.9-0.4-2.9c-0.1-0.5-0.1-1-0.1-1.5c0-0.2,0.3-0.5,0.4-0.4c0.2,0.1,0.4,0.3,0.6,0.5C119.1,47.9,119,48.1,119,48.3"/>
		<path class="st4" d="M61.9,49.1c0,0.6,0,1.2,0.1,1.7c0,0.1,0.1,0.2,0.3,0.2c0.2,0,0.4,0,0.7-0.1c0.6-0.3,1.4-0.3,2,0
			c0.2,0.1,0.3,0.3,0.4,0.5c-0.1,0.1-0.3,0.2-0.4,0.3c-0.6,0.1-1.3,0.2-2,0.2c-0.1,0-0.3,0-0.4,0C62,51.8,62,52,62,52.3
			c0,0.9,0.1,1.8,0.2,2.7c0,0.4,0.1,0.6,0.7,0.5c0.5,0,1,0,1.5,0.1c0.2,0,0.3,0,0.5,0c0.4-0.2,0.5,0.3,0.8,0.4
			c-0.1,0.2-0.2,0.3-0.4,0.5c-0.8,0.5-1.8,0.6-2.6,0.2c-0.2-0.1-0.4-0.1-0.6-0.1c-0.3,0.1-0.7-0.1-0.8-0.4c0,0,0-0.1,0-0.1
			c-0.2-0.7-0.3-1.3-0.3-2c-0.1-0.9,0-1.8-0.1-2.7c0-0.5,0-1,0-1.4s-0.1-1.2-0.1-1.8s0.4-0.8,0.9-1.1c0.2-0.1,0.4-0.2,0.6-0.2
			c1.1-0.2,2.3-0.1,3.4,0.2c0.2,0.1,0.3,0.2,0.4,0.3c0.1,0.1,0.1,0.3,0.1,0.4c-0.1,0.1-0.2,0.2-0.4,0.3C64.8,48,64,48,63.1,48
			c-0.1,0-0.2,0-0.4-0.1c-0.6-0.1-0.9,0.2-0.9,0.7V49.1L61.9,49.1"/>
		<path class="st4" d="M11.8,49.1c-0.7,0-1.4,0-2.1,0S9,49.4,9.2,50c0.1,0.4,0.2,0.8,0.3,1.2s0.4,0.6,0.9,0.5
			c0.4-0.1,0.8-0.2,1.3-0.2c0.2,0,0.5,0.2,0.5,0.3c0,0.2-0.1,0.5-0.3,0.6c-0.5,0.2-1,0.4-1.5,0.5c-0.7,0.1-0.9,0.3-0.8,1
			c0.1,0.3,0.1,0.7,0.2,1c0.1,0.6,0.8,1.1,1.4,0.9c0.1,0,0.1,0,0.2-0.1c0.5-0.1,0.9-0.2,1.4-0.2c0.2,0,0.5,0.1,0.5,0.2
			c0,0.2,0,0.5-0.2,0.7c-1.3,1.1-3.2,1-4.4-0.2c-0.3-0.5-0.4-1.1-0.4-1.6c0-1.5-0.1-3.1-0.4-4.6c-0.1-0.3-0.2-0.6-0.3-0.9
			s0-0.7,0.4-0.8c1.2-0.1,2.3-0.3,3.4-0.4c0.4,0,0.7,0.2,1,0.4c0.1,0.1,0.1,0.4,0.1,0.6s-0.3,0.2-0.5,0.2
			C12.1,49.2,12,49.2,11.8,49.1L11.8,49.1z"/>
		<path class="st4" d="M30.7,49c-0.1,0.5-0.2,0.9-0.3,1.4c-0.4,1.2-0.8,2.3-1.2,3.5c-0.2,0.6-0.3,1.3-0.5,1.9
			c-0.2,0.6-0.5,1.1-0.8,1.6c-0.1,0.2-0.3,0.2-0.6,0.1c-1.2-0.7-1.5-2-2-3.1c-0.3-0.8-0.6-1.6-1-2.4c-0.4-1-0.8-2-1.1-3
			c0-0.2,0.1-0.5,0.3-0.6c0.2,0,0.6,0.1,0.7,0.3c0.7,1.6,1.4,3.2,2,4.7c0.2,0.5,0.4,1.1,0.6,1.6c0.1,0.1,0.2,0.2,0.3,0.3
			c0.1-0.1,0.2-0.2,0.3-0.3c0.3-0.9,0.7-1.8,0.9-2.7s0.4-1.7,0.6-2.5c0.1-0.6,0.6-1,1.1-1.2C30.5,48.4,30.7,48.6,30.7,49"/>
		<path class="st4" d="M89.2,49.6c0,0.4,0,0.9,0,1.3s0.3,0.4,0.6,0.4c0.6,0,1.2,0,1.7,0c0.2,0,0.5,0.2,0.6,0.3
			c0.2,0.3-0.1,0.7-0.4,0.7c-0.7,0-1.4,0-2.1,0c-0.1,0-0.4,0.2-0.4,0.3c-0.1,0.8-0.2,1.6-0.2,2.5c0,0.3,0.1,0.4,0.4,0.3
			c0.8-0.1,1.6-0.1,2.3-0.1c0.4,0,0.6,0.3,0.6,0.6s-0.2,0.4-0.5,0.4c-0.7,0.1-1.3,0.3-2,0.4c-0.5,0-1,0-1.5-0.2
			c-0.2-0.1-0.3-0.5-0.4-0.8c0-0.3,0-0.6,0-0.9c0-0.5,0.1-1,0.1-1.5s0-1,0-1.6c0.1-0.3,0.1-0.7,0.1-1c-0.2-1.2-0.2-2.4-0.1-3.6
			c0-0.2,0.4-0.6,0.6-0.6c0.6,0.1,1.3,0.2,1.9,0.3c0.2,0,0.5,0.1,0.7,0.1c0.4,0,0.7,0.2,0.7,0.6s-0.3,0.7-0.7,0.6
			c-0.4,0-0.8-0.1-1.2-0.2c-0.7-0.2-0.8-0.2-0.9,0.5C89.2,49,89.2,49.3,89.2,49.6L89.2,49.6"/>
		<path class="st4" d="M70.8,57.1c-1,0-1.9-0.4-2.6-1c-0.1-0.1-0.2-0.3-0.3-0.4c-0.5-1.4-0.6-3-0.3-4.5c0.1-0.7,0.2-1.4,0.4-2.1
			c0.1-0.4,0.2-0.7,0.4-1c0.8-1,2.2-1.1,3.1-0.4c0.2,0.2,0.6,0.6,0.2,0.9s-0.6,0.2-0.9,0c-0.8-0.6-1.6-0.3-1.8,0.7
			c-0.2,0.8-0.3,1.7-0.4,2.5c0,0.7,0,1.5,0.1,2.2c0.1,0.5,0.3,1,0.6,1.4c0.1,0.2,0.4,0.2,0.7,0.3c0.3,0,0.7,0,1-0.1
			c0.8-0.1,1-0.7,1.3-1.2c0.2-0.3,0.5-0.7,0.8-0.9c0.2-0.1,0.5-0.1,0.6,0.1c0.1,0.1,0.1,0.2,0.1,0.3c-0.3,1-0.5,2.1-1.6,2.7
			c-0.5,0.2-1,0.4-1.4,0.6C70.8,57.2,70.8,57.2,70.8,57.1"/>
		<path class="st4" d="M4,54.7c0-1.1-0.7-2.1-1.8-2.5c-1.1-0.3-1.7-1.4-1.3-2.5c0-0.1,0.1-0.2,0.1-0.3c0.1-0.7,0.5-1.3,1-1.8
			c0.7-0.4,1.7-0.4,2.4,0.1c0.1,0.1,0.1,0.2,0.1,0.3c-0.1,0.1-0.2,0.2-0.3,0.2c-0.1,0-0.2,0-0.4,0c-0.8-0.1-1.6,0.4-1.7,1.2
			c0,0.2,0,0.4,0,0.6c0,0.5,0.3,0.9,0.8,1c1.2,0.4,2,1.4,2.3,2.6c0.5,1.2,0,2.6-1.1,3.2c-0.6,0.4-1.3,0.7-2,0.8
			c-0.6,0.1-1.2-0.1-1.7-0.5C0.2,57.3,0.1,57,0,56.7c0.3-0.1,0.5-0.3,0.8-0.2c1.2,0.3,2-0.4,2.9-0.9C3.9,55.5,3.9,55,4,54.7"/>
		<path class="st4" d="M98.6,51.9c0.1,1.1,0.3,2.2,0.8,3.2c0.3,0.6,1.1,0.9,1.7,0.6c0.7-0.3,1.4-0.7,2.1-1.1
			c0.1-0.1,0.3-0.2,0.4-0.2c0.1-0.1,0.3-0.1,0.5,0c0.1,0.1,0.1,0.3,0,0.4c-0.1,0.4-0.3,0.7-0.6,1c-1.2,1.4-3.2,1.6-4.7,0.5
			c0,0-0.1-0.1-0.1-0.1c-0.5-0.5-0.9-1.2-0.9-1.9c-0.1-0.8-0.3-1.5-0.4-2.2c0-0.6,0.1-1.2,0.2-1.8c0.2-0.8,0.5-1.5,0.9-2.2
			c0.3-0.5,0.7-0.8,1.2-1.1c0.5-0.1,1-0.2,1.5-0.2c0.4-0.1,0.8,0,1.1,0.2c0.3,0.3,0.4,0.5,0.2,0.9s-0.5,0.1-0.8,0
			c-0.4-0.1-0.7-0.1-1.1-0.2c-1,0-1.2,0.9-1.5,1.6C98.8,50.2,98.6,51,98.6,51.9"/>
		<path class="st4" d="M85.2,55.7c0,0.6-0.4,1.1-1,1.1c-0.1,0-0.2,0-0.3,0c-0.7-0.1-1.3-0.1-2-0.1c-0.6,0-0.9-0.1-1-0.7
			c-0.1-0.4-0.1-0.7,0-1.1c0.1-1,0.1-2,0.2-3.1c0-0.6,0.1-1.1,0.1-1.7c0.1-0.6,0.1-1.2-0.1-1.8c-0.3-0.5,0-1.2,0.5-1.4
			c0.1,0,0.1-0.1,0.2-0.1c0.2-0.1,0.5,0,0.6,0.2c0,0.1,0,0.1,0,0.2c0,1,0.1,2.1,0,3.2s-0.2,2.2-0.3,3.2c-0.1,0.5,0,1,0.2,1.4
			c0.1,0.2,0.7,0.3,1.1,0.3s0.9-0.2,1.4-0.2C85,55.2,85.4,55.2,85.2,55.7"/>
		<path class="st4" d="M34.4,56.2c-0.1-1.2-0.2-2.4-0.3-3.6c0-1,0-2,0-3c0-0.2,0-0.4,0-0.7c0-0.3,0.2-0.6,0.5-0.7c0,0,0,0,0,0
			c0.4,0,0.7,0.4,0.8,0.8c0,0.8-0.1,1.7-0.2,2.5c0,0.2,0.1,0.4,0.1,0.6c0.1,1,0.2,2,0.3,3.1c0.1,0.4,0.1,0.9,0,1.3
			c-0.1,0.3-0.4,0.5-0.6,0.7c-0.2-0.2-0.4-0.4-0.6-0.6C34.4,56.5,34.4,56.3,34.4,56.2L34.4,56.2"/>
		<path class="st4" d="M34.7,45.2c-0.4,0-0.7-0.3-0.8-0.7c0,0,0-0.1,0-0.1c0.1-0.4,0.5-0.6,0.9-0.6c0.3,0.1,0.6,0.3,0.7,0.6
			C35.7,44.7,35.1,45.2,34.7,45.2"/>
		<path class="st0" d="M-59.9,39.2c0.4-0.4,0.8-0.7,1.3-1c0.3-0.2,0.6-0.3,0.9-0.4c0.6-0.2,1.2-0.4,1.7-0.5c0.6-0.2,1.1-0.2,1.5-0.3
			c0.8,0,1.4,0,2.1,0c0.7,0,1.6,0.2,2.4,0.3c0.1,0,0.4,0.2,0.4,0.3c0,0.3,0.2,0.4,0.5,0.6c0.1,0,0.2,0.1,0.2,0.1
			c0.1,0.1,0.1,0.2,0.1,0.3c-0.1,0-0.2,0.1-0.3,0.1c-1.1,0-2.2-0.2-3.3-0.2c-1.1-0.1-2.3,0-3.4,0.3c-0.2,0.1-0.4,0.1-0.6,0.1
			c-1.1,0.1-2.1,0.3-3,0.7l-0.6,0.2c0,0-0.2-0.1-0.1-0.1C-60,39.5-60,39.3-59.9,39.2"/>
		<path class="st0" d="M-60.2,42c0-0.3,0.3-0.4,0.6-0.2c0.3,0.2,0.6,0.3,0.9,0.4c0.5,0.2,1,0.3,1.5,0.3c1.1,0.1,2.2,0.1,3.3,0.2
			c0.9,0,1.7-0.1,2.5-0.4c1-0.2,1.9-0.7,2.6-1.4c0.1-0.1,0.2-0.1,0.3-0.2c0,0.1,0,0.2,0,0.3c-0.3,1-0.7,1.9-1.2,2.8
			c-0.4,0.7-1.1,1.3-1.9,1.7c-0.4,0.2-0.7,0.4-1.1,0.6c-0.5,0.2-1,0.3-1.5,0.4l-1.5-0.4c-0.3-0.1-0.5-0.2-0.8-0.2
			c-0.9-0.3-1.8-0.8-2.4-1.5c-0.5-0.6-0.9-1.2-1.2-1.8C-60.2,42.4-60.3,42.2-60.2,42"/>
		<path class="st0" d="M-61.8,45.2c0.5-0.5,1.2-0.7,1.9-0.6c0.1,0,0.2,0.1,0.3,0.2c0.5,0.6,1.1,1,1.7,1.4c0.7,0.4,1.5,0.7,2.2,0.8
			c0.7,0.1,1.3,0.2,2,0.2c0.7-0.1,1.4-0.3,2-0.8c0.3-0.2,0.6-0.3,0.8-0.5c0.5-0.3,0.9-0.7,1.3-1.2c0.1-0.1,0.1-0.2,0.2-0.3
			c0.1-0.4,0.5-0.6,0.9-0.5c0,0,0,0,0,0c1,0.1,1.9,0.4,2.8,0.8c0.4,0.3,0.8,0.6,1.1,0.9c0.1,0.1,0.1,0.3,0.1,0.5
			c-0.1,0.3-0.3,0.6-0.5,0.8c-0.6,0.5-1.3,0.9-2,1.3c-0.5,0.2-1,0.3-1.5,0.4c-1,0.2-2,0.5-3.1,0.7c-0.6,0.1-1.2,0.2-1.9,0.2v0
			c-0.9,0-1.8,0.1-2.8,0.1c-0.4,0-0.9-0.1-1.3-0.2c-0.3,0-0.6-0.1-0.9-0.2c-0.6-0.1-1.2-0.2-1.8-0.3c-0.8-0.2-1.6-0.6-2.1-1.2
			c-0.2-0.3-0.4-0.6-0.4-1C-62.8,46-62.2,45.7-61.8,45.2"/>
		<path class="st0" d="M-35.6,29c0-0.8,0.5-1.4,1.2-1.7c1.3-0.6,2.8-0.9,4.2-0.9c1.1,0,2.1,0.1,3.1,0.4c0.3,0.2,0.6,0.4,0.8,0.8
			c0.1,0.2-0.1,0.2-0.2,0.1c-0.4-0.1-0.8-0.1-1.2-0.2c-1.2-0.3-2.5-0.3-3.7,0c-0.9,0.2-1.7,0.5-2.6,0.8c-0.5,0.2-0.9,0.5-1.3,0.8
			C-35.5,29.3-35.6,29.2-35.6,29"/>
		<path class="st0" d="M-35,35.8c-0.1-0.4-0.1-0.8-0.1-1.2c0-0.6-0.1-1.1-0.2-1.7c-0.1-0.7-0.1-1.4-0.2-2c0-0.2,0.1-0.3,0.3-0.1
			c1,0.5,2.1,0.8,3.2,0.8c1,0.1,2.1-0.1,3-0.4c0.8-0.3,1.6-0.4,2.5-0.6c0.2,0,0.3-0.1,0.5-0.2c0.3-0.1,0.5,0,0.4,0.4
			c-0.1,0.6-0.2,1.1-0.3,1.7c-0.1,0.6-0.1,1.1-0.2,1.7c0,0.2-0.1,0.4-0.3,0.5c-0.5,0.3-0.7,1-0.5,1.6c0.1,0.3,0.2,0.5-0.3,0.6
			c-1.1,0.3-2,0.8-2.9,1.5c-0.1,0-0.1,0.1-0.2,0.2c-0.2,0.6-0.7,1.2-0.6,1.9c0,0.3-0.2,0.5-0.5,0.3c-0.1,0-0.3-0.1-0.3-0.1
			s-0.2,0.3-0.2,0.4c0.1,0.3,0.2,0.7,0.3,1c0.1,0.3,0.2,0.6,0.3,0.9s0.3,0.9,0.5,1.3s0,0.6-0.4,0.5s-1.1,0-1.6,0
			c-0.3-0.1-0.6-0.2-0.9-0.3c-0.1,0-0.1-0.1-0.1-0.2c0-0.7-0.1-1.4-0.3-2c-0.1-0.7-0.2-1.4-0.4-2.1s-0.2-1.1-0.3-1.6
			C-34.8,37.7-34.9,36.8-35,35.8"/>
		<path class="st0" d="M-24.6,37.3c0.6-0.1,1.1,0,1.7,0.3c0.3,0.1,0.6,0.2,0.9,0.3c0.7,0.3,1.2,0.8,1.4,1.5c0,0.1,0.1,0.2,0.1,0.2
			c0.2,0.3,0.1,0.4-0.2,0.5c-0.2,0.1-0.3,0.2-0.4,0.3c-0.2,0.2-0.5,0.5-0.7,0.8s-0.4,0.2-0.5-0.1c0-0.1-0.1-0.2-0.1-0.2
			c-0.3-0.5-0.7-0.6-1-0.1s-0.5,0.5-0.8-0.1c-0.1-0.1-0.2-0.2-0.3-0.3c-0.4-0.2-0.4-0.1-0.7,0.3c-0.1,0.2-0.3,0.5-0.5,0.6
			c-0.2,0.2-0.3-0.1-0.5-0.3c-0.1-0.2-0.3-0.4-0.4-0.6c-0.1-0.2-0.5-0.3-0.7-0.1c-0.1,0-0.1,0.1-0.1,0.1c-0.1,0.2-0.3,0.4-0.4,0.5
			s-0.3,0.2-0.4,0s-0.3-0.4-0.5-0.6c-0.1-0.2-0.4-0.3-0.6-0.2c-0.1,0-0.2,0.1-0.2,0.2c0,0.1-0.1,0.2-0.1,0.2c0,0.1-0.1,0.1-0.2,0.2
			c0-0.1,0-0.1,0-0.2c-0.1-0.8,0.3-1.6,1-2c0.7-0.5,1.5-0.8,2.3-0.9c0.3-0.1,0.7-0.2,1-0.3c0,0,0,0.1,0,0.1l1.1-0.1"/>
		<path class="st0" d="M-34.6,43.6c0,0.5,0.1,0.9,0.2,1.4c0.1,0.2,0.3,0.4,0.5,0.4c0.9,0.2,1.8,0.2,2.8,0.4v0c0.2,0,0.5,0,0.7,0
			c0.1,0,0.2,0.1,0.2,0.2s-0.1,0.1-0.2,0.2l-2,1c-0.3,0.2-0.6,0.4-0.9,0.5c-0.3,0.1-0.7,0.1-1,0c-0.7-0.2-1.3-0.4-2-0.7
			c-0.8-0.3-1.3-1-1.2-1.9c0.1-0.4,0.2-0.7,0.5-1c0.4-0.4,1-0.8,1.5-0.9C-34.9,42.9-34.6,43-34.6,43.6"/>
		<path class="st0" d="M-29.7,46.8c0.2,0.5,0.4,0.9,0.6,1.4c0,0,0,0.1,0,0.1c0,0.2-0.1,0.4,0,0.4c0.2,0.2,0.4,0.3,0.7,0.4
			c0.4,0.1,0.9,0.2,1.4,0.2c0.3,0,0.6,0,1,0l0,0l1,0.1c0,0,0.1,0,0.1,0c0.7-0.4,1.5-0.1,2.2-0.3l1.2-0.4c0.1,0,0.2,0,0.2-0.1
			c0.2,0,0.3-0.1,0.3-0.3c0.2-0.6,0.5-1.2,0.7-1.8c0,0,0.1-0.1,0.1-0.1c0.4,0.3,0.8,0.1,1.2,0c0.6-0.1,1.2,0.1,1.6,0.5
			c0.2,0.1,0.4,0.2,0.5,0.4c0.6,0.7,0.4,1.8-0.3,2.3c-0.1,0.1-0.2,0.1-0.3,0.2c-1,0.8-2.1,1.3-3.4,1.6c-0.7,0.2-1.4,0.4-2.2,0.6
			c-0.2,0.1-0.5,0.1-0.7,0.1c-0.9,0-1.8,0-2.7,0.1c-0.5,0-0.9,0.1-1.4,0.2c-0.1,0-0.1,0-0.2,0c-1.1-0.2-2.3-0.2-3.4-0.5
			c-0.9-0.2-1.7-0.6-2.4-1.2c-0.3-0.2-0.5-0.5-0.6-0.9c0-0.3,0-0.5,0.2-0.8c0.6-0.8,1.4-1.4,2.3-1.8c0.4-0.2,0.8-0.4,1.1-0.5
			c0.2-0.1,0.4-0.2,0.7-0.2C-29.9,46.6-29.8,46.8-29.7,46.8"/>
		<path class="st0" d="M-27,46.2c0.1,0.8,0.3,1.5,0.6,2.2c0,0.1,0,0.2,0,0.3c-0.1-0.1-0.3-0.1-0.3-0.2c-0.2-0.4-0.4-0.9-0.6-1.3
			c-0.5-1.3-1-2.7-1.5-4l-0.4-1c0,0-0.1-0.1-0.1-0.1s0.1-0.3,0.1-0.5c0.1,0.1,0.2,0.2,0.3,0.3l0.8,0.5c0.1,0.1,0.2,0.1,0.3,0.2
			c0.2,0.7,0.4,1.5,0.6,2.2h-0.1C-27.2,45.2-27.1,45.7-27,46.2"/>
		<path class="st0" d="M-28.7,45.8c0.1,0.2,0.2,0.4,0.4,0.7c0,0.1,0.1,0.2,0.1,0.3h-0.1l0.4,1.1c0.1,0.1,0.1,0.2,0.1,0.4
			c0,0.1,0,0.2,0,0.3c-0.1-0.1-0.3-0.1-0.3-0.2c-0.6-0.9-1.1-1.9-1.5-3c-0.2-0.6-0.5-1.2-0.8-1.9c-0.2-0.4-0.3-0.9-0.4-1.3
			c0-0.1,0-0.2,0-0.2l0.2,0.1l0.5,0.3c0,0,0.1,0,0.1,0l0.4,1.3c0,0.1,0.1,0.3,0.1,0.4C-29.2,44.6-29,45.2-28.7,45.8"/>
		<path class="st0" d="M-24.8,42.5c-0.1,1-0.2,2-0.3,3c-0.1,0.8-0.1,1.5-0.2,2.3c0,0.1,0,0.2-0.1,0.3c0,0-0.1,0.1-0.1,0.1l0-0.1
			c-0.3-0.5-0.5-1.2-0.6-1.8c-0.2-1.1-0.5-2.2-0.7-3.3c-0.1-0.3-0.2-0.6-0.3-1c0-0.1,0-0.2,0-0.4c0.1,0,0.2,0.1,0.3,0.2
			c0.1,0.1,0.2,0.3,0.3,0.4c0.3,0.3,0.8,0.4,1.2,0.1c0.1-0.1,0.1-0.1,0.2-0.2c0.1-0.1,0.2-0.2,0.3-0.3c0,0.1,0.1,0.3,0.1,0.4
			C-24.8,42.2-24.8,42.4-24.8,42.5L-24.8,42.5"/>
		<path class="st0" d="M-24.2,43.5c0-0.3,0-0.6,0.1-0.9c0-0.1,0.1-0.1,0.2-0.2c0.3,0,0.6-0.2,0.7-0.5c0.1-0.2,0.2-0.2,0.4,0
			c0.4,0.4,0.3,0.9,0.1,1.4c-0.3,1-0.7,2-1,3c-0.2,0.7-0.4,1.4-0.6,2.1c0,0.1-0.1,0.1-0.2,0.2s-0.1-0.1-0.1-0.2c0-0.2,0-0.3,0-0.5
			c0-0.6,0.1-1.2,0.2-1.8s0.2-1.5,0.2-2.2C-24.2,43.7-24.2,43.6-24.2,43.5L-24.2,43.5"/>
		<path class="st0" d="M-22.2,43.3c0-0.1,0.1-0.1,0.1-0.2c0.1-0.1,0.2-0.3,0.2-0.4c0-0.7,0.7-0.8,1-1.2c0.1,0,0.1,0,0.2,0
			c0.1,0.1,0.1,0.1,0.1,0.2c-0.3,0.9-0.6,1.8-0.9,2.7c-0.1,0.3-0.2,0.7-0.3,1.1c-0.2,0.5-0.3,1-0.5,1.5c-0.2,0.4-0.3,0.8-0.5,1.1
			c-0.1,0.2-0.2,0.3-0.3,0.4h-0.1c0-0.1-0.1-0.2-0.1-0.3c0.2-0.7,0.4-1.3,0.5-2C-22.7,45.3-22.4,44.3-22.2,43.3"/>
		<path class="st0" d="M-20.2,42.6c0-0.1,0.2-0.1,0.3-0.1s0.1,0.1,0.2,0.1s-0.1,0.2-0.2,0.3l-0.6,1.4c-0.2,0.4-0.3,0.7-0.5,1.1
			c-0.3,0.7-0.5,1.5-0.8,2.2c0,0.1-0.1,0.1-0.1,0.2c-0.1,0.1-0.2,0.2-0.3,0.3c0-0.1,0.1-0.2,0.1-0.3c0.2-0.4,0.3-0.8,0.5-1.2
			c0.2-0.7,0.4-1.3,0.6-2S-20.5,43.3-20.2,42.6"/>
		<path class="st0" d="M-5.4,49c-0.2,0.6-0.6,1.2-1.1,1.6c-0.7,0.6-1.3,1.2-2.1,1.7c-0.6,0.4-1.3,0.7-1.9,1
			c-0.5,0.2-0.9,0.3-1.4,0.5s-0.7,0.2-1,0.3s-0.9,0.2-1.3,0.4c-0.7,0.2-1.4,0.5-2.1,0.8c-0.4,0.2-0.8,0.4-1.2,0.5s-0.9,0.3-1.3,0.4
			c-0.3,0.1-0.6,0.2-0.9,0.3c-0.7,0.1-1.3,0.2-2,0.3c-0.9,0.2-1.8,0.2-2.7,0.2c-0.9,0-1.8,0-2.6,0s-1.5,0.2-2.2,0.2
			c-1.1,0-2.3,0.1-3.4,0.1l-1.6,0.1c-1.3,0.1-2.6,0.1-4,0.2l-2.3,0.1c-0.5,0-1.1,0-1.6,0c-0.9,0-1.9,0.2-2.8,0.2
			c-1,0.1-1.9,0.1-2.9,0c-1.1-0.2-2.1-0.2-3.2-0.3c-0.7-0.1-1.4-0.1-2.1-0.2s-1.3-0.3-2-0.5c-0.8-0.2-1.7-0.3-2.5-0.6
			c-1.4-0.4-2.8-0.7-4.1-1.1c-0.7-0.2-1.3-0.5-1.9-0.7c-0.3-0.1-0.6-0.2-0.9-0.2c-0.8-0.3-1.5-0.7-2.3-1c-0.5-0.3-1-0.4-1.5-0.6
			c-0.4-0.1-0.8-0.3-1.2-0.6c-0.4-0.2-0.7-0.4-1-0.7c-0.1-0.1-0.2-0.2-0.3-0.2c-0.6-0.3-0.9-1.1-0.7-1.7c0.2-0.5,0.6-1,1-1.4
			c0.5-0.5,1-0.9,1.5-1.2c0.6-0.3,1.1-0.6,1.8-0.9c0.5-0.2,1-0.4,1.6-0.6c0,0,0.1,0,0.1,0l1.8-0.3l1.3-0.2c0.1,0,0.1,0,0.2,0
			c0,0.1-0.1,0.1-0.1,0.2c-0.1,0.1-0.2,0.2-0.3,0.3c-0.2,0.3-0.5,0.5-0.5,0.8c0,0.6,0.1,1.1,0.4,1.6c0.4,0.7,1,1.2,1.7,1.5
			c0.6,0.2,1.3,0.4,2,0.5c0.9,0.2,1.8,0.3,2.7,0.5c0.5,0,1,0,1.5-0.1c0.4,0,0.9,0,1.3,0c0.5,0,1.1,0,1.6-0.1c1-0.2,2-0.4,3-0.6
			c0.8-0.2,1.6-0.4,2.4-0.6c0.9-0.3,1.6-0.7,2.3-1.4c0.3-0.3,0.5-0.6,0.7-0.9c0.2-0.5,0.1-1-0.2-1.5c-0.6-0.8-1.5-1.3-2.5-1.5
			l-1.6-0.4c-0.1,0-0.2-0.1-0.2-0.1c-0.1-0.1-0.1-0.1-0.1-0.2c0,0,0.1-0.1,0.2-0.1l1.9-0.2c0.6,0,1.3-0.1,1.9-0.1c1,0,2.1,0,3.2,0
			c0.8,0,1.6-0.1,2.4-0.1c0.5,0,0.9,0,1.4,0.1h1.2c0.1,0,0.2,0,0.3,0c0,0,0.1,0,0.1,0h-0.1c-0.3,0.1-0.6,0.3-0.9,0.4
			c-0.1,0.1-0.2,0.2-0.3,0.3c-0.2,0.2-0.4,0.4-0.6,0.7c-0.4,0.5-0.5,1.2-0.3,1.9c0.2,0.7,0.7,1.3,1.3,1.7c0.3,0.1,0.5,0.3,0.8,0.4
			c0.5,0.2,1,0.4,1.4,0.5c0.2,0.1,0.2,0.1,0.1,0.2c-0.1,0.1-0.2,0.3-0.3,0.4c-0.5,0.5-0.5,1.3-0.1,1.8c0.3,0.5,0.7,1,1.2,1.2
			c0.3,0.1,0.5,0.3,0.7,0.4c0.5,0.2,0.9,0.4,1.4,0.5c0.7,0.2,1.5,0.3,1.9,0.4c1.1,0,1.9,0,2.6,0c1,0,2.1-0.1,3.1-0.2
			c0.8-0.1,1.5-0.2,2.3-0.4c0.2,0,0.4-0.2,0.7-0.3c1.1-0.3,2.1-0.7,3-1.3c0.7-0.4,1.3-0.9,1.7-1.7c0.4-0.9,0.1-1.9-0.7-2.5
			c-0.2-0.1-0.3-0.3-0.5-0.5c-0.6-0.4-1.4-0.6-2.2-0.6c-0.1,0-0.3,0.1-0.4,0.1c-0.3,0-0.4-0.1-0.3-0.4c0.3-0.5,0.5-1.1,0.8-1.6
			c0.1-0.2,0.3-0.3,0.5-0.3c0,0,0,0,0,0c0.5,0.1,0.9,0.1,1.4,0.1c0.7,0,1.4-0.1,2.1,0c0.5,0,0.9,0.1,1.3,0.3c0.5,0.1,1,0.2,1.5,0.3
			c0.5,0.1,0.9,0.2,1.4,0.3l0.8,0.3c0.4,0.1,0.9,0.2,1.3,0.4c0.6,0.2,1.3,0.5,1.9,0.8c0.3,0.1,0.4,0.4,0.7,0.7
			c0.5,0.4,0.8,1,0.9,1.7C-5.4,48.6-5.4,48.8-5.4,49"/>
		<path class="st0" d="M-39.2,25.8h0.5c-0.1,0.1-0.1,0.3-0.2,0.4s-0.2,0.4-0.5,0.5c-0.7,0.2-1.5,0.1-2.2-0.2c0,0,0,0-0.1-0.1
			c0,0,0.1,0,0.1,0h0.7c0.6,0,1.2-0.2,1.7-0.5c0,0,0,0,0.1,0"/>
	</g>
</g>
</svg>
